<?xml version="1.0" encoding="UTF-8"?>
<svg width="167.11mm" height="38.71mm" version="1.1" viewBox="0 0 116.04 23.078" xmlns="http://www.w3.org/2000/svg" xmlns:cc="http://creativecommons.org/ns#" xmlns:dc="http://purl.org/dc/elements/1.1/" xmlns:ns2="http://www.iki.fi/pav/software/textext/" xmlns:rdf="http://www.w3.org/1999/02/22-rdf-syntax-ns#">
 <defs>
  <marker id="marker3186" style="overflow:visible" orient="auto">
   <path transform="matrix(-.4 0 0 -.4 -4 0)" d="m0 0 5-5-17.5 5 17.5 5z" style="fill-rule:evenodd;fill:#000000;stroke-width:1pt;stroke:#000000"/>
  </marker>
 </defs>
 <metadata>
  <rdf:RDF>
   <cc:Work rdf:about="">
    <dc:format>image/svg+xml</dc:format>
    <dc:type rdf:resource="http://purl.org/dc/dcmitype/StillImage"/>
    <dc:title/>
   </cc:Work>
  </rdf:RDF>
  <rdf:RDF>
   <cc:Work rdf:about="">
    <dc:title/>
   </cc:Work>
  </rdf:RDF>
 </metadata>
 <g transform="translate(101.8 -66.287)">
  <text x="35.246281" y="42.149555" fill="#000000" font-family="Verdana" font-size="10.583px" letter-spacing="0px" word-spacing="0px" style="line-height:1.25" xml:space="preserve"/>
  <text x="76.906807" y="21.511925" fill="#000000" font-family="Verdana" font-size="10.583px" letter-spacing="0px" word-spacing="0px" style="line-height:1.25" xml:space="preserve"/>
  <g transform="matrix(1.2512,0,0,-1.2512,-160.51,876.57)" fill-rule="evenodd" stroke="#000000" stroke-miterlimit="10.433" stroke-width="1.1988" ns2:preamble="default_packages.tex" ns2:text="$p q$\n" xml:space="preserve"><g transform="matrix(1.5,0,0,-1.5,-165.9,1212.8)" fill-rule="evenodd" stroke="#000000" stroke-miterlimit="10.433" ns2:preamble="default_packages.tex" ns2:text="$\\text{delete readjust}$\n" xml:space="preserve"><g transform="matrix(1.5,0,0,-1.5,-165.59,1212.8)" fill-rule="evenodd" stroke-miterlimit="10.433" ns2:preamble="default_packages.tex" ns2:text="$delete readjust$\n" xml:space="preserve"><flowRoot fill="#000000" font-family="Verdana" font-size="40px" letter-spacing="0px" stroke="none" word-spacing="0px" style="line-height:1.25" xml:space="preserve"><flowRegion><rect x="78.929" y="457.16" width="60" height="76.429"/></flowRegion><flowPara/></flowRoot><g transform="matrix(.20006 0 0 .20006 165.85 418.79)" fill-rule="evenodd" stroke="#000000" stroke-miterlimit="10.433" stroke-width="8.9882" ns2:preamble="default_packages.tex" ns2:text="$f bias variance All functions Learnable functions$\n" xml:space="preserve"><rect transform="scale(1,-1)" x="330.28" y="-674.45" width="7.3561" height="7.3561" style="fill-opacity:.84502;fill:#d0d0ff;opacity:.999;stroke-linecap:round;stroke-miterlimit:10.433;stroke-opacity:.92496;stroke-width:.23505;stroke:#626262"/><g transform="matrix(.50188 0 0 -.50188 266.68 759.19)" ns2:alignment="middle center" ns2:inkscapeversion="1.0" ns2:jacobian_sqrt="3.77952" ns2:pdfconverter="inkscape" ns2:preamble="C:\\Users\\User\\AppData\\Roaming\\inkscape\\extensions\\textext\\default_packages.tex" ns2:scale="2.834645669291339" ns2:texconverter="pdflatex" ns2:text="$\\dots f$" ns2:version="1.1.0"><defs>
    
  </defs>
  <rect x="-141.63" y="127.76" width="410.51" height="95.093" style="fill:#ffffff;opacity:.999;stroke:none"/><g id="id-6e891408-7e0f-41a4-8454-8889087ecd4d" transform="translate(-141.17 42.869)">
    <g transform="translate(1.1144 -.58372)" style="fill:#000000">
      <g transform="translate(148.71 134.76)"><path d="m1.9062-0.53125c0-0.28125-0.23438-0.53125-0.51562-0.53125-0.29688 0-0.53125 0.25-0.53125 0.53125 0 0.29688 0.23438 0.53125 0.53125 0.53125 0.28125 0 0.51562-0.23438 0.51562-0.53125z" style="stroke:none"/>
      </g></g>
    <g transform="translate(1.1144 -.58372)" style="fill:#000000">
      <g transform="translate(153.14 134.76)"><path id="id-587a1d5d-d6b6-4a2b-8eb4-1657d5f9ca3c" d="m1.9062-0.53125c0-0.28125-0.23438-0.53125-0.51562-0.53125-0.29688 0-0.53125 0.25-0.53125 0.53125 0 0.29688 0.23438 0.53125 0.53125 0.53125 0.28125 0 0.51562-0.23438 0.51562-0.53125z" style="stroke:none"/>
      </g></g>
    <g transform="translate(1.1144 -.58372)" style="fill:#000000">
      <g transform="translate(157.56 134.76)"><path d="m1.9062-0.53125c0-0.28125-0.23438-0.53125-0.51562-0.53125-0.29688 0-0.53125 0.25-0.53125 0.53125 0 0.29688 0.23438 0.53125 0.53125 0.53125 0.28125 0 0.51562-0.23438 0.51562-0.53125z" style="stroke:none"/>
      </g></g>
    <g transform="matrix(1.2104 0 0 1.2104 11.022 -48.752)" style="fill:#000000">
      <g transform="translate(162 134.76)"><path id="id-878b61ba-cc34-4cc4-8f0f-edde1d6d0a5e" d="m3.6562-3.9844h0.85938c0.20312 0 0.29688 0 0.29688-0.20312 0-0.10938-0.09375-0.10938-0.26562-0.10938h-0.82812l0.20312-1.1406c0.046875-0.20312 0.1875-0.90625 0.25-1.0312 0.078125-0.1875 0.25-0.34375 0.46875-0.34375 0.03125 0 0.29688 0 0.48438 0.1875-0.4375 0.03125-0.54688 0.39062-0.54688 0.53125 0 0.23438 0.1875 0.35938 0.375 0.35938 0.26562 0 0.54688-0.23438 0.54688-0.60938 0-0.45312-0.45312-0.6875-0.85938-0.6875-0.34375 0-0.96875 0.1875-1.2656 1.1719-0.0625 0.20312-0.09375 0.3125-0.32812 1.5625h-0.6875c-0.20312 0-0.3125 0-0.3125 0.1875 0 0.125 0.09375 0.125 0.28125 0.125h0.65625l-0.73438 3.9375c-0.1875 0.96875-0.35938 1.875-0.875 1.875-0.046875 0-0.28125 0-0.48438-0.1875 0.46875-0.03125 0.5625-0.39062 0.5625-0.53125 0-0.23438-0.1875-0.35938-0.375-0.35938-0.26562 0-0.54688 0.23438-0.54688 0.60938 0 0.4375 0.4375 0.6875 0.84375 0.6875 0.54688 0 0.95312-0.59375 1.125-0.96875 0.32812-0.625 0.54688-1.8281 0.5625-1.9062z" style="stroke:none"/>
      </g></g>
  <path d="m192.77 132.76h32.476" style="fill:none;marker-end:url(#marker3186);stroke-miterlimit:10.433;stroke-width:.71497;stroke:#000000"/><g transform="translate(135.36 -.049872)" style="fill:#000000"><g transform="translate(148.71 134.76)"><path d="m1.9062-0.53125c0-0.28125-0.23438-0.53125-0.51562-0.53125-0.29688 0-0.53125 0.25-0.53125 0.53125 0 0.29688 0.23438 0.53125 0.53125 0.53125 0.28125 0 0.51562-0.23438 0.51562-0.53125z" style="stroke:none"/></g></g><g transform="translate(135.36 -.049872)" style="fill:#000000"><g transform="translate(153.14 134.76)"><path d="m1.9062-0.53125c0-0.28125-0.23438-0.53125-0.51562-0.53125-0.29688 0-0.53125 0.25-0.53125 0.53125 0 0.29688 0.23438 0.53125 0.53125 0.53125 0.28125 0 0.51562-0.23438 0.51562-0.53125z" style="stroke:none"/></g></g><g transform="translate(135.36 -.049872)" style="fill:#000000"><g transform="translate(157.56 134.76)"><path d="m1.9062-0.53125c0-0.28125-0.23438-0.53125-0.51562-0.53125-0.29688 0-0.53125 0.25-0.53125 0.53125 0 0.29688 0.23438 0.53125 0.53125 0.53125 0.28125 0 0.51562-0.23438 0.51562-0.53125z" style="stroke:none"/></g></g><text x="105.362" y="135.42055" style="font-family:'Courier New';font-size:6.6816px;font-weight:bold;letter-spacing:0px;line-height:1.25;stroke-width:1.5014;word-spacing:0px" xml:space="preserve"><tspan x="105.362" y="135.42055" style="stroke-width:1.5014;stroke:none">125</tspan></text><text x="122.11592" y="135.66667" style="font-family:'Courier New';font-size:6.6816px;font-weight:bold;letter-spacing:0px;line-height:1.25;stroke-width:1.5014;word-spacing:0px" xml:space="preserve"><tspan x="122.11592" y="135.66667" style="stroke-width:1.5014;stroke:none">15</tspan></text><text x="137.14476" y="135.36003" style="font-family:'Courier New';font-size:6.6816px;font-weight:bold;letter-spacing:0px;line-height:1.25;stroke-width:1.5014;word-spacing:0px" xml:space="preserve"><tspan x="137.14476" y="135.36003" style="stroke-width:1.5014;stroke:none">51</tspan></text><text x="166.23517" y="135.32254" style="font-family:'Courier New';font-size:6.6816px;font-weight:bold;letter-spacing:0px;line-height:1.25;stroke-width:1.5014;word-spacing:0px" xml:space="preserve"><tspan x="166.23517" y="135.32254" style="stroke-width:1.5014;stroke:none">60</tspan></text></g>
<text x="159.68039" y="178.19107" style="font-family:'Courier New';font-size:6.6816px;font-weight:bold;letter-spacing:0px;line-height:1.25;stroke-width:1.5014;word-spacing:0px" xml:space="preserve"><tspan x="159.68039" y="178.19107" style="stroke-width:1.5014;stroke:none">20</tspan></text><text x="117.55963" y="178.64212" style="font-family:'Courier New';font-size:6.6816px;font-weight:bold;letter-spacing:0px;line-height:1.25;stroke-width:1.5014;word-spacing:0px" xml:space="preserve"><tspan x="117.55963" y="178.64212" style="stroke-width:1.5014;stroke:none">5</tspan></text><text x="101.10935" y="178.32373" style="font-family:'Courier New';font-size:6.6816px;font-weight:bold;letter-spacing:0px;line-height:1.25;stroke-width:1.5014;word-spacing:0px" xml:space="preserve"><tspan x="101.10935" y="178.32373" style="stroke-width:1.5014;stroke:none">16</tspan></text></g><rect transform="scale(1,-1)" x="255.48" y="-674.45" width="7.3561" height="7.3561" style="fill:#f8f8f9;opacity:.999;stroke-linecap:round;stroke-miterlimit:10.433;stroke-opacity:.92496;stroke-width:.23505;stroke:#626262"/><rect transform="scale(1,-1)" x="315.57" y="-674.45" width="7.3561" height="7.3561" style="fill-opacity:.15824;fill:#000000;opacity:.999;stroke-linecap:round;stroke-miterlimit:10.433;stroke-opacity:.92496;stroke-width:.23505;stroke:#626262"/><rect transform="scale(1,-1)" x="203.76" y="-685.82" width="7.3561" height="7.3561" style="fill-opacity:.15824;fill:#000000;opacity:.999;stroke-linecap:round;stroke-miterlimit:10.433;stroke-opacity:.92496;stroke-width:.23505;stroke:#626262"/><rect transform="scale(1,-1)" x="218.47" y="-685.82" width="7.3561" height="7.3561" style="fill-opacity:.15824;fill:#000000;opacity:.999;stroke-linecap:round;stroke-miterlimit:10.433;stroke-opacity:.92496;stroke-width:.23505;stroke:#626262"/><rect transform="scale(1,-1)" x="225.83" y="-685.82" width="7.3561" height="7.3561" style="fill-opacity:.15824;fill:#000000;opacity:.999;stroke-linecap:round;stroke-miterlimit:10.433;stroke-opacity:.92496;stroke-width:.23505;stroke:#626262"/><rect transform="scale(1,-1)" x="203.76" y="-678.47" width="7.3561" height="7.3561" style="fill:#f0f0f0;opacity:.999;stroke-linecap:round;stroke-miterlimit:10.433;stroke-opacity:.92496;stroke-width:.23505;stroke:#626262"/><rect transform="scale(1,-1)" x="211.12" y="-678.47" width="7.3561" height="7.3561" style="fill:#f8f8f8;opacity:.999;stroke-linecap:round;stroke-miterlimit:10.433;stroke-opacity:.92496;stroke-width:.23505;stroke:#626262"/><rect transform="scale(1,-1)" x="218.47" y="-678.47" width="7.3561" height="7.3561" style="fill:#d3d3d3;opacity:.999;stroke-linecap:round;stroke-miterlimit:10.433;stroke-opacity:.92496;stroke-width:.23505;stroke:#626262"/><rect transform="scale(1,-1)" x="225.83" y="-678.47" width="7.3561" height="7.3561" style="fill-opacity:.15824;fill:#000000;opacity:.999;stroke-linecap:round;stroke-miterlimit:10.433;stroke-opacity:.92496;stroke-width:.23505;stroke:#626262"/><rect transform="scale(1,-1)" x="203.76" y="-671.11" width="7.3561" height="7.3561" style="fill-opacity:.15824;fill:#000000;opacity:.999;stroke-linecap:round;stroke-miterlimit:10.433;stroke-opacity:.92496;stroke-width:.23505;stroke:#626262"/><rect transform="scale(1,-1)" x="203.76" y="-663.76" width="7.3561" height="7.3561" style="fill-opacity:.15824;fill:#000000;opacity:.999;stroke-linecap:round;stroke-miterlimit:10.433;stroke-opacity:.92496;stroke-width:.23505;stroke:#626262"/><rect transform="scale(1,-1)" x="211.12" y="-671.11" width="7.3561" height="7.3561" style="fill:#e8e8e8;opacity:.999;stroke-linecap:round;stroke-miterlimit:10.433;stroke-opacity:.92496;stroke-width:.23505;stroke:#626262"/><rect transform="scale(1,-1)" x="218.47" y="-663.76" width="7.3561" height="7.3561" style="fill:#e6e6e6;opacity:.999;stroke-linecap:round;stroke-miterlimit:10.433;stroke-opacity:.92496;stroke-width:.23505;stroke:#626262"/><rect transform="scale(1,-1)" x="218.47" y="-671.11" width="7.3561" height="7.3561" style="fill:#bcbcbc;opacity:.999;stroke-linecap:round;stroke-miterlimit:10.433;stroke-opacity:.92496;stroke-width:.23505;stroke:#626262"/><rect transform="scale(1,-1)" x="225.83" y="-663.76" width="7.3561" height="7.3561" style="fill-opacity:.15824;fill:#000000;opacity:.999;stroke-linecap:round;stroke-miterlimit:10.433;stroke-opacity:.92496;stroke-width:.23505;stroke:#626262"/><rect transform="scale(1,-1)" x="225.83" y="-671.11" width="7.3561" height="7.3561" style="fill:#999999;opacity:.999;stroke-linecap:round;stroke-miterlimit:10.433;stroke-opacity:.92496;stroke-width:.23505;stroke:#626262"/><rect transform="scale(1,-1)" x="211.12" y="-663.76" width="7.3561" height="7.3561" style="fill:#f8f8f8;opacity:.999;stroke-linecap:round;stroke-miterlimit:10.433;stroke-opacity:.92496;stroke-width:.23505;stroke:#626262"/><rect transform="scale(1,-1)" x="211.12" y="-685.82" width="7.3561" height="7.3561" style="fill:#f8f8f8;opacity:.999;stroke-linecap:round;stroke-miterlimit:10.433;stroke-opacity:.92496;stroke-width:.23505;stroke:#626262"/><rect transform="scale(1,-1)" x="248.13" y="-674.45" width="7.3561" height="7.3561" style="fill-opacity:.15824;fill:#000000;opacity:.999;stroke-linecap:round;stroke-miterlimit:10.433;stroke-opacity:.92496;stroke-width:.23505;stroke:#626262"/><rect transform="scale(1,-1)" x="262.84" y="-674.45" width="7.3561" height="7.3561" style="fill-opacity:.15824;fill:#000000;opacity:.999;stroke-linecap:round;stroke-miterlimit:10.433;stroke-opacity:.92496;stroke-width:.23505;stroke:#626262"/><rect transform="scale(1,-1)" x="277.55" y="-674.45" width="7.3561" height="7.3561" style="fill-opacity:.15824;fill:#000000;opacity:.999;stroke-linecap:round;stroke-miterlimit:10.433;stroke-opacity:.92496;stroke-width:.23505;stroke:#626262"/><g transform="matrix(.77741 0 0 -.77741 238.19 672.32)" ns2:alignment="middle center" ns2:inkscapeversion="1.0" ns2:jacobian_sqrt="3.77952" ns2:pdfconverter="inkscape" ns2:preamble="C:\\Users\\User\\AppData\\Roaming\\inkscape\\extensions\\textext\\default_packages.tex" ns2:scale="2.834645669291339" ns2:texconverter="pdflatex" ns2:text="$\\simeq$" ns2:version="1.1.0"><defs>
    
  </defs>
  <g id="id-a890b353-df6e-4972-9fc1-67bc15cf707e" transform="translate(-149.26 -130.14)">
    <g style="fill:#000000">
      <g transform="translate(148.71 134.76)"><path id="id-a27a8448-01a0-48f4-ab74-8cef6494b6bf" d="m7.2031-4.3125c0-0.21875-0.078125-0.29688-0.14062-0.29688-0.046875 0-0.14062 0.03125-0.14062 0.26562-0.046875 0.82812-0.73438 1.2969-1.3906 1.2969-0.59375 0-1.0781-0.35938-1.5938-0.75-0.53125-0.42188-1.0625-0.82812-1.7188-0.82812-0.98438 0-1.6719 0.875-1.6719 1.8125 0 0.29688 0.125 0.3125 0.14062 0.3125 0.10938 0 0.14062-0.20312 0.14062-0.23438 0.046875-0.96875 0.84375-1.3281 1.3906-1.3281 0.59375 0 1.0781 0.34375 1.5938 0.75 0.53125 0.40625 1.0469 0.8125 1.7188 0.8125 0.98438 0 1.6719-0.875 1.6719-1.8125zm-6.2969 3.5625c-0.15625 0-0.35938 0-0.35938 0.1875 0 0.20312 0.1875 0.20312 0.34375 0.20312h5.9531c0.17188 0 0.35938 0 0.35938-0.20312 0-0.1875-0.1875-0.1875-0.35938-0.1875z" style="stroke:none"/>
      </g></g>
  </g>
</g><rect transform="scale(1,-1)" x="344.99" y="-674.45" width="7.3561" height="7.3561" style="fill-opacity:.15824;fill:#000000;opacity:.999;stroke-linecap:round;stroke-miterlimit:10.433;stroke-opacity:.92496;stroke-width:.23505;stroke:#626262"/><rect transform="scale(1,-1)" x="363.85" y="-685.82" width="7.3561" height="7.3561" style="fill-opacity:.15824;fill:#000000;opacity:.999;stroke-linecap:round;stroke-miterlimit:10.433;stroke-opacity:.92496;stroke-width:.23505;stroke:#626262"/><rect transform="scale(1,-1)" x="378.56" y="-685.82" width="7.3561" height="7.3561" style="fill-opacity:.15824;fill:#000000;opacity:.999;stroke-linecap:round;stroke-miterlimit:10.433;stroke-opacity:.92496;stroke-width:.23505;stroke:#626262"/><rect transform="scale(1,-1)" x="363.85" y="-678.47" width="7.3561" height="7.3561" style="fill:#f0f0f0;opacity:.999;stroke-linecap:round;stroke-miterlimit:10.433;stroke-opacity:.92496;stroke-width:.23505;stroke:#626262"/><rect transform="scale(1,-1)" x="385.92" y="-678.47" width="7.3561" height="7.3561" style="fill:#f8f8f8;opacity:.999;stroke-linecap:round;stroke-miterlimit:10.433;stroke-opacity:.92496;stroke-width:.23505;stroke:#626262"/><rect transform="scale(1,-1)" x="378.56" y="-678.47" width="7.3561" height="7.3561" style="fill:#d3d3d3;opacity:.999;stroke-linecap:round;stroke-miterlimit:10.433;stroke-opacity:.92496;stroke-width:.23505;stroke:#626262"/><rect transform="scale(1,-1)" x="371.2" y="-678.47" width="7.3561" height="7.3561" style="fill-opacity:.15824;fill:#000000;opacity:.999;stroke-linecap:round;stroke-miterlimit:10.433;stroke-opacity:.92496;stroke-width:.23505;stroke:#626262"/><rect transform="scale(1,-1)" x="363.85" y="-671.11" width="7.3561" height="7.3561" style="fill-opacity:.15824;fill:#000000;opacity:.999;stroke-linecap:round;stroke-miterlimit:10.433;stroke-opacity:.92496;stroke-width:.23505;stroke:#626262"/><rect transform="scale(1,-1)" x="385.92" y="-671.11" width="7.3561" height="7.3561" style="fill:#e8e8e8;opacity:.999;stroke-linecap:round;stroke-miterlimit:10.433;stroke-opacity:.92496;stroke-width:.23505;stroke:#626262"/><rect transform="scale(1,-1)" x="378.56" y="-671.11" width="7.3561" height="7.3561" style="fill:#bcbcbc;opacity:.999;stroke-linecap:round;stroke-miterlimit:10.433;stroke-opacity:.92496;stroke-width:.23505;stroke:#626262"/><rect transform="scale(1,-1)" x="371.2" y="-671.11" width="7.3561" height="7.3561" style="fill:#999999;opacity:.999;stroke-linecap:round;stroke-miterlimit:10.433;stroke-opacity:.92496;stroke-width:.23505;stroke:#626262"/><rect transform="scale(1,-1)" x="363.85" y="-663.76" width="7.3561" height="7.3561" style="fill-opacity:.15824;fill:#000000;opacity:.999;stroke-linecap:round;stroke-miterlimit:10.433;stroke-opacity:.92496;stroke-width:.23505;stroke:#626262"/><rect transform="scale(1,-1)" x="378.56" y="-663.76" width="7.3561" height="7.3561" style="fill:#e6e6e6;opacity:.999;stroke-linecap:round;stroke-miterlimit:10.433;stroke-opacity:.92496;stroke-width:.23505;stroke:#626262"/><rect transform="scale(1,-1)" x="385.92" y="-663.76" width="7.3561" height="7.3561" style="fill-opacity:.15824;fill:#000000;opacity:.999;stroke-linecap:round;stroke-miterlimit:10.433;stroke-opacity:.92496;stroke-width:.23505;stroke:#626262"/><rect transform="scale(1,-1)" x="371.2" y="-663.76" width="7.3561" height="7.3561" style="fill:#f8f8f8;opacity:.999;stroke-linecap:round;stroke-miterlimit:10.433;stroke-opacity:.92496;stroke-width:.23505;stroke:#626262"/><rect transform="scale(1,-1)" x="371.2" y="-685.82" width="7.3561" height="7.3561" style="fill:#f8f8f8;opacity:.999;stroke-linecap:round;stroke-miterlimit:10.433;stroke-opacity:.92496;stroke-width:.23505;stroke:#626262"/><rect transform="scale(1,-1)" x="337.64" y="-674.45" width="7.3561" height="7.3561" style="fill-opacity:0;opacity:.999;stroke-linecap:round;stroke-miterlimit:10.433;stroke-opacity:.92496;stroke-width:.23505;stroke:#626262"/><g transform="matrix(.77741 0 0 -.77741 355.87 672.32)" ns2:alignment="middle center" ns2:inkscapeversion="1.0" ns2:jacobian_sqrt="3.77952" ns2:pdfconverter="inkscape" ns2:preamble="C:\\Users\\User\\AppData\\Roaming\\inkscape\\extensions\\textext\\default_packages.tex" ns2:scale="2.834645669291339" ns2:texconverter="pdflatex" ns2:text="$\\simeq$" ns2:version="1.1.0"><defs/><g transform="translate(-149.26 -130.14)"><g style="fill:#000000"><g transform="translate(148.71 134.76)"><path d="m7.2031-4.3125c0-0.21875-0.078125-0.29688-0.14062-0.29688-0.046875 0-0.14062 0.03125-0.14062 0.26562-0.046875 0.82812-0.73438 1.2969-1.3906 1.2969-0.59375 0-1.0781-0.35938-1.5938-0.75-0.53125-0.42188-1.0625-0.82812-1.7188-0.82812-0.98438 0-1.6719 0.875-1.6719 1.8125 0 0.29688 0.125 0.3125 0.14062 0.3125 0.10938 0 0.14062-0.20312 0.14062-0.23438 0.046875-0.96875 0.84375-1.3281 1.3906-1.3281 0.59375 0 1.0781 0.34375 1.5938 0.75 0.53125 0.40625 1.0469 0.8125 1.7188 0.8125 0.98438 0 1.6719-0.875 1.6719-1.8125zm-6.2969 3.5625c-0.15625 0-0.35938 0-0.35938 0.1875 0 0.20312 0.1875 0.20312 0.34375 0.20312h5.9531c0.17188 0 0.35938 0 0.35938-0.20312 0-0.1875-0.1875-0.1875-0.35938-0.1875z" style="stroke:none"/></g></g></g></g><rect transform="scale(1,-1)" x="385.92" y="-685.82" width="7.3561" height="7.3561" style="fill:#999999;opacity:.999;stroke-linecap:round;stroke-miterlimit:10.433;stroke-opacity:.92496;stroke-width:.23505;stroke:#626262"/><rect transform="scale(1,-1)" x="270.19" y="-674.45" width="7.3561" height="7.3561" style="fill-opacity:0;opacity:.999;stroke-linecap:round;stroke-miterlimit:10.433;stroke-opacity:.92496;stroke-width:.23505;stroke:#626262"/><rect transform="scale(1,-1)" x="322.93" y="-674.45" width="7.3561" height="7.3561" style="fill:#f8f8f8;opacity:.999;stroke-linecap:round;stroke-miterlimit:10.433;stroke-opacity:.92496;stroke-width:.23505;stroke:#626262"/><text transform="scale(1,-1)" x="258.13281" y="-670.99628" style="font-family:'Courier New';font-size:13.048px;font-weight:bold;letter-spacing:0px;line-height:1.25;stroke-width:2.932;word-spacing:0px" xml:space="preserve"><tspan x="258.13281" y="-670.99628" style="stroke-width:2.932"/></text><text transform="scale(1,-1)" x="257.4985" y="-669.79053" style="font-family:'Courier New';font-size:3.3534px;font-weight:bold;letter-spacing:0px;line-height:1.25;stroke-width:.75352;word-spacing:0px" xml:space="preserve"><tspan x="257.4985" y="-669.79053" style="stroke-width:.75352;stroke:none">12</tspan></text><rect transform="scale(1,-1)" x="330.28" y="-674.45" width="7.3561" height="7.3561" style="fill:#9f9f9f;opacity:.999;stroke-linecap:round;stroke-miterlimit:10.433;stroke-opacity:.92496;stroke-width:.23505;stroke:#626262"/><text transform="scale(1,-1)" x="330.97668" y="-669.71747" style="font-family:'Courier New';font-size:3.3534px;font-weight:bold;letter-spacing:0px;line-height:1.25;stroke-width:.75352;word-spacing:0px" xml:space="preserve"><tspan x="330.97668" y="-669.71747" style="stroke-width:.75352;stroke:none">200</tspan></text><text transform="scale(1,-1)" x="325.80081" y="-669.7804" style="font-family:'Courier New';font-size:3.3534px;font-weight:bold;letter-spacing:0px;line-height:1.25;stroke-width:.75352;word-spacing:0px" xml:space="preserve"><tspan x="325.80081" y="-669.7804" style="stroke-width:.75352;stroke:none">5</tspan></text><g transform="matrix(.50188 0 0 -.50188 262.23 681.91)" ns2:alignment="middle center" ns2:inkscapeversion="1.0" ns2:jacobian_sqrt="0.501884" ns2:pdfconverter="inkscape" ns2:preamble="C:\\Users\\User\\AppData\\Roaming\\inkscape\\extensions\\textext\\default_packages.tex" ns2:scale="0.37641368532737063" ns2:texconverter="pdflatex" ns2:text="$\\mathbb{R}^{mn}$" ns2:version="1.1.0"><defs/><g transform="translate(-148.87 -127.94)"><g id="id-2dbd0e50-0265-47c5-9358-2f114a847eaa" style="fill:#000000"><g transform="translate(148.71 134.76)"><path id="id-d61cde76-2354-4c23-a0f8-3f24faef584a" d="m2.6719-3.125h0.35938l1.5 2.3125c0.09375 0.15625 0.32812 0.54688 0.4375 0.6875 0.078125 0.125 0.10938 0.125 0.32812 0.125h1.375c0.1875 0 0.34375 0 0.34375-0.17188 0-0.09375-0.0625-0.15625-0.15625-0.17188-0.375-0.078125-0.85938-0.75-1.0938-1.0625-0.078125-0.09375-0.57812-0.75-1.2344-1.8281 0.875-0.17188 1.7344-0.54688 1.7344-1.7344 0-1.375-1.4531-1.8594-2.6406-1.8594h-3.125c-0.1875 0-0.34375 0-0.34375 0.17188s0.1875 0.17188 0.26562 0.17188c0.57812 0 0.625 0.078125 0.625 0.57812v4.9844c0 0.5-0.046875 0.57812-0.625 0.57812-0.078125 0-0.26562 0-0.26562 0.17188s0.15625 0.17188 0.34375 0.17188h2.7344c0.17188 0 0.32812 0 0.32812-0.17188s-0.17188-0.17188-0.28125-0.17188c-0.5625 0-0.60938-0.078125-0.60938-0.57812zm1.9219-0.5c0.28125-0.35938 0.3125-0.89062 0.3125-1.3281 0-0.48438-0.0625-1.0156-0.375-1.4219 0.40625 0.09375 1.3906 0.40625 1.3906 1.4062 0 0.65625-0.29688 1.1562-1.3281 1.3438zm-1.9219-2.3125c0-0.21875 0-0.54688 0.625-0.54688 0.84375 0 1.2656 0.35938 1.2656 1.5312 0 1.2812-0.3125 1.4688-1.8906 1.4688zm-1.3594 5.5938c0.078125-0.1875 0.078125-0.46875 0.078125-0.54688v-5.0469c0-0.09375 0-0.35938-0.078125-0.54688h1.1406c-0.125 0.17188-0.125 0.35938-0.125 0.51562v5.0781c0 0.09375 0 0.35938 0.078125 0.54688zm2.125-2.7812c0.078125-0.015625 0.10938-0.03125 0.1875-0.03125 0.15625 0 0.375-0.015625 0.51562-0.03125 0.15625 0.23438 1.2344 2.0156 2.0625 2.8438h-0.96875z" style="stroke:none"/></g></g><g style="fill:#000000"><g transform="translate(155.91 131.15)"><path d="m3.0312-0.5625c-0.046875 0.14062-0.10938 0.375-0.10938 0.40625 0 0.15625 0.125 0.21875 0.23438 0.21875 0.14062 0 0.25-0.078125 0.28125-0.14062s0.09375-0.29688 0.125-0.4375c0.03125-0.125 0.10938-0.45312 0.15625-0.625 0.03125-0.15625 0.078125-0.3125 0.10938-0.46875 0.078125-0.29688 0.078125-0.3125 0.21875-0.53125 0.21875-0.34375 0.57812-0.73438 1.1094-0.73438 0.39062 0 0.42188 0.3125 0.42188 0.48438 0 0.42188-0.29688 1.1875-0.42188 1.4844-0.0625 0.20312-0.09375 0.26562-0.09375 0.375 0 0.375 0.29688 0.59375 0.65625 0.59375 0.70312 0 1-0.95312 1-1.0625 0-0.09375-0.078125-0.09375-0.10938-0.09375-0.09375 0-0.09375 0.046875-0.125 0.125-0.15625 0.5625-0.46875 0.84375-0.73438 0.84375-0.15625 0-0.1875-0.09375-0.1875-0.25s0.046875-0.25 0.17188-0.5625c0.078125-0.21875 0.35938-0.95312 0.35938-1.3438 0-0.10938 0-0.40625-0.25-0.60938-0.125-0.078125-0.32812-0.1875-0.65625-0.1875-0.625 0-1 0.42188-1.2344 0.70312-0.046875-0.59375-0.54688-0.70312-0.90625-0.70312-0.57812 0-0.96875 0.35938-1.1719 0.64062-0.046875-0.48438-0.45312-0.64062-0.75-0.64062s-0.45312 0.21875-0.54688 0.375c-0.15625 0.26562-0.25 0.65625-0.25 0.70312 0 0.078125 0.09375 0.078125 0.125 0.078125 0.09375 0 0.09375-0.015625 0.14062-0.20312 0.10938-0.40625 0.25-0.75 0.51562-0.75 0.1875 0 0.23438 0.15625 0.23438 0.34375 0 0.125-0.0625 0.39062-0.125 0.57812-0.046875 0.1875-0.10938 0.46875-0.14062 0.625l-0.23438 0.89062c-0.015625 0.09375-0.0625 0.26562-0.0625 0.28125 0 0.15625 0.125 0.21875 0.23438 0.21875 0.125 0 0.23438-0.078125 0.28125-0.14062 0.03125-0.0625 0.078125-0.29688 0.125-0.4375 0.03125-0.125 0.10938-0.45312 0.14062-0.625 0.046875-0.15625 0.09375-0.3125 0.125-0.46875 0.078125-0.28125 0.09375-0.34375 0.29688-0.625 0.1875-0.28125 0.51562-0.64062 1.0469-0.64062 0.39062 0 0.40625 0.35938 0.40625 0.48438 0 0.17188-0.015625 0.26562-0.125 0.65625z" style="stroke:none"/></g><g transform="translate(162.98 131.15)"><path id="id-7d54ef4e-2edc-48e5-924f-ad293d6ea58b" d="m0.84375-0.4375c-0.015625 0.09375-0.0625 0.26562-0.0625 0.28125 0 0.15625 0.125 0.21875 0.23438 0.21875 0.125 0 0.23438-0.078125 0.28125-0.14062 0.03125-0.0625 0.078125-0.29688 0.125-0.4375 0.03125-0.125 0.10938-0.45312 0.14062-0.625 0.046875-0.15625 0.09375-0.3125 0.125-0.46875 0.078125-0.28125 0.09375-0.34375 0.29688-0.625 0.1875-0.28125 0.51562-0.64062 1.0469-0.64062 0.39062 0 0.40625 0.35938 0.40625 0.48438 0 0.42188-0.29688 1.1875-0.40625 1.4844-0.078125 0.20312-0.10938 0.26562-0.10938 0.375 0 0.375 0.29688 0.59375 0.65625 0.59375 0.70312 0 1-0.95312 1-1.0625 0-0.09375-0.078125-0.09375-0.10938-0.09375-0.09375 0-0.09375 0.046875-0.125 0.125-0.15625 0.5625-0.46875 0.84375-0.73438 0.84375-0.15625 0-0.1875-0.09375-0.1875-0.25s0.046875-0.25 0.17188-0.5625c0.078125-0.21875 0.35938-0.95312 0.35938-1.3438 0-0.67188-0.53125-0.79688-0.90625-0.79688-0.57812 0-0.96875 0.35938-1.1719 0.64062-0.046875-0.48438-0.45312-0.64062-0.75-0.64062s-0.45312 0.21875-0.54688 0.375c-0.15625 0.26562-0.25 0.65625-0.25 0.70312 0 0.078125 0.09375 0.078125 0.125 0.078125 0.09375 0 0.09375-0.015625 0.14062-0.20312 0.10938-0.40625 0.25-0.75 0.51562-0.75 0.1875 0 0.23438 0.15625 0.23438 0.34375 0 0.125-0.0625 0.39062-0.125 0.57812-0.046875 0.1875-0.10938 0.46875-0.14062 0.625z" style="stroke:none"/></g></g><g transform="translate(-77.869 -31.086)" style="fill:#000000"><g transform="matrix(1.442 0 0 1.442 136.3 147.16)"><path d="m3.0312-0.5625c-0.046875 0.14062-0.10938 0.375-0.10938 0.40625 0 0.15625 0.125 0.21875 0.23438 0.21875 0.14062 0 0.25-0.078125 0.28125-0.14062s0.09375-0.29688 0.125-0.4375c0.03125-0.125 0.10938-0.45312 0.15625-0.625 0.03125-0.15625 0.078125-0.3125 0.10938-0.46875 0.078125-0.29688 0.078125-0.3125 0.21875-0.53125 0.21875-0.34375 0.57812-0.73438 1.1094-0.73438 0.39062 0 0.42188 0.3125 0.42188 0.48438 0 0.42188-0.29688 1.1875-0.42188 1.4844-0.0625 0.20312-0.09375 0.26562-0.09375 0.375 0 0.375 0.29688 0.59375 0.65625 0.59375 0.70312 0 1-0.95312 1-1.0625 0-0.09375-0.078125-0.09375-0.10938-0.09375-0.09375 0-0.09375 0.046875-0.125 0.125-0.15625 0.5625-0.46875 0.84375-0.73438 0.84375-0.15625 0-0.1875-0.09375-0.1875-0.25s0.046875-0.25 0.17188-0.5625c0.078125-0.21875 0.35938-0.95312 0.35938-1.3438 0-0.10938 0-0.40625-0.25-0.60938-0.125-0.078125-0.32812-0.1875-0.65625-0.1875-0.625 0-1 0.42188-1.2344 0.70312-0.046875-0.59375-0.54688-0.70312-0.90625-0.70312-0.57812 0-0.96875 0.35938-1.1719 0.64062-0.046875-0.48438-0.45312-0.64062-0.75-0.64062s-0.45312 0.21875-0.54688 0.375c-0.15625 0.26562-0.25 0.65625-0.25 0.70312 0 0.078125 0.09375 0.078125 0.125 0.078125 0.09375 0 0.09375-0.015625 0.14062-0.20312 0.10938-0.40625 0.25-0.75 0.51562-0.75 0.1875 0 0.23438 0.15625 0.23438 0.34375 0 0.125-0.0625 0.39062-0.125 0.57812-0.046875 0.1875-0.10938 0.46875-0.14062 0.625l-0.23438 0.89062c-0.015625 0.09375-0.0625 0.26562-0.0625 0.28125 0 0.15625 0.125 0.21875 0.23438 0.21875 0.125 0 0.23438-0.078125 0.28125-0.14062 0.03125-0.0625 0.078125-0.29688 0.125-0.4375 0.03125-0.125 0.10938-0.45312 0.14062-0.625 0.046875-0.15625 0.09375-0.3125 0.125-0.46875 0.078125-0.28125 0.09375-0.34375 0.29688-0.625 0.1875-0.28125 0.51562-0.64062 1.0469-0.64062 0.39062 0 0.40625 0.35938 0.40625 0.48438 0 0.17188-0.015625 0.26562-0.125 0.65625z" style="stroke:none"/></g><g transform="matrix(1.442 0 0 1.442 99.366 183.55)"><path d="m0.84375-0.4375c-0.015625 0.09375-0.0625 0.26562-0.0625 0.28125 0 0.15625 0.125 0.21875 0.23438 0.21875 0.125 0 0.23438-0.078125 0.28125-0.14062 0.03125-0.0625 0.078125-0.29688 0.125-0.4375 0.03125-0.125 0.10938-0.45312 0.14062-0.625 0.046875-0.15625 0.09375-0.3125 0.125-0.46875 0.078125-0.28125 0.09375-0.34375 0.29688-0.625 0.1875-0.28125 0.51562-0.64062 1.0469-0.64062 0.39062 0 0.40625 0.35938 0.40625 0.48438 0 0.42188-0.29688 1.1875-0.40625 1.4844-0.078125 0.20312-0.10938 0.26562-0.10938 0.375 0 0.375 0.29688 0.59375 0.65625 0.59375 0.70312 0 1-0.95312 1-1.0625 0-0.09375-0.078125-0.09375-0.10938-0.09375-0.09375 0-0.09375 0.046875-0.125 0.125-0.15625 0.5625-0.46875 0.84375-0.73438 0.84375-0.15625 0-0.1875-0.09375-0.1875-0.25s0.046875-0.25 0.17188-0.5625c0.078125-0.21875 0.35938-0.95312 0.35938-1.3438 0-0.67188-0.53125-0.79688-0.90625-0.79688-0.57812 0-0.96875 0.35938-1.1719 0.64062-0.046875-0.48438-0.45312-0.64062-0.75-0.64062s-0.45312 0.21875-0.54688 0.375c-0.15625 0.26562-0.25 0.65625-0.25 0.70312 0 0.078125 0.09375 0.078125 0.125 0.078125 0.09375 0 0.09375-0.015625 0.14062-0.20312 0.10938-0.40625 0.25-0.75 0.51562-0.75 0.1875 0 0.23438 0.15625 0.23438 0.34375 0 0.125-0.0625 0.39062-0.125 0.57812-0.046875 0.1875-0.10938 0.46875-0.14062 0.625z" style="stroke:none"/></g><g transform="matrix(1.442 0 0 1.442 491.61 182.97)" style="fill:#000000"><path d="m0.84375-0.4375c-0.015625 0.09375-0.0625 0.26562-0.0625 0.28125 0 0.15625 0.125 0.21875 0.23438 0.21875 0.125 0 0.23438-0.078125 0.28125-0.14062 0.03125-0.0625 0.078125-0.29688 0.125-0.4375 0.03125-0.125 0.10938-0.45312 0.14062-0.625 0.046875-0.15625 0.09375-0.3125 0.125-0.46875 0.078125-0.28125 0.09375-0.34375 0.29688-0.625 0.1875-0.28125 0.51562-0.64062 1.0469-0.64062 0.39062 0 0.40625 0.35938 0.40625 0.48438 0 0.42188-0.29688 1.1875-0.40625 1.4844-0.078125 0.20312-0.10938 0.26562-0.10938 0.375 0 0.375 0.29688 0.59375 0.65625 0.59375 0.70312 0 1-0.95312 1-1.0625 0-0.09375-0.078125-0.09375-0.10938-0.09375-0.09375 0-0.09375 0.046875-0.125 0.125-0.15625 0.5625-0.46875 0.84375-0.73438 0.84375-0.15625 0-0.1875-0.09375-0.1875-0.25s0.046875-0.25 0.17188-0.5625c0.078125-0.21875 0.35938-0.95312 0.35938-1.3438 0-0.67188-0.53125-0.79688-0.90625-0.79688-0.57812 0-0.96875 0.35938-1.1719 0.64062-0.046875-0.48438-0.45312-0.64062-0.75-0.64062s-0.45312 0.21875-0.54688 0.375c-0.15625 0.26562-0.25 0.65625-0.25 0.70312 0 0.078125 0.09375 0.078125 0.125 0.078125 0.09375 0 0.09375-0.015625 0.14062-0.20312 0.10938-0.40625 0.25-0.75 0.51562-0.75 0.1875 0 0.23438 0.15625 0.23438 0.34375 0 0.125-0.0625 0.39062-0.125 0.57812-0.046875 0.1875-0.10938 0.46875-0.14062 0.625z" style="stroke:none"/></g><g transform="matrix(1.442 0 0 1.442 455.04 147.95)" style="fill:#000000"><path d="m3.0312-0.5625c-0.046875 0.14062-0.10938 0.375-0.10938 0.40625 0 0.15625 0.125 0.21875 0.23438 0.21875 0.14062 0 0.25-0.078125 0.28125-0.14062s0.09375-0.29688 0.125-0.4375c0.03125-0.125 0.10938-0.45312 0.15625-0.625 0.03125-0.15625 0.078125-0.3125 0.10938-0.46875 0.078125-0.29688 0.078125-0.3125 0.21875-0.53125 0.21875-0.34375 0.57812-0.73438 1.1094-0.73438 0.39062 0 0.42188 0.3125 0.42188 0.48438 0 0.42188-0.29688 1.1875-0.42188 1.4844-0.0625 0.20312-0.09375 0.26562-0.09375 0.375 0 0.375 0.29688 0.59375 0.65625 0.59375 0.70312 0 1-0.95312 1-1.0625 0-0.09375-0.078125-0.09375-0.10938-0.09375-0.09375 0-0.09375 0.046875-0.125 0.125-0.15625 0.5625-0.46875 0.84375-0.73438 0.84375-0.15625 0-0.1875-0.09375-0.1875-0.25s0.046875-0.25 0.17188-0.5625c0.078125-0.21875 0.35938-0.95312 0.35938-1.3438 0-0.10938 0-0.40625-0.25-0.60938-0.125-0.078125-0.32812-0.1875-0.65625-0.1875-0.625 0-1 0.42188-1.2344 0.70312-0.046875-0.59375-0.54688-0.70312-0.90625-0.70312-0.57812 0-0.96875 0.35938-1.1719 0.64062-0.046875-0.48438-0.45312-0.64062-0.75-0.64062s-0.45312 0.21875-0.54688 0.375c-0.15625 0.26562-0.25 0.65625-0.25 0.70312 0 0.078125 0.09375 0.078125 0.125 0.078125 0.09375 0 0.09375-0.015625 0.14062-0.20312 0.10938-0.40625 0.25-0.75 0.51562-0.75 0.1875 0 0.23438 0.15625 0.23438 0.34375 0 0.125-0.0625 0.39062-0.125 0.57812-0.046875 0.1875-0.10938 0.46875-0.14062 0.625l-0.23438 0.89062c-0.015625 0.09375-0.0625 0.26562-0.0625 0.28125 0 0.15625 0.125 0.21875 0.23438 0.21875 0.125 0 0.23438-0.078125 0.28125-0.14062 0.03125-0.0625 0.078125-0.29688 0.125-0.4375 0.03125-0.125 0.10938-0.45312 0.14062-0.625 0.046875-0.15625 0.09375-0.3125 0.125-0.46875 0.078125-0.28125 0.09375-0.34375 0.29688-0.625 0.1875-0.28125 0.51562-0.64062 1.0469-0.64062 0.39062 0 0.40625 0.35938 0.40625 0.48438 0 0.17188-0.015625 0.26562-0.125 0.65625z" style="stroke:none"/></g></g></g></g><g transform="matrix(.50188 0 0 -.50188 332.06 682.07)" ns2:alignment="middle center" ns2:inkscapeversion="1.0" ns2:jacobian_sqrt="0.501884" ns2:pdfconverter="inkscape" ns2:preamble="C:\\Users\\User\\AppData\\Roaming\\inkscape\\extensions\\textext\\default_packages.tex" ns2:scale="0.37641368532737063" ns2:texconverter="pdflatex" ns2:text="$\\mathbb{R}^{mn}$" ns2:version="1.1.0"><defs/><g transform="translate(-148.87 -127.94)"><g style="fill:#000000"><g transform="translate(148.71 134.76)"><path d="m2.6719-3.125h0.35938l1.5 2.3125c0.09375 0.15625 0.32812 0.54688 0.4375 0.6875 0.078125 0.125 0.10938 0.125 0.32812 0.125h1.375c0.1875 0 0.34375 0 0.34375-0.17188 0-0.09375-0.0625-0.15625-0.15625-0.17188-0.375-0.078125-0.85938-0.75-1.0938-1.0625-0.078125-0.09375-0.57812-0.75-1.2344-1.8281 0.875-0.17188 1.7344-0.54688 1.7344-1.7344 0-1.375-1.4531-1.8594-2.6406-1.8594h-3.125c-0.1875 0-0.34375 0-0.34375 0.17188s0.1875 0.17188 0.26562 0.17188c0.57812 0 0.625 0.078125 0.625 0.57812v4.9844c0 0.5-0.046875 0.57812-0.625 0.57812-0.078125 0-0.26562 0-0.26562 0.17188s0.15625 0.17188 0.34375 0.17188h2.7344c0.17188 0 0.32812 0 0.32812-0.17188s-0.17188-0.17188-0.28125-0.17188c-0.5625 0-0.60938-0.078125-0.60938-0.57812zm1.9219-0.5c0.28125-0.35938 0.3125-0.89062 0.3125-1.3281 0-0.48438-0.0625-1.0156-0.375-1.4219 0.40625 0.09375 1.3906 0.40625 1.3906 1.4062 0 0.65625-0.29688 1.1562-1.3281 1.3438zm-1.9219-2.3125c0-0.21875 0-0.54688 0.625-0.54688 0.84375 0 1.2656 0.35938 1.2656 1.5312 0 1.2812-0.3125 1.4688-1.8906 1.4688zm-1.3594 5.5938c0.078125-0.1875 0.078125-0.46875 0.078125-0.54688v-5.0469c0-0.09375 0-0.35938-0.078125-0.54688h1.1406c-0.125 0.17188-0.125 0.35938-0.125 0.51562v5.0781c0 0.09375 0 0.35938 0.078125 0.54688zm2.125-2.7812c0.078125-0.015625 0.10938-0.03125 0.1875-0.03125 0.15625 0 0.375-0.015625 0.51562-0.03125 0.15625 0.23438 1.2344 2.0156 2.0625 2.8438h-0.96875z" style="stroke:none"/></g></g><g style="fill:#000000"><g transform="translate(155.91 131.15)"><path d="m3.0312-0.5625c-0.046875 0.14062-0.10938 0.375-0.10938 0.40625 0 0.15625 0.125 0.21875 0.23438 0.21875 0.14062 0 0.25-0.078125 0.28125-0.14062s0.09375-0.29688 0.125-0.4375c0.03125-0.125 0.10938-0.45312 0.15625-0.625 0.03125-0.15625 0.078125-0.3125 0.10938-0.46875 0.078125-0.29688 0.078125-0.3125 0.21875-0.53125 0.21875-0.34375 0.57812-0.73438 1.1094-0.73438 0.39062 0 0.42188 0.3125 0.42188 0.48438 0 0.42188-0.29688 1.1875-0.42188 1.4844-0.0625 0.20312-0.09375 0.26562-0.09375 0.375 0 0.375 0.29688 0.59375 0.65625 0.59375 0.70312 0 1-0.95312 1-1.0625 0-0.09375-0.078125-0.09375-0.10938-0.09375-0.09375 0-0.09375 0.046875-0.125 0.125-0.15625 0.5625-0.46875 0.84375-0.73438 0.84375-0.15625 0-0.1875-0.09375-0.1875-0.25s0.046875-0.25 0.17188-0.5625c0.078125-0.21875 0.35938-0.95312 0.35938-1.3438 0-0.10938 0-0.40625-0.25-0.60938-0.125-0.078125-0.32812-0.1875-0.65625-0.1875-0.625 0-1 0.42188-1.2344 0.70312-0.046875-0.59375-0.54688-0.70312-0.90625-0.70312-0.57812 0-0.96875 0.35938-1.1719 0.64062-0.046875-0.48438-0.45312-0.64062-0.75-0.64062s-0.45312 0.21875-0.54688 0.375c-0.15625 0.26562-0.25 0.65625-0.25 0.70312 0 0.078125 0.09375 0.078125 0.125 0.078125 0.09375 0 0.09375-0.015625 0.14062-0.20312 0.10938-0.40625 0.25-0.75 0.51562-0.75 0.1875 0 0.23438 0.15625 0.23438 0.34375 0 0.125-0.0625 0.39062-0.125 0.57812-0.046875 0.1875-0.10938 0.46875-0.14062 0.625l-0.23438 0.89062c-0.015625 0.09375-0.0625 0.26562-0.0625 0.28125 0 0.15625 0.125 0.21875 0.23438 0.21875 0.125 0 0.23438-0.078125 0.28125-0.14062 0.03125-0.0625 0.078125-0.29688 0.125-0.4375 0.03125-0.125 0.10938-0.45312 0.14062-0.625 0.046875-0.15625 0.09375-0.3125 0.125-0.46875 0.078125-0.28125 0.09375-0.34375 0.29688-0.625 0.1875-0.28125 0.51562-0.64062 1.0469-0.64062 0.39062 0 0.40625 0.35938 0.40625 0.48438 0 0.17188-0.015625 0.26562-0.125 0.65625z" style="stroke:none"/></g><g transform="translate(162.98 131.15)"><path d="m0.84375-0.4375c-0.015625 0.09375-0.0625 0.26562-0.0625 0.28125 0 0.15625 0.125 0.21875 0.23438 0.21875 0.125 0 0.23438-0.078125 0.28125-0.14062 0.03125-0.0625 0.078125-0.29688 0.125-0.4375 0.03125-0.125 0.10938-0.45312 0.14062-0.625 0.046875-0.15625 0.09375-0.3125 0.125-0.46875 0.078125-0.28125 0.09375-0.34375 0.29688-0.625 0.1875-0.28125 0.51562-0.64062 1.0469-0.64062 0.39062 0 0.40625 0.35938 0.40625 0.48438 0 0.42188-0.29688 1.1875-0.40625 1.4844-0.078125 0.20312-0.10938 0.26562-0.10938 0.375 0 0.375 0.29688 0.59375 0.65625 0.59375 0.70312 0 1-0.95312 1-1.0625 0-0.09375-0.078125-0.09375-0.10938-0.09375-0.09375 0-0.09375 0.046875-0.125 0.125-0.15625 0.5625-0.46875 0.84375-0.73438 0.84375-0.15625 0-0.1875-0.09375-0.1875-0.25s0.046875-0.25 0.17188-0.5625c0.078125-0.21875 0.35938-0.95312 0.35938-1.3438 0-0.67188-0.53125-0.79688-0.90625-0.79688-0.57812 0-0.96875 0.35938-1.1719 0.64062-0.046875-0.48438-0.45312-0.64062-0.75-0.64062s-0.45312 0.21875-0.54688 0.375c-0.15625 0.26562-0.25 0.65625-0.25 0.70312 0 0.078125 0.09375 0.078125 0.125 0.078125 0.09375 0 0.09375-0.015625 0.14062-0.20312 0.10938-0.40625 0.25-0.75 0.51562-0.75 0.1875 0 0.23438 0.15625 0.23438 0.34375 0 0.125-0.0625 0.39062-0.125 0.57812-0.046875 0.1875-0.10938 0.46875-0.14062 0.625z" style="stroke:none"/></g></g></g></g></g></g></g></g>
 </g>
</svg>
