<?xml version="1.0" encoding="UTF-8"?>
<svg width="138.92mm" height="101.9mm" version="1.1" viewBox="0 0 96.462 60.75" xmlns="http://www.w3.org/2000/svg" xmlns:cc="http://creativecommons.org/ns#" xmlns:dc="http://purl.org/dc/elements/1.1/" xmlns:ns2="http://www.iki.fi/pav/software/textext/" xmlns:rdf="http://www.w3.org/1999/02/22-rdf-syntax-ns#">
 <defs>
  <marker id="Arrow1Mstart" style="overflow:visible" orient="auto">
   <path transform="matrix(.4 0 0 .4 4 0)" d="m0 0 5-5-17.5 5 17.5 5z" style="fill-opacity:.92496;fill-rule:evenodd;fill:#626262;stroke-opacity:.92496;stroke-width:1pt;stroke:#626262"/>
  </marker>
  <marker id="Arrow1Mend" style="overflow:visible" orient="auto">
   <path transform="matrix(-.4 0 0 -.4 -4 0)" d="m0 0 5-5-17.5 5 17.5 5z" style="fill-opacity:.92496;fill-rule:evenodd;fill:#626262;stroke-opacity:.92496;stroke-width:1pt;stroke:#626262"/>
  </marker>
 </defs>
 <metadata>
  <rdf:RDF>
   <cc:Work rdf:about="">
    <dc:format>image/svg+xml</dc:format>
    <dc:type rdf:resource="http://purl.org/dc/dcmitype/StillImage"/>
    <dc:title/>
   </cc:Work>
  </rdf:RDF>
 </metadata>
 <g transform="translate(104.57 -22.502)">
  <text x="35.246281" y="42.149555" fill="#000000" font-family="Verdana" font-size="10.583px" letter-spacing="0px" word-spacing="0px" style="line-height:1.25" xml:space="preserve"/>
  <text x="76.906807" y="21.511925" fill="#000000" font-family="Verdana" font-size="10.583px" letter-spacing="0px" word-spacing="0px" style="line-height:1.25" xml:space="preserve"/>
  <g transform="matrix(1.2512,0,0,-1.2512,-160.51,876.57)" fill-rule="evenodd" stroke="#000000" stroke-miterlimit="10.433" stroke-width="1.1988" ns2:preamble="default_packages.tex" ns2:text="$p q$\n" xml:space="preserve"><g transform="matrix(1.5,0,0,-1.5,-165.9,1212.8)" fill-rule="evenodd" stroke="#000000" stroke-miterlimit="10.433" ns2:preamble="default_packages.tex" ns2:text="$\\text{delete readjust}$\n" xml:space="preserve"><g transform="matrix(1.5,0,0,-1.5,-165.59,1212.8)" fill-rule="evenodd" stroke-miterlimit="10.433" ns2:preamble="default_packages.tex" ns2:text="$delete readjust$\n" xml:space="preserve"><flowRoot fill="#000000" font-family="Verdana" font-size="40px" letter-spacing="0px" stroke="none" word-spacing="0px" style="line-height:1.25" xml:space="preserve"><flowRegion><rect x="78.929" y="457.16" width="60" height="76.429"/></flowRegion><flowPara/></flowRoot><path d="m229.03 571.3c-8.5035 4.264-13.094 4.0317-16.508 1.3103-5.5131-4.4504-9.0801-6.2079-8.3541-12.898 1.0555-11.025 9.5128-10.277 15.908-9.9499 8.6674 0.49439 17.951 5.7852 18.107 11.629-0.0375 6.0391-4.7571 7.4269-9.1532 9.9089z" fill="none" stroke="#000000" stroke-miterlimit="10.433" stroke-opacity=".36232" stroke-width=".15638"/><g transform="matrix(.20006 0 0 .20006 165.85 418.79)" fill-rule="evenodd" stroke="#000000" stroke-miterlimit="10.433" stroke-width="8.9882" ns2:preamble="default_packages.tex" ns2:text="$f bias variance All functions Learnable functions$\n" xml:space="preserve"><g transform="matrix(.89029 0 0 1 23.721 0)" fill="#0069a0" fill-rule="evenodd" stroke="none" style="stroke-miterlimit:10.433;stroke-opacity:.17455;stroke-width:.58704;stroke:#000000"><path d="m277.78 742.68c-12.515-0.17456-24.962-2.342-36.819-5.8165-6.4891-2.082-13.001-4.4805-18.565-8.1416-3.0443-1.9641-4.5547-5.2143-4.7261-8.4633-1.0553-5.0447-2.5717-10.48-0.21069-15.434 2.6982-6.042 8.2923-10.631 13.891-14.647 11.021-6.5647 24.789-8.3486 37.845-8.0173 6.9411 0.37567 14.223 0.56557 20.581 3.3178 8.3749 3.9944 15.04 10.233 21.086 16.602 4.3836 4.9772 8.7616 10.379 10.181 16.667 0.20575 3.3401 0.51775 6.9398-1.6316 9.8946-4.4371 6.9567-13.334 10.406-21.751 12.284-6.4846 1.5275-13.202 1.7779-19.881 1.7547z" fill-opacity=".077295" style="stroke-miterlimit:10.433;stroke-opacity:.17455;stroke-width:.58704;stroke:#000000"/></g><path d="m263.13 760.8h0.94383c0.2195 0 0.32924 0 0.32924 0.2195 0 0.12071-0.10974 0.12071-0.29631 0.12071h-0.9109l0.23046 1.2402c0.0439 0.23047 0.19755 0.9987 0.26339 1.1304 0.0988 0.20852 0.28535 0.37314 0.51583 0.37314 0.0439 0 0.32924 0 0.53776-0.19755-0.48289-0.0439-0.59264-0.42802-0.59264-0.58166 0-0.25242 0.19755-0.38412 0.40607-0.38412 0.28534 0 0.6036 0.24145 0.6036 0.64752 0 0.50483-0.50483 0.75726-0.95479 0.75726-0.37315 0-1.0646-0.19755-1.3938-1.2731-0.0659-0.23047-0.0988-0.34022-0.36216-1.7121h-0.74628c-0.20853 0-0.32925 0-0.32925-0.20851 0-0.1317 0.0988-0.1317 0.29632-0.1317h0.72434l-0.81214-4.3131c-0.19755-1.0536-0.38411-2.0413-0.95481-2.0413-0.0438 0-0.31826 0-0.52678 0.19754 0.50483 0.0329 0.60361 0.41704 0.60361 0.58167 0 0.25242-0.19754 0.38412-0.40607 0.38412-0.28534 0-0.60361-0.24145-0.60361-0.6585 0-0.48289 0.48289-0.74628 0.93285-0.74628 0.60362 0 1.0426 0.63654 1.2292 1.0536 0.35119 0.6914 0.60362 2.0084 0.61458 2.0852z" fill="#800000" fill-opacity=".83092" stroke-width="0"/><g fill-rule="evenodd"><g id="content" transform="matrix(1.5,0,0,-1.5,-144.13,1108.8)" fill="#700000" fill-opacity=".5942" stroke="#000000" stroke-miterlimit="10.433" stroke-width="0" ns2:preamble="default_packages.tex" ns2:text="$\\bar{h}$\n" xml:space="preserve"><path d="m253.62 260.91v-0.024l-6e-3 -6e-3v-6e-3h-6e-3v-6e-3l-6e-3 -6e-3h-6e-3v-6e-3h-6e-3v-6e-3h-0.018l-6e-3 -6e-3h-0.024c-0.14658 0-0.60544 0.051-0.77113 0.0637-0.051 6e-3 -0.12109 0.0127-0.12109 0.12746 0 0.0765 0.0573 0.0765 0.15295 0.0765 0.3059 0 0.31865 0.0446 0.31865 0.10834l-0.0191 0.12745-0.92408 3.6453c-0.0255 0.0892-0.0255 0.10197-0.0255 0.1402 0 0.14021 0.12746 0.17207 0.18482 0.17207 0.10197 0 0.20393-0.0765 0.2358-0.15933l0.12108-0.48434 0.14021-0.56719c0.0383-0.14021 0.0765-0.28041 0.10834-0.42699 0.0127-0.0382 0.0637-0.24854 0.0701-0.28678 0.0191-0.0573 0.21668-0.40787 0.43336-0.57994 0.13383-0.10197 0.3314-0.22306 0.60543-0.22306 0.27404 0 0.34414 0.21669 0.34414 0.44611 0 0.33777-0.24217 1.0324-0.39512 1.4148-0.051 0.14658-0.0829 0.22305-0.0829 0.35051 0 0.29953 0.22305 0.51621 0.52258 0.51621 0.59906 0 0.83486-0.92408 0.83486-0.97506 0-0.0637-0.0573-0.0637-0.0765-0.0637-0.0637 0-0.0637 0.0255-0.0956 0.11471-0.0956 0.33777-0.29954 0.79024-0.65004 0.79024-0.10834 0-0.15296-0.0637-0.15296-0.2103 0-0.15933 0.0573-0.31227 0.11472-0.45248 0.10197-0.26767 0.38874-1.026 0.38874-1.3893 0-0.41424-0.25491-0.6819-0.73288-0.6819-0.4015 0-0.70741 0.19756-0.93683 0.49072z"/></g><circle transform="scale(1,-1)" cx="236.56" cy="-719.88" r=".90827" fill="#700000" fill-opacity=".5942" stroke="none"/><circle transform="scale(1,-1)" cx="258.77" cy="-760.54" r=".90827" fill="#800000" fill-opacity=".83092" stroke="none"/><g transform="matrix(1.5,0,0,1.5,-134.53,-279.92)" stroke="#000000" stroke-miterlimit="10.433" ns2:preamble="default_packages.tex" ns2:text="$bias variance$\n" xml:space="preserve"><g transform="matrix(.57533 0 0 .57533 172.77 190.41)" fill-opacity=".66667" fill-rule="evenodd" stroke="#000000" stroke-miterlimit="10.433" stroke-width="0" ns2:preamble="default_packages.tex" ns2:text="All functions Hypothesis set Learnable function\n" xml:space="preserve"><path d="m210.59 797.58v9e-3l-9e-3 9e-3v9e-3l-9e-3 9e-3v0.019l-9e-3 9e-3v9e-3l-9e-3 9e-3v9e-3l-9e-3 9e-3v9e-3l-0.018 0.018v9e-3h-9e-3v9e-3h-9e-3l-9e-3 9e-3h-9e-3v9e-3h-9e-3l-9e-3 9e-3h-0.036l-0.0189 9e-3h-0.036c-0.15208 0-0.18059-0.057-0.22811-0.19009l-1.9579-5.6456c-0.17108-0.48471-0.55126-0.62729-1.0645-0.63679v-0.28513c0.2186 9e-3 0.62729 0.0286 0.96946 0.0286 0.29463 0 0.78887-0.0189 1.093-0.0286v0.28513c-0.47522 0-0.71284 0.23762-0.71284 0.48472 0 0.0285 9e-3 0.12356 0.0189 0.14257l0.43721 1.2356 0.10454 0.29463 1.055 3.0699 1.074-3.0699h-2.129l-0.10454-0.29463h2.3381l0.50374-1.4447c9e-3 -0.0381 0.0285-0.095 0.0285-0.13306 0-0.28513-0.53224-0.28513-0.78887-0.28513v-0.28513c0.34217 0.0286 1.0075 0.0286 1.3686 0.0286 0.39919 0 0.83639-9e-3 1.2356-0.0286v0.28513h-0.17053c-0.57027 0-0.69383 0.0666-0.79838 0.38017z"/><path d="m215.6 797.56-1.3686-0.10455v-0.29463c0.6653 0 0.74135-0.0666 0.74135-0.52274v-4.9138c0-0.4277-0.10456-0.4277-0.74135-0.4277v-0.28514c0.31365 9e-3 0.81738 0.0286 1.055 0.0286s0.70332-0.019 1.055-0.0286v0.28514c-0.6368 0-0.74134 0-0.74134 0.4277z"/><path d="m218.23 797.56-1.3686-0.10455v-0.29463c0.66531 0 0.74134-0.0666 0.74134-0.52274v-4.9138c0-0.4277-0.10454-0.4277-0.74134-0.4277v-0.28514c0.31365 9e-3 0.81738 0.0286 1.055 0.0286 0.23763 0 0.70334-0.019 1.0455-0.0286v0.28514c-0.62729 0-0.73183 0-0.73183 0.4277z"/><path d="m223.99 795.08v1.093c0 0.82689 0.45622 1.2831 0.87441 1.2831 0.0285 0 0.17108 0 0.31365-0.0666-0.11405-0.0381-0.28514-0.16158-0.28514-0.3992 0-0.20909 0.15209-0.39918 0.4087-0.39918 0.27563 0 0.41819 0.19009 0.41819 0.40869 0 0.35167-0.35166 0.66532-0.8554 0.66532-0.6653 0-1.4732-0.50375-1.4732-1.5017v-1.0835h-0.74134v-0.29465h0.74134v-3.0604c0-0.4277-0.10455-0.4277-0.73185-0.4277v-0.28513c0.36118 9e-3 0.80789 0.0286 1.074 0.0286 0.38018 0 0.82689 0 1.2071-0.0286v0.28513h-0.1996c-0.70332 0-0.72234 0.10454-0.72234 0.44671v3.0414h1.0835v0.29465z"/><path d="m228.93 791.76v-0.84589l1.3686 0.10454v0.28514c-0.66531 0-0.74134 0.0665-0.74134 0.53224v3.3551l-1.3972-0.10454v-0.29464c0.66532 0 0.74135-0.0666 0.74135-0.53225v-1.6823c0-0.81738-0.45621-1.4637-1.15-1.4637-0.78887 0-0.82689 0.44671-0.82689 0.94094v3.1365l-1.3972-0.10454v-0.29464c0.74136 0 0.74136-0.0285 0.74136-0.87441v-1.4162c0-0.73183 0-1.5872 1.4352-1.5872 0.53226 0 0.95044 0.25662 1.2261 0.84589z"/><path d="m231.53 794.26v-2.5282c0-0.4277-0.10455-0.4277-0.73184-0.4277v-0.28514c0.33265 9e-3 0.80786 0.0286 1.0645 0.0286 0.24711 0 0.74134-0.019 1.0645-0.0286v0.28514c-0.6368 0-0.74135 0-0.74135 0.4277v1.7393c0 0.97895 0.67482 1.5112 1.2831 1.5112 0.59878 0 0.70333-0.51325 0.70333-1.0455v-2.205c0-0.4277-0.10455-0.4277-0.74135-0.4277v-0.28514c0.33266 9e-3 0.81739 0.0286 1.074 0.0286 0.23761 0 0.73185-0.019 1.055-0.0286v0.28514c-0.49425 0-0.73185 0-0.74136 0.28513v1.8058c0 0.80788 0 1.1025-0.28513 1.4447-0.13305 0.16157-0.44671 0.35166-0.99797 0.35166-0.69382 0-1.1405-0.40869-1.4066-0.99795v0.99795l-1.3306-0.10454v-0.29464c0.6558 0 0.73184-0.0666 0.73184-0.53225z"/><path d="m236.86 793.07v0.2091l9e-3 0.0665v0.0666l9e-3 0.0666 9e-3 0.057v0.057l0.027 0.171 0.0189 0.057 0.0189 0.10456 0.0285 0.095 0.0381 0.095 0.0285 0.0855 0.0381 0.0855 0.0381 0.076 0.0475 0.0666 0.0475 0.0665 0.0381 0.0666 0.0475 0.057 0.0475 0.0475 0.057 0.0475 0.0475 0.0475 0.057 0.0381 0.0475 0.0381 0.057 0.0285 0.0475 0.0285 0.057 0.0285 0.057 0.0189 0.0475 0.019 0.057 9e-3 0.057 0.0189 0.0475 9e-3h0.0475l0.0475 9e-3h0.0475c0.0855 0 0.68432-9e-3 1.017-0.35167-0.38969-0.0285-0.44671-0.31364-0.44671-0.4372 0-0.24711 0.17108-0.42769 0.4372-0.42769 0.24711 0 0.43721 0.15207 0.43721 0.4372 0 0.64629-0.72235 1.017-1.4542 1.017-1.1786 0-2.053-1.0265-2.053-2.1955 0-1.207 0.94093-2.1385 2.0339-2.1385 1.2736 0 1.5777 1.131 1.5777 1.2261 0 0.095-0.095 0.095-0.12354 0.095-0.0855 0-0.10456-0.0381-0.12357-0.095-0.27562-0.88392-0.89342-0.99797-1.2356-0.99797-0.50373 0-1.3401 0.4087-1.3401 1.9294z"/><path d="m241.59 794.79h1.3591v0.29464h-1.3591v1.7298h-0.23762c-9e-3 -0.76986-0.28512-1.7773-1.2166-1.8154v-0.20909h0.80788v-2.6042c0-1.1595 0.87442-1.2736 1.2166-1.2736 0.67482 0 0.94094 0.66532 0.94094 1.2736v0.53225h-0.23761v-0.51324c0-0.70332-0.28513-1.0645-0.6368-1.0645-0.63679 0-0.63679 0.8649-0.63679 1.0265z"/><path d="m245.32 795.19-1.3306-0.10454v-0.29464c0.61779 0 0.70332-0.057 0.70332-0.52274v-2.5377c0-0.4277-0.10455-0.4277-0.74135-0.4277v-0.28514c0.30415 9e-3 0.81739 0.0286 1.0455 0.0286 0.33265 0 0.6653-0.019 0.98845-0.0286v0.28514c-0.62729 0-0.6653 0.0475-0.6653 0.4182z"/><path d="m245.36 796.82v0.0571l-9e-3 0.0285v0.0286l-9e-3 0.0189-0.018 0.057-0.018 0.0378-9e-3 0.0285-9e-3 0.0189-0.0189 0.019-9e-3 0.0189-0.0189 0.0189-9e-3 0.019-0.0189 0.0189-0.0189 9e-3 -0.0189 0.019-0.0189 9e-3 -0.0189 0.0189-0.0378 0.018-0.0285 9e-3 -0.0378 0.018-0.0285 9e-3 -0.0189 9e-3h-0.0285l-0.0189 9e-3h-0.076c-0.29463 0-0.50372-0.25664-0.50372-0.50375s0.20909-0.49422 0.50372-0.49422c0.26612 0 0.50375 0.19959 0.50375 0.49422z"/><path d="m250.74 793.03v0.11405l-9e-3 0.11405-0.0189 0.10455-0.0189 0.11405-0.0189 0.10455-0.0285 0.10455-0.0381 0.10456-0.0381 0.095-0.0381 0.0951-0.0475 0.095-0.0475 0.0951-0.057 0.0855-0.057 0.095-0.0666 0.076-0.0666 0.0855-0.0666 0.076-0.076 0.076-0.152 0.1332-0.0855 0.057-0.0855 0.0666-0.171 0.095-0.0951 0.0475-0.095 0.0381-0.0951 0.0381-0.10455 0.0286-0.0951 0.0285-0.10454 0.0189-0.10455 9e-3 -0.10456 9e-3 -0.11404 9e-3 -9e-3 -0.20909c0.4182 0 0.82689-0.2091 1.074-0.6178 0.2471-0.40869 0.2471-0.95044 0.2471-1.3116 0-0.34215 0-0.84589-0.2091-1.2641-0.20909-0.42771-0.62729-0.70333-1.1025-0.70333-0.39918 0-0.81738 0.19959-1.074 0.63679-0.2376 0.41819-0.2376 0.98847-0.2376 1.3306 0 0.37067 0 0.87441 0.22811 1.2926 0.25661 0.4372 0.69382 0.6368 1.074 0.6368l9e-3 0.20909c-1.1786 0-2.1005-1.036-2.1005-2.2145 0-1.2166 0.98846-2.1195 2.091-2.1195 1.15 0 2.11 0.92193 2.11 2.1195z"/><path d="m252.05 794.26v-2.5282c0-0.4277-0.10454-0.4277-0.74135-0.4277v-0.28514c0.33266 9e-3 0.81738 0.0286 1.074 0.0286 0.2471 0 0.74132-0.019 1.055-0.0286v0.28514c-0.62728 0-0.73183 0-0.73183 0.4277v1.7393c0 0.97895 0.67481 1.5112 1.2736 1.5112 0.59877 0 0.70333-0.51325 0.70333-1.0455v-2.205c0-0.4277-0.10456-0.4277-0.74135-0.4277v-0.28514c0.33266 9e-3 0.81738 0.0286 1.074 0.0286 0.24713 0 0.74136-0.019 1.0645-0.0286v0.28514c-0.49424 0-0.73184 0-0.74135 0.28513v1.8058c0 0.80788 0 1.1025-0.29463 1.4447-0.13306 0.16157-0.44671 0.35166-0.99796 0.35166-0.68432 0-1.131-0.40869-1.3972-0.99795v0.99795l-1.3401-0.10454v-0.29464c0.66532 0 0.74135-0.0666 0.74135-0.53225z"/><path d="m258.24 792.84h0.0189l0.0285-9e-3h0.0285l0.057-0.018 0.1905-0.045 0.0381-0.0189 0.0475-0.0189 0.0381-9e-3 0.0381-0.0286 0.0475-0.019 0.0381-0.0189 0.0475-0.0286 0.0381-0.0286 0.0762-0.057 0.0381-0.0286 0.0285-0.0381 0.0381-0.0381 0.0285-0.0381 0.0285-0.0475 9e-3 -0.019 9e-3 -0.0285 9e-3 -0.019 9e-3 -0.0285 9e-3 -0.019 9e-3 -0.0286 9e-3 -0.0285 9e-3 -0.0189v-0.0285l9e-3 -0.0285v-0.0285l9e-3 -0.0381v-0.0571c0-0.48472-0.33265-0.8649-1.074-0.8649-0.79838 0-1.1405 0.54174-1.3116 1.3496-0.0285 0.11406-0.0381 0.15208-0.13306 0.15208-0.12355 0-0.12355-0.0666-0.12355-0.22811v-1.2546c0-0.15207 0-0.2186 0.10455-0.2186 0.0475 0 0.057 9e-3 0.2376 0.18059 0.0189 0.0189 0.0189 0.0381 0.19009 0.2186 0.40869-0.38968 0.8364-0.39919 1.036-0.39919 1.093 0 1.5302 0.6273 1.5302 1.3116 0 0.49424-0.28513 0.77937-0.39918 0.89342-0.31365 0.30415-0.68432 0.38018-1.0835 0.45621-0.53225 0.10455-1.169 0.21861-1.169 0.76986 0 0.33265 0.2471 0.72234 1.0645 0.72234 1.0455 0 1.093-0.8554 1.112-1.15 9e-3 -0.0855 0.095-0.0855 0.11405-0.0855 0.12356 0 0.12356 0.057 0.12356 0.22811v0.95994c0 0.16159 0 0.22811-0.10454 0.22811-0.0475 0-0.0666 0-0.19009-0.11405-0.0285-0.0381-0.12356-0.12356-0.16158-0.15207-0.36116 0.26612-0.75085 0.26612-0.89343 0.26612-1.15 0-1.5112-0.6368-1.5112-1.169 0-0.32316 0.15207-0.58927 0.39918-0.79838 0.31365-0.24711 0.57026-0.30414 1.2546-0.4372z"/><path d="m148.34 810.8v0.1496l9e-3 0.0264v0.0177l9e-3 0.0177 9e-3 0.0176v0.0177l9e-3 0.0177 0.0534 0.0534 0.0177 0.0176 0.0264 9e-3h9e-3l9e-3 9e-3h9e-3l0.0177 9e-3h9e-3l0.0177 9e-3h9e-3l0.0177 9e-3h0.0354l0.0177 9e-3h0.0531l0.0177 9e-3h0.0705l0.0177 9e-3h0.45828v0.27345c-0.29991-0.0264-0.95265-0.0264-1.2878-0.0264-0.3352 0-0.99675 0-1.3055 0.0264v-0.27345h0.2117c0.6792 0 0.69684-0.097 0.69684-0.40576v-2.0552h-2.6286v2.0552c0 0.30873 0.0177 0.40576 0.69685 0.40576h0.20288v0.27345c-0.29991-0.0264-0.95265-0.0264-1.2878-0.0264-0.33518 0-0.99674 0-1.3055 0.0264v-0.27345h0.2117c0.6792 0 0.69684-0.097 0.69684-0.40576v-4.6221c0-0.31755-0.0176-0.41458-0.69684-0.41458h-0.2117v-0.26462c0.30873 0.0264 0.96147 0.0264 1.2966 0.0264 0.3352 0 0.99676 0 1.2967-0.0264v0.26462h-0.20288c-0.67921 0-0.69685 0.097-0.69685 0.41458v2.2934h2.6286v-2.2934c0-0.31755-0.0177-0.41458-0.69684-0.41458h-0.2117v-0.26462c0.30873 0.0264 0.96146 0.0264 1.2967 0.0264 0.33518 0 0.99674 0 1.2966-0.0264v0.26462h-0.20288c-0.6792 0-0.69684 0.097-0.69684 0.41458z"/><path d="m153.18 808.43 0.0177 0.0264 0.018 0.0528 0.0177 0.0177 9e-3 0.0264 9e-3 0.0177 0.0177 0.0264 9e-3 0.0177 0.0792 0.1059 0.0881 0.0881 0.0353 0.0176 0.0264 0.0264 0.0264 0.0177 0.0353 0.0177 0.0264 0.0177 0.0353 0.0176 0.0528 0.018 0.0353 9e-3 0.0792 0.027h0.0264l0.0264 9e-3h0.0441l0.0177 9e-3h0.0885v0.27344c-0.20288-0.0177-0.45869-0.0264-0.66156-0.0264-0.15878 0-0.56454 0.0177-0.75859 0.0264v-0.27344c0.27345-9e-3 0.40575-0.15878 0.40575-0.3793 0-0.0882 0-0.10585-0.0529-0.2117l-0.88209-2.1523-0.97911 2.3552c-0.0353 0.0882-0.0529 0.12348-0.0529 0.15877 0 0.22935 0.32636 0.22935 0.49396 0.22935v0.27344c-0.22934-9e-3 -0.81152-0.0264-0.96146-0.0264-0.23817 0-0.58218 9e-3 -0.84681 0.0264v-0.27344c0.41458 0 0.58217 0 0.70567-0.30873l1.3231-3.1931c-0.0441-0.11467-0.1676-0.40575-0.22052-0.52042-0.19406-0.48514-0.44104-1.085-1.0056-1.085-0.0441 0-0.24698 0-0.41458 0.15877 0.27345 0.0353 0.34401 0.22053 0.34401 0.36165 0 0.22935-0.16759 0.37048-0.37047 0.37048-0.1676 0-0.36166-0.11467-0.36166-0.37929 0-0.38811 0.36166-0.70567 0.8027-0.70567 0.55571 0 0.91736 0.50279 1.1291 0.99676z"/><path d="m155.69 808.79v0.58218l-1.2702-0.097v-0.27345c0.62628 0 0.68803-0.0529 0.68803-0.44104v-4.1017c0-0.38812-0.097-0.38812-0.68803-0.38812v-0.27344c0.29991 9e-3 0.75859 0.0264 0.98793 0.0264 0.23816 0 0.68803-0.0177 0.99676-0.0264v0.27344c-0.591 0-0.68803 0-0.68803 0.38812v1.5525l0.12349 0.11468c-0.12349 0.18523-0.12349 0.19405-0.12349 0.37047v1.9494c0.2558 0.44986 0.68803 0.70566 1.1379 0.70566 0.63509 0 1.1732-0.77623 1.1732-1.7642 0-1.0585-0.61746-1.7994-1.2614-1.7994-0.35284 0-0.68803 0.17642-0.92619 0.53808l-0.12349-0.11468c0.0441-0.14113 0.41458-0.60864 1.085-0.60864 1.0409 0 1.9582 0.85562 1.9582 1.9847 0 1.1114-0.85562 1.9847-1.8347 1.9847-0.68802 0-1.0585-0.38812-1.2349-0.58218z"/><path d="m163.44 807.37-9e-3 0.10585-9e-3 0.10584-9e-3 0.097-0.0176 0.10585-0.0177 0.097-0.0264 0.097-0.0353 0.097-0.0706 0.1764-0.0441 0.0882-0.0529 0.0882-0.0441 0.0794-0.0618 0.0882-0.053 0.0705-0.0617 0.0794-0.0618 0.0705-0.0705 0.0705-0.0705 0.0617-0.0705 0.0618-0.0794 0.053-0.0794 0.0617-0.0794 0.0441-0.0882 0.0441-0.0794 0.0441-0.0882 0.0353-0.097 0.0353-0.0882 0.0264-0.097 0.0264-0.0882 0.0177-0.097 9e-3 -0.10585 9e-3 -0.097 9e-3 -9e-3 -0.19406c0.38812 0 0.76741-0.19406 0.99675-0.57335s0.22934-0.88208 0.22934-1.2173c0-0.31755 0-0.78505-0.19406-1.1732-0.19406-0.39694-0.58217-0.65274-1.0232-0.65274-0.37929 0-0.7674 0.18523-1.0056 0.59099-0.2117 0.38812-0.2117 0.91736-0.2117 1.2349 0 0.34401 0 0.81151 0.2117 1.1996 0.22934 0.40576 0.64391 0.59099 0.99675 0.59099l9e-3 0.19406c-1.1026 0-1.9494-0.96147-1.9494-2.0552 0-1.1291 0.91736-1.967 1.9406-1.967 1.0673 0 1.9582 0.85561 1.9582 1.967z"/><path d="m165.21 809h1.2526v0.27345h-1.2526v1.6054h-0.22052c-9e-3 -0.71448-0.27344-1.6495-1.1379-1.6848v-0.19406h0.74976v-2.4169c0-1.0761 0.81152-1.182 1.1291-1.182 0.62629 0 0.87326 0.61746 0.87326 1.182v0.49397h-0.22052v-0.47632c0-0.65275-0.26462-0.98793-0.59098-0.98793-0.58218 0-0.58218 0.80269-0.58218 0.95264z"/><path d="m168.07 806.16v-0.1324l-9e-3 -0.0264v-0.0264l-9e-3 -0.0177-9e-3 -0.0264v-0.0177l-9e-3 -0.0177-0.0177-0.0177-9e-3 -0.0177-0.0267-0.0267-0.0531-0.027-0.0176-9e-3 -0.0264-9e-3h-0.0264l-0.0264-9e-3h-0.0264l-0.0353-9e-3h-0.1238l-0.0177-9e-3h-0.2466v-0.26463c0.30873 9e-3 0.75859 0.0264 0.99675 0.0264 0.22934 0 0.68802-0.0177 0.98793-0.0264v0.26463c-0.59099 0-0.68802 0-0.68802 0.39693v1.6142c0 0.90854 0.62627 1.4025 1.1908 1.4025 0.54689 0 0.64392-0.47632 0.64392-0.97029v-2.0464c0-0.39693-0.097-0.39693-0.6792-0.39693v-0.26463c0.29991 9e-3 0.74977 0.0264 0.98793 0.0264 0.22934 0 0.68802-0.0177 0.98793-0.0264v0.26463c-0.45868 0-0.6792 0-0.68802 0.26463v1.6759c0 0.74977 0 1.0232-0.27345 1.3408-0.12349 0.14996-0.41458 0.32638-0.91736 0.32638-0.74095 0-1.1291-0.52925-1.279-0.86444v3.0696l-1.2702-0.097v-0.27345c0.61746 0 0.68802-0.0618 0.68802-0.48514z"/><path d="m172.97 807.52 9e-3 0.18523c0.0529 1.3055 0.78505 1.526 1.085 1.526 0.90855 0 0.99676-1.182 0.99676-1.526h-2.0817l-9e-3 -0.18523h2.4522c0.19406 0 0.22052 0 0.22052 0.18523 0 0.86444-0.47632 1.7201-1.5789 1.7201-1.0144 0-1.8259-0.90854-1.8259-2.0023 0-1.1732 0.92619-2.02 1.9318-2.02 1.0761 0 1.4731 0.97029 1.4731 1.1379 0 0.0882-0.0705 0.10585-0.11467 0.10585-0.0794 0-0.097-0.0529-0.11467-0.12349-0.30872-0.90854-1.1026-0.90854-1.1908-0.90854-0.44105 0-0.79388 0.26462-0.98794 0.59099-0.26462 0.42339-0.26462 0.99674-0.26462 1.3143z"/><path d="m177.72 807.19h0.0177l0.0264-9e-3h0.0264l0.0528-0.018 0.1765-0.045 0.0353-0.0177 0.0441-0.0177 0.0353-9e-3 0.0353-0.0264 0.0441-0.0177 0.0353-0.0177 0.0441-0.0264 0.1412-0.1056 0.0264-0.0353 0.0353-0.0353 0.0264-0.0353 0.0264-0.0441 9e-3 -0.0177 9e-3 -0.0264 9e-3 -0.0177 9e-3 -0.0264 9e-3 -0.0177 0.018-0.0528 9e-3 -0.0177v-0.0264l9e-3 -0.0264v-0.0264l9e-3 -0.0353v-0.0528c0-0.44985-0.30873-0.80269-0.99676-0.80269-0.74094 0-1.0585 0.50278-1.2173 1.2526-0.0353 0.10585-0.0441 0.14114-0.1235 0.14114-0.11467 0-0.11467-0.0618-0.11467-0.2117v-1.1644c0-0.14113 0-0.20288 0.097-0.20288 0.0441 0 0.053 9e-3 0.22052 0.16759 9e-3 0.0177 9e-3 0.0353 0.16759 0.20288 0.38812-0.36165 0.78506-0.37047 0.97029-0.37047 1.0144 0 1.4202 0.58217 1.4202 1.2173 0 0.45869-0.26462 0.72331-0.37047 0.82916-0.29109 0.28226-0.6351 0.35283-1.0056 0.42339-0.49396 0.097-1.085 0.20288-1.085 0.71449 0 0.30873 0.22934 0.67038 0.98793 0.67038 0.97028 0 1.0144-0.79387 1.032-1.0673 9e-3 -0.0794 0.0882-0.0794 0.10585-0.0794 0.11468 0 0.11468 0.053 0.11468 0.2117v0.89089c0 0.14996 0 0.2117-0.097 0.2117-0.0441 0-0.0618 0-0.17643-0.10585-0.0264-0.0353-0.11466-0.11466-0.14995-0.14113-0.33519 0.24698-0.69684 0.24698-0.82915 0.24698-1.0761 0-1.4025-0.59099-1.4025-1.085 0-0.29991 0.14114-0.54689 0.37047-0.74095 0.28227-0.22934 0.52925-0.28227 1.1644-0.40575z"/><path d="m180.92 809.37-1.2261-0.097v-0.27345c0.56453 0 0.64392-0.0529 0.64392-0.48514v-2.3552c0-0.39694-0.097-0.39694-0.68803-0.39694v-0.26462c0.28227 9e-3 0.75859 0.0264 0.97029 0.0264 0.30873 0 0.61746-0.0177 0.91736-0.0264v0.26462c-0.58216 0-0.61745 0.0441-0.61745 0.38812z"/><path d="m180.95 810.89v0.0528l-9e-3 0.0264v0.0264l-9e-3 0.0177v0.0264l-9e-3 0.0264-0.018 0.0354-0.0177 0.0264-0.018 0.0354-0.0176 0.0177-9e-3 0.0177-0.0177 0.0177-0.0177 0.0176-0.0177 9e-3 -0.0177 0.0177-0.0176 9e-3 -0.0177 0.0177-0.0531 0.027-0.0264 9e-3 -0.0354 0.018-0.0264 9e-3h-0.0177l-0.0264 9e-3h-0.0705c-0.27344 0-0.4675-0.23816-0.4675-0.4675s0.19406-0.45868 0.4675-0.45868c0.24699 0 0.46751 0.18524 0.46751 0.45868z"/><path d="m183.63 807.19h0.0176l0.0264-9e-3h0.0177l0.0353-9e-3 0.0264-9e-3 0.0353-9e-3 0.0264-9e-3 0.0706-0.018 0.0441-9e-3 0.0706-0.0354 0.0441-9e-3 0.0353-0.0264 0.0353-0.0177 0.0441-0.0177 0.0706-0.0528 0.0441-0.0264 0.0264-0.0264 0.0353-0.0264 0.0353-0.0353 0.0528-0.0706 0.0264-0.0441 0.0177-0.0177 9e-3 -0.0264 9e-3 -0.0177 9e-3 -0.0264 9e-3 -0.0177 0.018-0.0528v-0.0177l0.018-0.0528v-0.1145c0-0.44985-0.29991-0.80269-0.98793-0.80269-0.74095 0-1.0585 0.50278-1.2261 1.2526-0.0264 0.10585-0.0353 0.14114-0.12349 0.14114-0.11467 0-0.11467-0.0618-0.11467-0.2117v-1.1644c0-0.14113 0-0.20288 0.097-0.20288 0.0441 0 0.0529 9e-3 0.22051 0.16759 0.0177 0.0177 0.0177 0.0353 0.17643 0.20288 0.3881-0.36165 0.78504-0.37047 0.97028-0.37047 1.0144 0 1.4113 0.58217 1.4113 1.2173 0 0.45869-0.25581 0.72331-0.37047 0.82916-0.28227 0.28226-0.62628 0.35283-0.99675 0.42339-0.49397 0.097-1.085 0.20288-1.085 0.71449 0 0.30873 0.22934 0.67038 0.98793 0.67038 0.97029 0 1.0144-0.79387 1.0232-1.0673 0.0177-0.0794 0.097-0.0794 0.11467-0.0794 0.10585 0 0.10585 0.053 0.10585 0.2117v0.89089c0 0.14996 0 0.2117-0.097 0.2117-0.0353 0-0.053 0-0.17641-0.10585-0.0264-0.0353-0.10585-0.11466-0.14114-0.14113-0.33519 0.24698-0.69684 0.24698-0.82915 0.24698-1.0761 0-1.4113-0.59099-1.4113-1.085 0-0.29991 0.14113-0.54689 0.3793-0.74095 0.28226-0.22934 0.52924-0.28227 1.1643-0.40575z"/><path d="m190.04 807.19h0.0177l0.0176-9e-3h0.0264l0.0264-9e-3 0.0353-9e-3 0.0264-9e-3 0.1412-0.036 0.0441-0.0177 0.0353-0.0177 0.0353-9e-3 0.0441-0.0264 0.0353-0.0177 0.0441-0.0177 0.1765-0.132 0.0353-0.0353 0.0528-0.0706 0.0264-0.0441 9e-3 -0.0177 0.0177-0.0264 9e-3 -0.0177 9e-3 -0.0264 9e-3 -0.0177 9e-3 -0.0264v-0.0264l9e-3 -0.0177 9e-3 -0.0264v-0.0264l9e-3 -0.0264v-0.0881c0-0.44985-0.30872-0.80269-0.98793-0.80269-0.74095 0-1.0585 0.50278-1.2261 1.2526-0.0264 0.10585-0.0353 0.14114-0.12349 0.14114-0.11467 0-0.11467-0.0618-0.11467-0.2117v-1.1644c0-0.14113 0-0.20288 0.097-0.20288 0.0441 0 0.0529 9e-3 0.22052 0.16759 0.0176 0.0177 0.0176 0.0353 0.17641 0.20288 0.38812-0.36165 0.78506-0.37047 0.97029-0.37047 1.0056 0 1.4113 0.58217 1.4113 1.2173 0 0.45869-0.26462 0.72331-0.37047 0.82916-0.29109 0.28226-0.63511 0.35283-1.0056 0.42339-0.48514 0.097-1.0761 0.20288-1.0761 0.71449 0 0.30873 0.22935 0.67038 0.98793 0.67038 0.96147 0 1.0056-0.79387 1.0232-1.0673 9e-3 -0.0794 0.0882-0.0794 0.10585-0.0794 0.11468 0 0.11468 0.053 0.11468 0.2117v0.89089c0 0.14996 0 0.2117-0.097 0.2117-0.0441 0-0.0617 0-0.17642-0.10585-0.0264-0.0353-0.11467-0.11466-0.14995-0.14113-0.33519 0.24698-0.68802 0.24698-0.82034 0.24698-1.0761 0-1.4113-0.59099-1.4113-1.085 0-0.29991 0.14113-0.54689 0.37929-0.74095 0.28227-0.22934 0.52925-0.28227 1.1644-0.40575z"/><path d="m192.65 807.52 9e-3 0.18523c0.053 1.3055 0.78505 1.526 1.085 1.526 0.90855 0 0.99675-1.182 0.99675-1.526h-2.0817l-9e-3 -0.18523h2.4522c0.19406 0 0.22052 0 0.22052 0.18523 0 0.86444-0.47632 1.7201-1.5789 1.7201-1.0144 0-1.8259-0.90854-1.8259-2.0023 0-1.1732 0.92619-2.02 1.9318-2.02 1.0761 0 1.4731 0.97029 1.4731 1.1379 0 0.0882-0.0705 0.10585-0.11467 0.10585-0.0794 0-0.097-0.0529-0.11467-0.12349-0.30873-0.90854-1.1026-0.90854-1.1908-0.90854-0.44104 0-0.79387 0.26462-0.98793 0.59099-0.26462 0.42339-0.26462 0.99674-0.26462 1.3143z"/><path d="m197.09 809h1.2614v0.27345h-1.2614v1.6054h-0.22053c-9e-3 -0.71448-0.27344-1.6495-1.1291-1.6848v-0.19406h0.74096v-2.4169c0-1.0761 0.82033-1.182 1.1379-1.182 0.62627 0 0.87326 0.61746 0.87326 1.182v0.49397h-0.22052v-0.47632c0-0.65275-0.26463-0.98793-0.591-0.98793-0.59099 0-0.59099 0.80269-0.59099 0.95264z"/></g></g></g></g><path d="m213.35 563.45 4.0707 7.0758" style="fill:none;marker-end:url(#Arrow1Mend);marker-start:url(#Arrow1Mstart);stroke-miterlimit:10.433;stroke-opacity:.92496;stroke-width:.078314;stroke:#626262"/></g></g></g>
 </g>
</svg>
