<svg width="141.42mm" height="109.94mm" version="1.1" viewBox="0 0 141.42 109.94" xmlns="http://www.w3.org/2000/svg" xmlns:ns0="http://www.iki.fi/pav/software/textext/">
 <defs>
  <marker id="c" overflow="visible" orient="auto">
   <path transform="scale(.4) rotate(180) translate(10)" d="m0 0 5-5-17.5 5 17.5 5-5-5z" fill-opacity=".37681" fill-rule="evenodd" stroke="#000" stroke-opacity=".37681" stroke-width="1pt"/>
  </marker>
  <marker id="g" overflow="visible" orient="auto">
   <path transform="scale(.4) rotate(180) translate(10)" d="m0 0 5-5-17.5 5 17.5 5-5-5z" fill-opacity=".37681" fill-rule="evenodd" stroke="#000" stroke-opacity=".37681" stroke-width="1pt"/>
  </marker>
  <marker id="d" overflow="visible" orient="auto">
   <path transform="scale(.4) rotate(180) translate(10)" d="m0 0 5-5-17.5 5 17.5 5-5-5z" fill="#000001" fill-opacity=".42512" fill-rule="evenodd" stroke="#000" stroke-opacity=".24155" stroke-width="1pt"/>
  </marker>
  <marker id="e" overflow="visible" orient="auto">
   <path transform="scale(.4) rotate(180) translate(10)" d="m0 0 5-5-17.5 5 17.5 5-5-5z" fill="#000001" fill-opacity=".42512" fill-rule="evenodd" stroke="#000" stroke-opacity=".24155" stroke-width="1pt"/>
  </marker>
  <marker id="Arrow1Mend" overflow="visible" orient="auto">
   <path transform="scale(.4) rotate(180) translate(10)" d="m0 0 5-5-17.5 5 17.5 5-5-5z" fill="#000001" fill-opacity=".42512" fill-rule="evenodd" stroke="#000" stroke-opacity=".24155" stroke-width="1pt"/>
  </marker>
  <marker id="Arrow1Mstart" overflow="visible" orient="auto">
   <path transform="matrix(.4 0 0 .4 4 0)" d="m0 0 5-5-17.5 5 17.5 5z" fill-opacity=".61836" fill-rule="evenodd" stroke="#000" stroke-opacity=".61836" stroke-width="1pt"/>
  </marker>
  <marker id="b" overflow="visible" orient="auto">
   <path transform="matrix(-.4 0 0 -.4 -4 0)" d="m0 0 5-5-17.5 5 17.5 5z" fill-opacity=".61836" fill-rule="evenodd" stroke="#000" stroke-opacity=".61836" stroke-width="1pt"/>
  </marker>
  <marker id="f" overflow="visible" orient="auto">
   <path transform="matrix(.4 0 0 .4 4 0)" d="m0 0 5-5-17.5 5 17.5 5z" fill-opacity=".61836" fill-rule="evenodd" stroke="#000" stroke-opacity=".61836" stroke-width="1pt"/>
  </marker>
  <marker id="a" overflow="visible" orient="auto">
   <path transform="matrix(-.4 0 0 -.4 -4 0)" d="m0 0 5-5-17.5 5 17.5 5z" fill-opacity=".61836" fill-rule="evenodd" stroke="#000" stroke-opacity=".61836" stroke-width="1pt"/>
  </marker>
 </defs>
 <g transform="translate(3.7658 -64.821)">
  <g transform="matrix(1.2506 0 0 -1.2506 -72.165 1072.2)" fill-rule="evenodd" stroke="#000" stroke-miterlimit="10.433" ns0:preamble="default_packages.tex" ns0:text="$x$\n$y$\n" xml:space="preserve"><g stroke-miterlimit="10.433"><path d="m157.89 775.44-6.0574 10.285-75.634-43.606 6.0096-10.409z" fill="#0074ff" fill-opacity=".13043" stroke="none"/><path d="m77.39 735.73c0.73432 0.36939 80.311 46.736 80.311 46.736" fill="none" stroke="#0074ff" stroke-width=".53174"/><circle transform="scale(1,-1)" cx="120.92" cy="-763.29" r=".56099" fill="#ff0001" fill-opacity=".42512" fill-rule="evenodd" opacity=".97" stroke="none" stroke-dasharray="0.31184934, 0.05197489" stroke-linecap="square" stroke-linejoin="bevel" stroke-opacity=".9372" stroke-width=".051975"/><circle transform="scale(1,-1)" cx="100.13" cy="-758.51" r=".56099" fill="#ff0001" fill-opacity=".42512" fill-rule="evenodd" opacity=".97" stroke="none" stroke-dasharray="0.31184934, 0.05197489" stroke-linecap="square" stroke-linejoin="bevel" stroke-opacity=".9372" stroke-width=".051975"/><g fill="none" stroke="#000"><path d="m69.613 717.63v87.044" marker-end="url(#c)" stroke-miterlimit="10.433" stroke-opacity=".37681" stroke-width=".36685"/><path d="m65.368 722.62h92.182" marker-end="url(#g)" stroke-miterlimit="10.433" stroke-opacity=".37681" stroke-width=".36685"/><path d="m66.568 757.1h85.26" stroke="#000" stroke-miterlimit="10.433" stroke-opacity=".33816" stroke-width=".42123"/></g><g id="content" transform="matrix(1.5 0 0 1.5 -311.17 -218.43)" fill-rule="evenodd" stroke-opacity="0" ns0:preamble="default_packages.tex" ns0:text="$x$\n$y$\n$\\langle y \\rangle$\n$\\langle x \\rangle$\n$\\text{Point of averages}$\n$\\text{Regression line}$\n$\\text{SD line}$\n$\\rho(x,y)\\sigma_y$\n$\\sigma_x$\n" xml:space="preserve"><path d="m312.42 625.66 4e-3 7e-3 3e-3 0.0105v0.0106l3e-3 0.014 4e-3 0.014 7e-3 0.014 3e-3 0.014 4e-3 0.0175 7e-3 0.014 7e-3 0.0176 7e-3 0.0175 0.014 0.0352 7e-3 0.0175 0.0212 0.0352 0.0106 0.0175 0.0105 0.014 0.0106 0.0176 0.014 0.014 0.0106 0.0175 0.014 0.014 0.0175 0.014 0.014 0.0106 0.0176 0.0105 0.014 0.0106 0.0105 3e-3 0.0106 7e-3 7e-3 3e-3 0.0106 4e-3 0.0106 3e-3h0.0106l7e-3 4e-3 0.0106 3e-3h0.0245l0.0106 3e-3h0.0106c0.0175 0 0.10198 0 0.17582-0.0457-0.0985-0.0175-0.16878-0.1055-0.16878-0.18989 0-0.0563 0.0386-0.12308 0.13362-0.12308 0.0774 0 0.18988 0.0633 0.18988 0.20396 0 0.18285-0.20746 0.23208-0.32703 0.23208-0.20394 0-0.32702-0.18637-0.36922-0.26725-0.0879 0.23209-0.27428 0.26725-0.37625 0.26725-0.36571 0-0.56615-0.45361-0.56615-0.53801 0-0.0352 0.0352-0.0352 0.0421-0.0352 0.0281 0 0.0387 7e-3 0.0457 0.0386 0.11955 0.36923 0.35164 0.45714 0.4712 0.45714 0.0668 0 0.18637-0.0317 0.18637-0.2356 0-0.10901-0.0598-0.34109-0.18637-0.82988-0.0563-0.21802-0.17934-0.36571-0.33406-0.36571-0.0211 0-0.10197 0-0.17582 0.0457 0.0879 0.0176 0.16527 0.0914 0.16527 0.18989 0 0.0949-0.0774 0.12307-0.13011 0.12307-0.10549 0-0.1934-0.0914-0.1934-0.20395 0-0.16176 0.17582-0.22857 0.33054-0.22857 0.23208 0 0.35868 0.24263 0.36922 0.26373 0.0387-0.13011 0.16528-0.26373 0.37627-0.26373 0.36219 0 0.56262 0.45011 0.56262 0.53801 0 0.0352-0.0317 0.0352-0.0421 0.0352-0.0317 0-0.0387-0.0176-0.0457-0.0386-0.11604-0.37626-0.35515-0.46066-0.46768-0.46066-0.13714 0-0.1934 0.11253-0.1934 0.23209 0 0.0774 0.0211 0.15472 0.0598 0.30593z"/><path d="m253.12 682.42v4e-3l4e-3 4e-3v0.011l3e-3 4e-3v7e-3l4e-3 3e-3v0.014l3e-3 4e-3v0.033c0 0.0675-0.0525 0.10125-0.10876 0.10125-0.0375 0-0.0975-0.0225-0.13127-0.0788-8e-3 -0.0187-0.0375-0.13502-0.0525-0.20252-0.0262-0.0975-0.0525-0.19502-0.075-0.29628l-0.16876-0.67131c-0.015-0.0562-0.17627-0.31878-0.42004-0.31878-0.19127 0-0.23252 0.16501-0.23252 0.30377 0 0.17252 0.0637 0.4013 0.19127 0.73132 0.06 0.15002 0.075 0.19128 0.075 0.26628 0 0.16876-0.12 0.30753-0.30752 0.30753-0.35629 0-0.49505-0.54005-0.49505-0.57381 0-0.0375 0.0375-0.0375 0.045-0.0375 0.0375 0 0.0412 8e-3 0.06 0.0675 0.10125 0.34878 0.25127 0.46129 0.37878 0.46129 0.03 0 0.0938 0 0.0938-0.12001 0-0.0938-0.0375-0.19126-0.0637-0.26252-0.15001-0.39379-0.21752-0.60756-0.21752-0.78008 0-0.33377 0.23628-0.44253 0.45755-0.44253 0.14626 0 0.27002 0.06 0.37503 0.16501-0.0488-0.19127-0.0938-0.37503-0.24002-0.57381-0.0975-0.1275-0.24002-0.23252-0.41254-0.23252-0.0525 0-0.22127 0.0113-0.28503 0.15377 0.06 0 0.10877 0 0.16126 0.045 0.0375 0.0338 0.075 0.0825 0.075 0.15377 0 0.11626-0.10126 0.13126-0.13875 0.13126-0.0863 0-0.21003-0.06-0.21003-0.24377s0.16502-0.32253 0.39754-0.32253c0.38628 0 0.76882 0.33753 0.87383 0.75757z"/><path d="m248.11 651.91 3e-3 3e-3v6e-3h3e-3v6e-3l3e-3 3e-3v6e-3h3e-3v9e-3h3e-3v0.021c0 0.0355-0.0291 0.0646-0.0646 0.0646-0.0291 0-0.0517-0.0161-0.0744-0.0744l-0.56242-1.4739c-6e-3 -0.0194-0.0161-0.0388-0.0161-0.0582 0-0.01 0-0.0161 0.0161-0.0549l0.56242-1.4739c0.0129-0.0355 0.0292-0.0776 0.0744-0.0776 0.0356 0 0.0646 0.0291 0.0646 0.0646 0 0.01 0 0.0161-0.0161 0.0518l-0.56888 1.4901z"/><path d="m249.87 650.85v3e-3l3e-3 3e-3v9e-3l3e-3 3e-3v6e-3l3e-3 3e-3v0.012l3e-3 3e-3v0.027c0 0.0582-0.0452 0.0873-0.0937 0.0873-0.0323 0-0.084-0.0194-0.11313-0.0678-6e-3 -0.0161-0.0323-0.11637-0.0452-0.17454-0.0226-0.084-0.0452-0.16809-0.0646-0.25536l-0.14545-0.57858c-0.0129-0.0485-0.14869-0.27475-0.36202-0.27475-0.16485 0-0.2004 0.14222-0.2004 0.26182 0 0.14868 0.055 0.34586 0.16485 0.6303 0.0517 0.12929 0.0646 0.16484 0.0646 0.22949 0 0.14545-0.10343 0.26505-0.26504 0.26505-0.30707 0-0.42667-0.46545-0.42667-0.49454 0-0.0324 0.0324-0.0324 0.0387-0.0324 0.0323 0 0.0355 6e-3 0.0517 0.0582 0.0873 0.30061 0.21656 0.39758 0.32646 0.39758 0.0258 0 0.0808 0 0.0808-0.10343 0-0.0808-0.0324-0.16484-0.0549-0.22626-0.12929-0.33939-0.18748-0.52363-0.18748-0.67232 0-0.28767 0.20364-0.38141 0.39435-0.38141 0.12606 0 0.23595 0.0518 0.32322 0.14223-0.0387-0.16486-0.0808-0.32323-0.20686-0.49455-0.084-0.10989-0.20687-0.2004-0.35556-0.2004-0.0452 0-0.19071 0.01-0.24564 0.13252 0.0517 0 0.0937 0 0.13898 0.0388 0.0323 0.0291 0.0646 0.0711 0.0646 0.13254 0 0.10019-0.0873 0.11312-0.11961 0.11312-0.0744 0-0.181-0.0517-0.181-0.21009 0-0.1584 0.14222-0.27798 0.34262-0.27798 0.33293 0 0.66262 0.29089 0.75313 0.65291z"/><path d="m250.88 650.37v6e-3h3e-3v6e-3h3e-3v9e-3h3e-3v6e-3l3e-3 3e-3v9e-3h3e-3v0.012c0 0.01 0 0.0162-0.0161 0.055l-0.56566 1.4772c-0.0194 0.0549-0.0387 0.0744-0.0744 0.0744-0.0355 0-0.0646-0.0291-0.0646-0.0646 0-0.01 0-0.0161 0.0161-0.0517l0.57212-1.4901-0.57212-1.4836c-0.0161-0.0355-0.0161-0.042-0.0161-0.0582 0-0.0355 0.0291-0.0646 0.0646-0.0646 0.042 0 0.055 0.0323 0.0678 0.0646z"/></g><g fill="#ff0001" fill-opacity=".42512" stroke="none" stroke-dasharray="0.31184934, 0.05197489" stroke-linecap="square" stroke-linejoin="bevel" stroke-opacity=".9372" stroke-width=".051975"><circle transform="scale(1,-1)" cx="91.833" cy="-739.63" r=".56099" opacity=".97"/><g fill-rule="evenodd"><circle transform="scale(1,-1)" cx="84.56" cy="-742.3" r=".56099" opacity=".97"/><circle transform="scale(1,-1)" cx="108.06" cy="-740.87" r=".56099" opacity=".97"/><circle transform="scale(1,-1)" cx="100.88" cy="-745.89" r=".56099" opacity=".97"/><circle transform="scale(1,-1)" cx="88.527" cy="-753.03" r=".56099" opacity=".97"/><circle transform="scale(1,-1)" cx="99.861" cy="-752.81" r=".56099" opacity=".97"/><circle transform="scale(1,-1)" cx="106.96" cy="-755.04" r=".56099" opacity=".97"/><circle transform="scale(1,-1)" cx="108.52" cy="-749.88" r=".56099" opacity=".97"/><circle transform="scale(1,-1)" cx="119.26" cy="-747.85" r=".56099" opacity=".97"/><circle transform="scale(1,-1)" cx="113.15" cy="-749.46" r=".56099" opacity=".97"/><circle transform="scale(1,-1)" cx="121.19" cy="-752.74" r=".56099" opacity=".97"/><circle transform="scale(1,-1)" cx="137.43" cy="-755.17" r=".56099" opacity=".97"/><circle transform="scale(1,-1)" cx="116.14" cy="-755.76" r=".56099" opacity=".97"/><circle transform="scale(1,-1)" cx="123.65" cy="-760.12" r=".56099" opacity=".97"/><circle transform="scale(1,-1)" cx="128.72" cy="-763.75" r=".56099" opacity=".97"/><circle transform="scale(1,-1)" cx="109.09" cy="-766.98" r=".56099" opacity=".97"/><circle transform="scale(1,-1)" cx="116.11" cy="-767.33" r=".56099" opacity=".97"/><circle transform="scale(1,-1)" cx="136.71" cy="-768.32" r=".56099" opacity=".97"/><circle transform="scale(1,-1)" cx="129.42" cy="-767.22" r=".56099" opacity=".97"/><circle transform="scale(1,-1)" cx="120.47" cy="-776.33" r=".56099" opacity=".97"/><circle transform="scale(1,-1)" cx="106.79" cy="-770.99" r=".56099" opacity=".97"/><circle transform="scale(1,-1)" cx="123.57" cy="-770.08" r=".56099" opacity=".97"/><circle transform="scale(1,-1)" cx="131.84" cy="-773.07" r=".56099" opacity=".97"/><circle transform="scale(1,-1)" cx="137.62" cy="-774.46" r=".56099" opacity=".97"/><circle transform="scale(1,-1)" cx="140.82" cy="-779.64" r=".56099" opacity=".97"/><circle transform="scale(1,-1)" cx="146" cy="-759.98" r=".56099" opacity=".97"/><circle transform="scale(1,-1)" cx="153.32" cy="-770.83" r=".56099" opacity=".97"/></g></g><g stroke="#000"><g transform="matrix(.7654 0 0 .7654 61.129 229.03)" fill-rule="evenodd" stroke-width="0" ns0:preamble="default_packages.tex" ns0:text="$\\sigma_{fit}$\n$\\sigma_{data}$\n" xml:space="preserve"><path d="m133.37 720.93h0.0734l0.0131 7e-3h0.0393l0.0131 7e-3h0.0131l0.0131 7e-3h0.0131l0.0655 0.035 7e-3 0.0131 0.0131 7e-3 7e-3 7e-3v7e-3h7e-3l7e-3 7e-3v7e-3l0.014 0.014v7e-3l7e-3 7e-3v7e-3l7e-3 7e-3v0.0201l7e-3 7e-3v0.0402l7e-3 7e-3v0.0131c0 0.15773-0.13801 0.15773-0.25632 0.15773h-1.4985c-0.98584 0-1.7154-1.0779-1.7154-1.8534 0-0.57836 0.38777-1.0318 0.98584-1.0318l7e-3 0.13802c-0.32205 0-0.58494 0.2366-0.58494 0.70981 0 0.1906 0.0789 0.72952 0.3089 1.1173 0.27604 0.44692 0.67037 0.53893 0.88726 0.53893 0.55207 0 0.60465-0.43377 0.60465-0.63094 0-0.3089-0.13144-0.84126-0.3549-1.1764-0.25632-0.38777-0.60465-0.55865-0.86097-0.55865l-7e-3 -0.13802c0.76896 0 1.6431 0.78868 1.6431 1.7942 0 0.11173 0 0.42063-0.20374 0.70981z"/><path d="m134.54 718.59h0.45348c0.092 0 0.15117 0 0.15117 0.0986 0 0.0657-0.0592 0.0657-0.14459 0.0657h-0.4272c0.10515 0.57836 0.14459 0.78868 0.17745 0.92012 0.0263 0.10516 0.12487 0.19717 0.2366 0.19717 7e-3 0 0.13145 0 0.21689-0.0526-0.1906-0.0592-0.20374-0.22345-0.20374-0.24974 0-0.10516 0.0789-0.17088 0.18402-0.17088 0.12487 0 0.26289 0.10515 0.26289 0.27603 0 0.21032-0.22346 0.32862-0.46006 0.32862-0.20374 0-0.4272-0.1183-0.55207-0.34176-0.092-0.17088-0.13145-0.38119-0.22346-0.90698h-0.36148c-0.0986 0-0.15773 0-0.15773-0.10515 0-0.0592 0.0592-0.0592 0.14459-0.0592h0.34176c-7e-3 -0.0263-0.29575-1.6759-0.40748-2.1623-0.0197-0.0986-0.0986-0.44692-0.32205-0.44692 0 0-0.11172 0-0.19716 0.0526 0.18402 0.0591 0.19716 0.22346 0.19716 0.24975 0 0.10515-0.0723 0.17088-0.18402 0.17088-0.1183 0-0.26289-0.10516-0.26289-0.27604 0-0.21031 0.21688-0.32861 0.44691-0.32861 0.29576 0 0.4995 0.30232 0.55208 0.40091 0.1643 0.30889 0.27603 0.87411 0.28261 0.92669z"/><path d="m137.23 719.64v0.014l-7e-3 7e-3v0.021l-7e-3 7e-3v0.0201l-7e-3 7e-3v7e-3l-0.014 0.014v7e-3l-0.042 0.042h-7e-3l-0.014 0.014-0.0131 7e-3h-7e-3l-7e-3 7e-3h-0.0201l-0.0132 7e-3h-0.0333c-0.12487 0-0.26289-0.1183-0.26289-0.24974 0-0.0789 0.0657-0.17746 0.1906-0.17746 0.13144 0 0.25632 0.13145 0.25632 0.25632z"/><path d="m136.29 717.32-7e-3 -0.0131v-0.0131l-7e-3 -0.0197-7e-3 -0.0131v-0.0131l-7e-3 -7e-3v-0.0131l-7e-3 -0.0131v-0.0262l-7e-3 -7e-3v-0.0621c0-0.21031 0.18403-0.38776 0.43378-0.38776 0.46006 0 0.6638 0.63094 0.6638 0.70323 0 0.0592-0.0591 0.0592-0.0723 0.0592-0.0657 0-0.0723-0.0329-0.092-0.0789-0.10516-0.36805-0.3089-0.55208-0.48635-0.55208-0.092 0-0.11173 0.0592-0.11173 0.15774 0 0.10515 0.0329 0.19059 0.0723 0.29575 0.046 0.1183 0.0986 0.24318 0.14459 0.36148 0.046 0.11173 0.21031 0.52578 0.23003 0.57836 0.0131 0.046 0.0263 0.10516 0.0263 0.15116 0 0.21032-0.18403 0.38777-0.44035 0.38777-0.45349 0-0.6638-0.62437-0.6638-0.70324 0-0.0591 0.0657-0.0591 0.0789-0.0591 0.0657 0 0.0657 0.0263 0.0789 0.0723 0.12487 0.39434 0.32204 0.55864 0.49292 0.55864 0.0723 0 0.1183-0.0329 0.1183-0.15773 0-0.10516-0.0329-0.17745-0.14459-0.46006z"/><path d="m138.72 718.59h0.46663c0.092 0 0.15116 0 0.15116 0.0986 0 0.0657-0.0591 0.0657-0.13801 0.0657h-0.44035l0.17088 0.67695c7e-3 0.0197 0.0131 0.046 0.0131 0.0657 0 0.0789-0.0657 0.14459-0.15774 0.14459-0.11173 0-0.18402-0.0789-0.21031-0.19717-0.0329-0.1183 0.0263 0.10516-0.17745-0.69009h-0.46664c-0.092 0-0.15116 0-0.15116-0.10515 0-0.0592 0.0591-0.0592 0.13802-0.0592h0.44034l-0.26946-1.0778c-0.0329-0.1183-0.0723-0.28261-0.0723-0.34176 0-0.26947 0.23003-0.43377 0.49292-0.43377 0.50607 0 0.80182 0.63751 0.80182 0.70323 0 0.0592-0.0657 0.0592-0.0789 0.0592-0.0526 0-0.0591-0.0131-0.092-0.092-0.13145-0.28261-0.36805-0.53893-0.6178-0.53893-0.0986 0-0.15774 0.0592-0.15774 0.22346 0 0.046 0.0131 0.13802 0.0263 0.18403z"/><path d="m-5.1607 704.3h0.08158l0.013588 7e-3h0.040764l0.013588 7e-3h0.013588l0.013588 7e-3h0.013588l0.040764 0.021 0.00682 7e-3 0.013588 7e-3 0.013588 0.0135 0.013588 7e-3v7e-3l0.00682 7e-3h0.00682v7e-3l0.01364 0.014v7e-3l0.00682 7e-3v7e-3l0.00682 7e-3v7e-3l0.00682 0.0136v0.014l0.00682 7e-3v0.0546c0 0.16306-0.14267 0.16306-0.26496 0.16306h-1.5422c-1.0191 0-1.7732-1.1142-1.7732-1.9159 0-0.59787 0.40084-1.0666 1.0123-1.0666l0.00682 0.14266c-0.32611 0-0.59787 0.24458-0.59787 0.73375 0 0.19702 0.081527 0.75412 0.31252 1.155 0.28534 0.46198 0.69298 0.5571 0.92397 0.5571 0.57069 0 0.62504-0.4484 0.62504-0.65222 0-0.31931-0.13588-0.86962-0.36687-1.2161-0.26496-0.40085-0.63183-0.57749-0.8968-0.57749l-0.00682-0.14266c0.80168 0 1.7053 0.81526 1.7053 1.8547 0 0.11549 0 0.43481-0.21061 0.73374z"/><path d="m-2.0899 703.91h0.0068v0.021l0.0068 7e-3v0.021l0.0068 7e-3v0.021c0 0.0204-0.020382 0.068-0.074733 0.068-0.095115 0-0.48916-0.0408-0.60466-0.0475-0.040763-7e-3 -0.1087-0.0135-0.1087-0.1087 0-0.0679 0.067939-0.0679 0.12229-0.0679 0.23099 0 0.23099-0.034 0.23099-0.0679 0-0.034-0.013588-0.0679-0.020382-0.10871l-0.27176-1.0734c-0.095115 0.15626-0.25817 0.27855-0.48916 0.27855v-0.13588c0.3329 0 0.42122-0.36008 0.42122-0.40763 0-0.0204-0.0068-0.0543-0.013588-0.0679l-0.2242-0.88321c-0.027176-0.13587-0.13588-0.2242-0.23779-0.31931-0.040763-0.034-0.23099-0.18344-0.44161-0.18344-0.16985 0-0.34649 0.1223-0.34649 0.45519 0 0.25138 0.14267 0.76772 0.25137 0.95795 0.21741 0.38046 0.46199 0.4484 0.59107 0.4484v0.13587c-0.60466 0-1.2229-0.6658-1.2229-1.3452 0-0.46199 0.30573-0.7881 0.71336-0.7881 0.25817 0 0.48916 0.14946 0.67939 0.3329 0.088321-0.28534 0.36687-0.3329 0.48916-0.3329 0.16985 0 0.28534 0.10191 0.37367 0.25138 0.10191 0.18344 0.16305 0.45519 0.16305 0.47557 0 0.0612-0.061145 0.0612-0.074733 0.0612-0.061145 0-0.067939-0.0204-0.10191-0.14947-0.061145-0.2242-0.14947-0.50276-0.34649-0.50276-0.12229 0-0.15626 0.10192-0.15626 0.23101 0 0.0883 0.0068 0.12908 0.020382 0.19022z"/><path d="m0.02302 702.58-0.0067982 0.0136-0.013588 0.0135-0.0067982 0.0136-0.027176 0.0272-0.0067982 0.0135-0.013588 0.0136-0.027176 0.027-0.0067982 7e-3 -0.013588 0.0135-0.013588 0.0136-0.013588 7e-3 -0.020382 0.0136-0.013588 7e-3 -0.013588 0.0136-0.013588 7e-3 -0.020382 0.0136-0.027176 0.014-0.020382 7e-3 -0.013588 7e-3 -0.040763 0.014h-0.013588l-0.040763 0.014h-0.040763l-0.020382 7e-3h-0.040763v-0.13588c0.3329 0 0.42122-0.36008 0.42122-0.40763 0-0.0204-0.0067982-0.0543-0.013588-0.0679l-0.2242-0.88321c-0.03397-0.13587-0.13588-0.2242-0.23779-0.31931-0.047557-0.034-0.23779-0.18344-0.44161-0.18344-0.17664 0-0.34649 0.12229-0.34649 0.45519 0 0.25138 0.14267 0.76772 0.25138 0.95795 0.21741 0.38046 0.45519 0.4484 0.59107 0.4484v0.13587c-0.60466 0-1.2229-0.6658-1.2229-1.3452 0-0.46199 0.30573-0.7881 0.71336-0.7881 0.25817 0 0.48916 0.14946 0.6726 0.3329 0.095115-0.28534 0.36687-0.3329 0.49596-0.3329 0.16985 0 0.28534 0.10191 0.37367 0.25138 0.10191 0.18344 0.16305 0.45519 0.16305 0.47557 0 0.0612-0.061145 0.0612-0.074733 0.0612-0.067939 0-0.067939-0.0204-0.10191-0.14947-0.061145-0.2242-0.14947-0.50276-0.34649-0.50276-0.12908 0-0.16305 0.10192-0.16305 0.231 0 0.0815 0.040763 0.25137 0.074733 0.37366 0.03397 0.1223 0.081527 0.31932 0.10191 0.42123l0.095115 0.36008c0.03397 0.12229 0.088321 0.34648 0.088321 0.36687 0 0.1087-0.088321 0.15626-0.16305 0.15626-0.081527 0-0.19023-0.0612-0.21741-0.19023z"/><path d="m2.1223 702.64h0.48237c0.095115 0 0.15626 0 0.15626 0.10192 0 0.0679-0.061145 0.0679-0.14267 0.0679h-0.45519l0.17664 0.69977c0.0068 0.0204 0.013588 0.0475 0.013588 0.0679 0 0.0815-0.061145 0.14946-0.15626 0.14946-0.12229 0-0.19023-0.0815-0.2242-0.20381-0.03397-0.12229 0.027176 0.1087-0.18344-0.71336h-0.48237c-0.088321 0-0.14947 0-0.14947-0.1087 0-0.0612 0.054351-0.0612 0.13588-0.0612h0.45519l-0.27855-1.1142c-0.033969-0.12229-0.074733-0.29214-0.074733-0.35328 0-0.27856 0.23779-0.44841 0.50954-0.44841 0.52313 0 0.82886 0.65901 0.82886 0.72695 0 0.0612-0.067939 0.0612-0.081527 0.0612-0.054351 0-0.061145-0.0136-0.095115-0.0951-0.13588-0.29214-0.38046-0.5571-0.63863-0.5571-0.10191 0-0.16305 0.0612-0.16305 0.231 0 0.0475 0.013588 0.14267 0.027176 0.19023z"/><path d="m5.003 702.58-0.00679 0.0136-0.013588 0.0135-0.0068 0.0136-0.013588 0.0136-0.0068 0.0136-0.013588 0.0135-0.013588 0.0136-0.013588 0.0135-0.0068 0.0135-0.013588 7e-3 -0.013588 0.0135-0.013588 0.0136-0.013588 7e-3 -0.013588 0.0136-0.020382 7e-3 -0.013588 0.0136-0.013588 7e-3 -0.013588 0.0136-0.020382 7e-3 -0.013588 7e-3 -0.020382 7e-3 -0.013588 7e-3 -0.040764 0.014h-0.013588l-0.040764 0.014h-0.040764l-0.020382 7e-3h-0.040764v-0.13588c0.3329 0 0.42122-0.36008 0.42122-0.40763 0-0.0204-0.0068-0.0543-0.013588-0.0679l-0.22418-0.88562c-0.027176-0.13587-0.13588-0.2242-0.23779-0.31931-0.047557-0.034-0.23099-0.18344-0.44161-0.18344-0.17664 0-0.34649 0.12229-0.34649 0.45519 0 0.25138 0.14267 0.76772 0.25138 0.95795 0.21741 0.38046 0.46199 0.4484 0.59107 0.4484v0.13587c-0.60466 0-1.2229-0.6658-1.2229-1.3452 0-0.46199 0.30573-0.7881 0.71336-0.7881 0.25817 0 0.48916 0.14946 0.67939 0.3329 0.088321-0.28534 0.36008-0.3329 0.48916-0.3329 0.16985 0 0.28534 0.10191 0.37367 0.25138 0.10191 0.18344 0.16305 0.45519 0.16305 0.47557 0 0.0612-0.061145 0.0612-0.074733 0.0612-0.067939 0-0.067939-0.0204-0.10191-0.14947-0.061145-0.2242-0.14947-0.50276-0.34649-0.50276-0.12229 0-0.15626 0.10192-0.15626 0.231 0 0.0815 0.03397 0.25137 0.067939 0.37366 0.033969 0.1223 0.081527 0.31932 0.10191 0.42123l0.095115 0.36008c0.033969 0.12229 0.088321 0.34648 0.088321 0.36687 0 0.1087-0.088321 0.15626-0.16305 0.15626-0.081527 0-0.19023-0.0612-0.21741-0.19023z"/></g></g></g><g fill="none" stroke="#000"><path d="m157.7 781.56v-5.4798" marker-end="url(#b)" marker-start="url(#Arrow1Mstart)" stroke-miterlimit="10.433" stroke-opacity=".61836" stroke-width=".36088"/><path d="m67.626 773.08v-15.032" marker-end="url(#a)" marker-start="url(#f)" stroke-miterlimit="10.433" stroke-opacity=".61836" stroke-width=".55171"/><path d="m66.505 774.23h3.7024" stroke-width=".21156px"/></g><g fill="#ff0001" fill-opacity=".42512" fill-rule="evenodd" stroke="none" stroke-dasharray="0.31184934, 0.05197489" stroke-linecap="square" stroke-linejoin="bevel" stroke-miterlimit="10.433" stroke-opacity=".9372" stroke-width=".051975"><circle transform="scale(1,-1)" cx="69.603" cy="-772.65" r=".56099" opacity=".97"/><circle transform="scale(1,-1)" cx="69.622" cy="-777.82" r=".56099" opacity=".97"/><circle transform="scale(1,-1)" cx="69.603" cy="-760.26" r=".56099" opacity=".97"/><circle transform="scale(1,-1)" cx="69.608" cy="-769.23" r=".56099" opacity=".97"/><circle transform="scale(1,-1)" cx="69.625" cy="-770.25" r=".56099" opacity=".97"/><circle transform="scale(1,-1)" cx="69.603" cy="-780.32" r=".56099" opacity=".97"/><circle transform="scale(1,-1)" cx="69.608" cy="-741.87" r=".56099" opacity=".97"/><circle transform="scale(1,-1)" cx="69.621" cy="-753.7" r=".56099" opacity=".97"/><circle transform="scale(1,-1)" cx="69.635" cy="-738.56" r=".56099" opacity=".97"/><circle transform="scale(1,-1)" cx="69.623" cy="-737.87" r=".56099" opacity=".97"/><circle transform="scale(1,-1)" cx="69.625" cy="-750.43" r=".56099" opacity=".97"/><circle transform="scale(1,-1)" cx="69.661" cy="-747.21" r=".56099" opacity=".97"/><circle transform="scale(1,-1)" cx="69.603" cy="-755.99" r=".56099" opacity=".97"/><circle transform="scale(1,-1)" cx="69.641" cy="-755.57" r=".56099" opacity=".97"/><circle transform="scale(1,-1)" cx="69.595" cy="-754.88" r=".56099" opacity=".97"/><circle transform="scale(1,-1)" cx="69.565" cy="-763.01" r=".56099" opacity=".97"/><circle transform="scale(1,-1)" cx="69.565" cy="-764.15" r=".56099" opacity=".97"/><circle transform="scale(1,-1)" cx="69.565" cy="-765.51" r=".56099" opacity=".97"/><circle transform="scale(1,-1)" cx="69.584" cy="-764.96" r=".56099" opacity=".97"/><circle transform="scale(1,-1)" cx="69.621" cy="-769.79" r=".56099" opacity=".97"/><circle transform="scale(1,-1)" cx="69.583" cy="-767.83" r=".56099" opacity=".97"/><circle transform="scale(1,-1)" cx="69.546" cy="-766.6" r=".56099" opacity=".97"/><circle transform="scale(1,-1)" cx="69.603" cy="-749.22" r=".56099" opacity=".97"/><circle transform="scale(1,-1)" cx="69.66" cy="-746.79" r=".56099" opacity=".97"/><circle transform="scale(1,-1)" cx="69.61" cy="-758.1" r=".56099" opacity=".97"/><circle transform="scale(1,-1)" cx="69.603" cy="-760.9" r=".56099" opacity=".97"/><circle transform="scale(1,-1)" cx="69.635" cy="-771.8" r=".56099" opacity=".97"/><circle transform="scale(1,-1)" cx="69.603" cy="-768.53" r=".56099" opacity=".97"/><circle transform="scale(1,-1)" cx="69.641" cy="-752.1" r=".56099" opacity=".97"/><circle transform="scale(1,-1)" cx="69.635" cy="-745.1" r=".56099" opacity=".97"/><circle transform="scale(1,-1)" cx="69.655" cy="-744.65" r=".56099" opacity=".97"/></g><g fill-opacity=".42512" stroke-miterlimit="10.433"><path d="m106.19 770.99h-33.079" fill="#000001" marker-end="url(#d)" stroke="#000" stroke-miterlimit="10.433" stroke-opacity=".37681" stroke-width=".36939"/><g transform="matrix(1.0312 0 0 1 -2.157 0)" fill-rule="evenodd"><circle transform="scale(1,-1)" cx="69.661" cy="-753.06" r=".56099" fill="#ff0001" opacity=".97" stroke="#b00000" stroke-dasharray="0.3070931, 0.05118218" stroke-linecap="square" stroke-linejoin="bevel" stroke-opacity=".9372" stroke-width=".051182"/><path d="m98.615 758.47h-25.819" fill="#000001" marker-end="url(#Arrow1Mend)" stroke="#000" stroke-miterlimit="10.433" stroke-opacity=".37681" stroke-width=".36376"/><path d="m87.383 753.03h-14.895" fill="#000001" marker-end="url(#e)" stroke="#000" stroke-miterlimit="10.433" stroke-opacity=".37681" stroke-width=".36376"/></g></g></g>
 </g>
</svg>