<?xml version="1.0" encoding="UTF-8"?>
<svg width="167.1mm" height="51.358mm" version="1.1" viewBox="0 0 116.04 30.619" xmlns="http://www.w3.org/2000/svg" xmlns:cc="http://creativecommons.org/ns#" xmlns:dc="http://purl.org/dc/elements/1.1/" xmlns:ns2="http://www.iki.fi/pav/software/textext/" xmlns:rdf="http://www.w3.org/1999/02/22-rdf-syntax-ns#" xmlns:xlink="http://www.w3.org/1999/xlink">
 <defs>
  <marker id="marker34242" style="overflow:visible" orient="auto">
   <path transform="matrix(-.4 0 0 -.4 -4 0)" d="m0 0 5-5-17.5 5 17.5 5z" style="fill-rule:evenodd;fill:#0099ff;stroke-width:1pt;stroke:#0099ff"/>
  </marker>
  <marker id="marker3186" style="overflow:visible" orient="auto">
   <path transform="matrix(-.4 0 0 -.4 -4 0)" d="m0 0 5-5-17.5 5 17.5 5z" style="fill-rule:evenodd;fill:#000000;stroke-width:1pt;stroke:#000000"/>
  </marker>
 </defs>
 <metadata>
  <rdf:RDF>
   <cc:Work rdf:about="">
    <dc:format>image/svg+xml</dc:format>
    <dc:type rdf:resource="http://purl.org/dc/dcmitype/StillImage"/>
    <dc:title/>
   </cc:Work>
  </rdf:RDF>
  <rdf:RDF>
   <cc:Work rdf:about="">
    <dc:title/>
   </cc:Work>
  </rdf:RDF>
 </metadata>
 <g transform="translate(102.98 -66.346)">
  <text x="35.246281" y="42.149555" fill="#000000" font-family="Verdana" font-size="10.583px" letter-spacing="0px" word-spacing="0px" style="line-height:1.25" xml:space="preserve"/>
  <text x="76.906807" y="21.511925" fill="#000000" font-family="Verdana" font-size="10.583px" letter-spacing="0px" word-spacing="0px" style="line-height:1.25" xml:space="preserve"/>
  <g transform="matrix(1.2512,0,0,-1.2512,-160.51,876.57)" fill-rule="evenodd" stroke="#000000" stroke-miterlimit="10.433" stroke-width="1.1988" ns2:preamble="default_packages.tex" ns2:text="$p q$\n" xml:space="preserve"><g transform="matrix(1.5,0,0,-1.5,-165.9,1212.8)" fill-rule="evenodd" stroke="#000000" stroke-miterlimit="10.433" ns2:preamble="default_packages.tex" ns2:text="$\\text{delete readjust}$\n" xml:space="preserve"><g transform="matrix(1.5,0,0,-1.5,-165.59,1212.8)" fill-rule="evenodd" stroke-miterlimit="10.433" ns2:preamble="default_packages.tex" ns2:text="$delete readjust$\n" xml:space="preserve"><flowRoot fill="#000000" font-family="Verdana" font-size="40px" letter-spacing="0px" stroke="none" word-spacing="0px" style="line-height:1.25" xml:space="preserve"><flowRegion><rect x="78.929" y="457.16" width="60" height="76.429"/></flowRegion><flowPara/></flowRoot><g transform="matrix(.20006 0 0 .20006 165.85 418.79)" fill-rule="evenodd" stroke="#000000" stroke-miterlimit="10.433" stroke-width="8.9882" ns2:preamble="default_packages.tex" ns2:text="$f bias variance All functions Learnable functions$\n" xml:space="preserve"><g transform="matrix(.50188 0 0 -.50188 266.68 759.19)" ns2:alignment="middle center" ns2:inkscapeversion="1.0" ns2:jacobian_sqrt="3.77952" ns2:pdfconverter="inkscape" ns2:preamble="C:\\Users\\User\\AppData\\Roaming\\inkscape\\extensions\\textext\\default_packages.tex" ns2:scale="2.834645669291339" ns2:texconverter="pdflatex" ns2:text="$\\dots f$" ns2:version="1.1.0">
  <rect x="-145.82" y="124.13" width="410.51" height="126.17" style="fill:#ffffff;opacity:.999;stroke:none"/><g id="id-6e891408-7e0f-41a4-8454-8889087ecd4d" transform="translate(-112.86 32.403)">
    
    
    
    <g transform="matrix(1.2104 0 0 1.2104 13.531 -73.189)" style="fill:#000000">
      <g transform="translate(162,134.76)"><path id="id-878b61ba-cc34-4cc4-8f0f-edde1d6d0a5e" d="m6.1018 35.451h0.85938c0.20312 0 0.29688 0 0.29688-0.20312 0-0.10938-0.09375-0.10938-0.26562-0.10938h-0.82812l0.20312-1.1406c0.046875-0.20312 0.1875-0.90625 0.25-1.0312 0.078125-0.1875 0.25-0.34375 0.46875-0.34375 0.03125 0 0.29688 0 0.48438 0.1875-0.4375 0.03125-0.54688 0.39062-0.54688 0.53125 0 0.23438 0.1875 0.35938 0.375 0.35938 0.26562 0 0.54688-0.23438 0.54688-0.60938 0-0.45312-0.45312-0.6875-0.85938-0.6875-0.34375 0-0.96875 0.1875-1.2656 1.1719-0.0625 0.20312-0.09375 0.3125-0.32812 1.5625h-0.6875c-0.20312 0-0.3125 0-0.3125 0.1875 0 0.125 0.09375 0.125 0.28125 0.125h0.65625l-0.73438 3.9375c-0.1875 0.96875-0.35938 1.875-0.875 1.875-0.046875 0-0.28125 0-0.48438-0.1875 0.46875-0.03125 0.5625-0.39062 0.5625-0.53125 0-0.23438-0.1875-0.35938-0.375-0.35938-0.26562 0-0.54688 0.23438-0.54688 0.60938 0 0.4375 0.4375 0.6875 0.84375 0.6875 0.54688 0 0.95312-0.59375 1.125-0.96875 0.32812-0.625 0.54688-1.8281 0.5625-1.9062z" style="stroke:none"/>
      </g></g>
  <path d="m189.27 144.68 50.182 0.0259" style="fill:none;marker-end:url(#marker3186);stroke-miterlimit:10.433;stroke-width:.71497;stroke:#000000"/><g transform="matrix(1.3843 0 0 1.3843 166.37 118.22)" ns2:alignment="middle center" ns2:inkscapeversion="1.0" ns2:jacobian_sqrt="0.50188" ns2:pdfconverter="inkscape" ns2:preamble="C:\\Users\\User\\AppData\\Roaming\\inkscape\\extensions\\textext\\default_packages.tex" ns2:scale="0.37641075282150566" ns2:texconverter="pdflatex" ns2:text="$\\mathbb{R}^{k} \\oplus \\mathbb{R}^{s}$" ns2:version="1.1.0"><defs id="id-4c7b3cb7-222f-41e2-b30f-e6992b1c1d0c">
    
  </defs>
  <g id="id-b7fb5c85-dc2c-4456-9cb7-f334b2cfe88a" transform="translate(-148.87 -126.31)">
    <g style="fill:#000000">
      <g transform="translate(148.71 134.76)"><path d="m2.6719-3.125h0.35938l1.5 2.3125c0.09375 0.15625 0.32812 0.54688 0.4375 0.6875 0.078125 0.125 0.10938 0.125 0.32812 0.125h1.375c0.1875 0 0.34375 0 0.34375-0.17188 0-0.09375-0.0625-0.15625-0.15625-0.17188-0.375-0.078125-0.85938-0.75-1.0938-1.0625-0.078125-0.09375-0.57812-0.75-1.2344-1.8281 0.875-0.17188 1.7344-0.54688 1.7344-1.7344 0-1.375-1.4531-1.8594-2.6406-1.8594h-3.125c-0.1875 0-0.34375 0-0.34375 0.17188s0.1875 0.17188 0.26562 0.17188c0.57812 0 0.625 0.078125 0.625 0.57812v4.9844c0 0.5-0.046875 0.57812-0.625 0.57812-0.078125 0-0.26562 0-0.26562 0.17188s0.15625 0.17188 0.34375 0.17188h2.7344c0.17188 0 0.32812 0 0.32812-0.17188s-0.17188-0.17188-0.28125-0.17188c-0.5625 0-0.60938-0.078125-0.60938-0.57812zm1.9219-0.5c0.28125-0.35938 0.3125-0.89062 0.3125-1.3281 0-0.48438-0.0625-1.0156-0.375-1.4219 0.40625 0.09375 1.3906 0.40625 1.3906 1.4062 0 0.65625-0.29688 1.1562-1.3281 1.3438zm-1.9219-2.3125c0-0.21875 0-0.54688 0.625-0.54688 0.84375 0 1.2656 0.35938 1.2656 1.5312 0 1.2812-0.3125 1.4688-1.8906 1.4688zm-1.3594 5.5938c0.078125-0.1875 0.078125-0.46875 0.078125-0.54688v-5.0469c0-0.09375 0-0.35938-0.078125-0.54688h1.1406c-0.125 0.17188-0.125 0.35938-0.125 0.51562v5.0781c0 0.09375 0 0.35938 0.078125 0.54688zm2.125-2.7812c0.078125-0.015625 0.10938-0.03125 0.1875-0.03125 0.15625 0 0.375-0.015625 0.51562-0.03125 0.15625 0.23438 1.2344 2.0156 2.0625 2.8438h-0.96875z" style="stroke:none"/>
      </g></g>
    <g style="fill:#000000">
      <g transform="translate(155.91 131.15)"><path d="m2.1875-4.625c0-0.015625 0.015625-0.10938 0.015625-0.10938 0-0.046875-0.015625-0.10938-0.10938-0.10938-0.14062 0-0.71875 0.0625-0.89062 0.078125-0.046875 0-0.15625 0.015625-0.15625 0.15625 0 0.09375 0.10938 0.09375 0.1875 0.09375 0.32812 0 0.32812 0.0625 0.32812 0.10938s-0.015625 0.09375-0.015625 0.15625l-0.98438 3.9375c-0.046875 0.125-0.046875 0.14062-0.046875 0.15625 0 0.10938 0.09375 0.21875 0.25 0.21875 0.1875 0 0.26562-0.125 0.3125-0.28125 0.015625-0.03125 0.3125-1.2656 0.34375-1.3594 0.5 0.046875 0.89062 0.21875 0.89062 0.57812 0 0.03125 0 0.0625-0.015625 0.14062-0.03125 0.09375-0.03125 0.14062-0.03125 0.21875 0 0.48438 0.40625 0.70312 0.75 0.70312 0.67188 0 0.875-1.0469 0.875-1.0625 0-0.09375-0.078125-0.09375-0.10938-0.09375-0.09375 0-0.10938 0.046875-0.14062 0.17188-0.078125 0.29688-0.26562 0.79688-0.60938 0.79688-0.1875 0-0.25-0.17188-0.25-0.35938 0-0.125 0-0.14062 0.046875-0.3125 0.015625-0.03125 0.03125-0.14062 0.03125-0.21875 0-0.625-0.82812-0.71875-1.125-0.73438 0.20312-0.125 0.45312-0.35938 0.57812-0.46875 0.35938-0.32812 0.70312-0.65625 1.0938-0.65625 0.078125 0 0.17188 0.015625 0.23438 0.09375-0.29688 0.046875-0.35938 0.28125-0.35938 0.39062 0 0.14062 0.10938 0.25 0.26562 0.25 0.20312 0 0.40625-0.15625 0.40625-0.4375 0-0.23438-0.17188-0.5-0.53125-0.5-0.40625 0-0.76562 0.29688-1.125 0.625-0.29688 0.26562-0.51562 0.48438-0.8125 0.60938z" style="stroke:none"/>
      </g></g>
    <g transform="translate(-14.969 12.563)" style="fill:#000000">
      <g transform="translate(163.02 134.76)"><path d="m7.2031-2.5c0-1.8281-1.5-3.3125-3.3281-3.3125-1.8438 0-3.3281 1.5-3.3281 3.3125 0 1.8438 1.5 3.3281 3.3281 3.3281 1.8438 0 3.3281-1.5 3.3281-3.3281zm-6.4062-0.125c0.09375-1.6719 1.3906-2.8594 2.9531-2.9375v2.9375zm3.2031-2.9375c1.5625 0.078125 2.8438 1.2812 2.9531 2.9375h-2.9531zm-0.25 6.1406c-1.5469-0.078125-2.8594-1.25-2.9531-2.9531h2.9531zm3.2031-2.9531c-0.10938 1.7031-1.4219 2.875-2.9531 2.9531v-2.9531z" style="stroke:none"/>
      </g></g>
    <g transform="translate(-24.76 26.461)" style="fill:#000000">
      <g transform="translate(172.99 134.76)"><path id="id-1d94fd6a-e2fa-40b8-8cd1-c734a343eb6d" d="m2.6719-3.125h0.35938l1.5 2.3125c0.09375 0.15625 0.32812 0.54688 0.4375 0.6875 0.078125 0.125 0.10938 0.125 0.32812 0.125h1.375c0.1875 0 0.34375 0 0.34375-0.17188 0-0.09375-0.0625-0.15625-0.15625-0.17188-0.375-0.078125-0.85938-0.75-1.0938-1.0625-0.078125-0.09375-0.57812-0.75-1.2344-1.8281 0.875-0.17188 1.7344-0.54688 1.7344-1.7344 0-1.375-1.4531-1.8594-2.6406-1.8594h-3.125c-0.1875 0-0.34375 0-0.34375 0.17188s0.1875 0.17188 0.26562 0.17188c0.57812 0 0.625 0.078125 0.625 0.57812v4.9844c0 0.5-0.046875 0.57812-0.625 0.57812-0.078125 0-0.26562 0-0.26562 0.17188s0.15625 0.17188 0.34375 0.17188h2.7344c0.17188 0 0.32812 0 0.32812-0.17188s-0.17188-0.17188-0.28125-0.17188c-0.5625 0-0.60938-0.078125-0.60938-0.57812zm1.9219-0.5c0.28125-0.35938 0.3125-0.89062 0.3125-1.3281 0-0.48438-0.0625-1.0156-0.375-1.4219 0.40625 0.09375 1.3906 0.40625 1.3906 1.4062 0 0.65625-0.29688 1.1562-1.3281 1.3438zm-1.9219-2.3125c0-0.21875 0-0.54688 0.625-0.54688 0.84375 0 1.2656 0.35938 1.2656 1.5312 0 1.2812-0.3125 1.4688-1.8906 1.4688zm-1.3594 5.5938c0.078125-0.1875 0.078125-0.46875 0.078125-0.54688v-5.0469c0-0.09375 0-0.35938-0.078125-0.54688h1.1406c-0.125 0.17188-0.125 0.35938-0.125 0.51562v5.0781c0 0.09375 0 0.35938 0.078125 0.54688zm2.125-2.7812c0.078125-0.015625 0.10938-0.03125 0.1875-0.03125 0.15625 0 0.375-0.015625 0.51562-0.03125 0.15625 0.23438 1.2344 2.0156 2.0625 2.8438h-0.96875z" style="fill:#0095ff;stroke:none"/>
      </g></g>
    <g transform="translate(-24.76 26.461)" style="fill:#000000">
      <g transform="translate(180.18 131.15)"><path id="id-093bc215-5cc4-4b30-8124-dcddafb3fd0f" d="m3-2.625c-0.17188 0.046875-0.29688 0.1875-0.29688 0.32812 0 0.17188 0.14062 0.23438 0.23438 0.23438 0.078125 0 0.34375-0.046875 0.34375-0.40625 0-0.45312-0.5-0.60938-0.9375-0.60938-1.0781 0-1.2812 0.8125-1.2812 1.0156 0 0.26562 0.15625 0.4375 0.25 0.51562 0.17188 0.14062 0.29688 0.17188 0.78125 0.25 0.15625 0.03125 0.59375 0.10938 0.59375 0.45312 0 0.125-0.078125 0.39062-0.35938 0.5625-0.28125 0.15625-0.625 0.15625-0.70312 0.15625-0.28125 0-0.67188-0.0625-0.84375-0.29688 0.23438-0.03125 0.39062-0.20312 0.39062-0.39062 0-0.17188-0.125-0.26562-0.26562-0.26562-0.20312 0-0.40625 0.17188-0.40625 0.46875 0 0.42188 0.4375 0.67188 1.1094 0.67188 1.2969 0 1.5312-0.875 1.5312-1.1406 0-0.64062-0.70312-0.76562-0.96875-0.8125-0.0625-0.015625-0.23438-0.046875-0.28125-0.0625-0.25-0.046875-0.375-0.1875-0.375-0.34375s0.125-0.34375 0.28125-0.45312c0.1875-0.10938 0.42188-0.125 0.54688-0.125 0.14062 0 0.5 0.015625 0.65625 0.25z" style="fill:#0095ff;stroke:none"/>
      </g></g>
  <g transform="translate(61.978)" style="fill:#000000"><g transform="translate(148.71 134.76)"><path d="m2.6719-3.125h0.35938l1.5 2.3125c0.09375 0.15625 0.32812 0.54688 0.4375 0.6875 0.078125 0.125 0.10938 0.125 0.32812 0.125h1.375c0.1875 0 0.34375 0 0.34375-0.17188 0-0.09375-0.0625-0.15625-0.15625-0.17188-0.375-0.078125-0.85938-0.75-1.0938-1.0625-0.078125-0.09375-0.57812-0.75-1.2344-1.8281 0.875-0.17188 1.7344-0.54688 1.7344-1.7344 0-1.375-1.4531-1.8594-2.6406-1.8594h-3.125c-0.1875 0-0.34375 0-0.34375 0.17188s0.1875 0.17188 0.26562 0.17188c0.57812 0 0.625 0.078125 0.625 0.57812v4.9844c0 0.5-0.046875 0.57812-0.625 0.57812-0.078125 0-0.26562 0-0.26562 0.17188s0.15625 0.17188 0.34375 0.17188h2.7344c0.17188 0 0.32812 0 0.32812-0.17188s-0.17188-0.17188-0.28125-0.17188c-0.5625 0-0.60938-0.078125-0.60938-0.57812zm1.9219-0.5c0.28125-0.35938 0.3125-0.89062 0.3125-1.3281 0-0.48438-0.0625-1.0156-0.375-1.4219 0.40625 0.09375 1.3906 0.40625 1.3906 1.4062 0 0.65625-0.29688 1.1562-1.3281 1.3438zm-1.9219-2.3125c0-0.21875 0-0.54688 0.625-0.54688 0.84375 0 1.2656 0.35938 1.2656 1.5312 0 1.2812-0.3125 1.4688-1.8906 1.4688zm-1.3594 5.5938c0.078125-0.1875 0.078125-0.46875 0.078125-0.54688v-5.0469c0-0.09375 0-0.35938-0.078125-0.54688h1.1406c-0.125 0.17188-0.125 0.35938-0.125 0.51562v5.0781c0 0.09375 0 0.35938 0.078125 0.54688zm2.125-2.7812c0.078125-0.015625 0.10938-0.03125 0.1875-0.03125 0.15625 0 0.375-0.015625 0.51562-0.03125 0.15625 0.23438 1.2344 2.0156 2.0625 2.8438h-0.96875z" style="stroke:none"/></g></g><g transform="translate(47.009 12.563)" style="fill:#000000"><g transform="translate(163.02 134.76)"><path d="m7.2031-2.5c0-1.8281-1.5-3.3125-3.3281-3.3125-1.8438 0-3.3281 1.5-3.3281 3.3125 0 1.8438 1.5 3.3281 3.3281 3.3281 1.8438 0 3.3281-1.5 3.3281-3.3281zm-6.4062-0.125c0.09375-1.6719 1.3906-2.8594 2.9531-2.9375v2.9375zm3.2031-2.9375c1.5625 0.078125 2.8438 1.2812 2.9531 2.9375h-2.9531zm-0.25 6.1406c-1.5469-0.078125-2.8594-1.25-2.9531-2.9531h2.9531zm3.2031-2.9531c-0.10938 1.7031-1.4219 2.875-2.9531 2.9531v-2.9531z" style="stroke:none"/></g></g><g transform="translate(37.218 26.461)" style="fill:#000000"><g transform="translate(172.99 134.76)"><path d="m2.6719-3.125h0.35938l1.5 2.3125c0.09375 0.15625 0.32812 0.54688 0.4375 0.6875 0.078125 0.125 0.10938 0.125 0.32812 0.125h1.375c0.1875 0 0.34375 0 0.34375-0.17188 0-0.09375-0.0625-0.15625-0.15625-0.17188-0.375-0.078125-0.85938-0.75-1.0938-1.0625-0.078125-0.09375-0.57812-0.75-1.2344-1.8281 0.875-0.17188 1.7344-0.54688 1.7344-1.7344 0-1.375-1.4531-1.8594-2.6406-1.8594h-3.125c-0.1875 0-0.34375 0-0.34375 0.17188s0.1875 0.17188 0.26562 0.17188c0.57812 0 0.625 0.078125 0.625 0.57812v4.9844c0 0.5-0.046875 0.57812-0.625 0.57812-0.078125 0-0.26562 0-0.26562 0.17188s0.15625 0.17188 0.34375 0.17188h2.7344c0.17188 0 0.32812 0 0.32812-0.17188s-0.17188-0.17188-0.28125-0.17188c-0.5625 0-0.60938-0.078125-0.60938-0.57812zm1.9219-0.5c0.28125-0.35938 0.3125-0.89062 0.3125-1.3281 0-0.48438-0.0625-1.0156-0.375-1.4219 0.40625 0.09375 1.3906 0.40625 1.3906 1.4062 0 0.65625-0.29688 1.1562-1.3281 1.3438zm-1.9219-2.3125c0-0.21875 0-0.54688 0.625-0.54688 0.84375 0 1.2656 0.35938 1.2656 1.5312 0 1.2812-0.3125 1.4688-1.8906 1.4688zm-1.3594 5.5938c0.078125-0.1875 0.078125-0.46875 0.078125-0.54688v-5.0469c0-0.09375 0-0.35938-0.078125-0.54688h1.1406c-0.125 0.17188-0.125 0.35938-0.125 0.51562v5.0781c0 0.09375 0 0.35938 0.078125 0.54688zm2.125-2.7812c0.078125-0.015625 0.10938-0.03125 0.1875-0.03125 0.15625 0 0.375-0.015625 0.51562-0.03125 0.15625 0.23438 1.2344 2.0156 2.0625 2.8438h-0.96875z" style="fill:#0095ff;stroke:none"/></g></g><g transform="translate(37.218 26.461)" style="fill:#000000"><g transform="translate(180.18 131.15)"><path d="m3-2.625c-0.17188 0.046875-0.29688 0.1875-0.29688 0.32812 0 0.17188 0.14062 0.23438 0.23438 0.23438 0.078125 0 0.34375-0.046875 0.34375-0.40625 0-0.45312-0.5-0.60938-0.9375-0.60938-1.0781 0-1.2812 0.8125-1.2812 1.0156 0 0.26562 0.15625 0.4375 0.25 0.51562 0.17188 0.14062 0.29688 0.17188 0.78125 0.25 0.15625 0.03125 0.59375 0.10938 0.59375 0.45312 0 0.125-0.078125 0.39062-0.35938 0.5625-0.28125 0.15625-0.625 0.15625-0.70312 0.15625-0.28125 0-0.67188-0.0625-0.84375-0.29688 0.23438-0.03125 0.39062-0.20312 0.39062-0.39062 0-0.17188-0.125-0.26562-0.26562-0.26562-0.20312 0-0.40625 0.17188-0.40625 0.46875 0 0.42188 0.4375 0.67188 1.1094 0.67188 1.2969 0 1.5312-0.875 1.5312-1.1406 0-0.64062-0.70312-0.76562-0.96875-0.8125-0.0625-0.015625-0.23438-0.046875-0.28125-0.0625-0.25-0.046875-0.375-0.1875-0.375-0.34375s0.125-0.34375 0.28125-0.45312c0.1875-0.10938 0.42188-0.125 0.54688-0.125 0.14062 0 0.5 0.015625 0.65625 0.25z" style="fill:#0095ff;stroke:none"/></g></g></g>
</g><g transform="translate(-23.228 -4.5001)" style="fill:#000000"><g transform="translate(148.71,134.76)"><path d="m1.9062-0.53125c0-0.28125-0.23438-0.53125-0.51562-0.53125-0.29688 0-0.53125 0.25-0.53125 0.53125 0 0.29688 0.23438 0.53125 0.53125 0.53125 0.28125 0 0.51562-0.23438 0.51562-0.53125z" style="stroke:none"/></g></g><g transform="translate(-23.228 -4.5001)" style="fill:#000000"><g transform="translate(153.14,134.76)"><path d="m1.9062-0.53125c0-0.28125-0.23438-0.53125-0.51562-0.53125-0.29688 0-0.53125 0.25-0.53125 0.53125 0 0.29688 0.23438 0.53125 0.53125 0.53125 0.28125 0 0.51562-0.23438 0.51562-0.53125z" style="stroke:none"/></g></g><g transform="translate(-23.228 -4.5001)" style="fill:#000000"><g transform="translate(157.56,134.76)"><path d="m1.9062-0.53125c0-0.28125-0.23438-0.53125-0.51562-0.53125-0.29688 0-0.53125 0.25-0.53125 0.53125 0 0.29688 0.23438 0.53125 0.53125 0.53125 0.28125 0 0.51562-0.23438 0.51562-0.53125z" style="stroke:none"/></g></g></g>
<g transform="matrix(1.0781 0 0 1.0781 -110.06 154.51)" ns2:alignment="middle center" ns2:inkscapeversion="1.0" ns2:jacobian_sqrt="0.501884" ns2:pdfconverter="inkscape" ns2:preamble="C:\\Users\\User\\AppData\\Roaming\\inkscape\\extensions\\textext\\default_packages.tex" ns2:scale="0.37641368532737063" ns2:texconverter="pdflatex" ns2:text="$London - is the capital of $" ns2:version="1.1.0"><defs>
    
  </defs>
  <g id="id-d511975c-1e14-4b41-8dcf-ed7173ee6bce" transform="translate(-149.1 -127.73)">
    <rect x="421.87" y="124.42" width="37.86" height="14.561" style="fill-opacity:.31811;fill:#a145ff;opacity:.999;stroke:none"/><rect x="244.02" y="125.39" width="13.491" height="14.561" style="fill-opacity:.31811;fill:#a145ff;opacity:.999;stroke:none"/><rect x="208.86" y="125.26" width="32.844" height="14.561" style="fill-opacity:.31811;fill:#a145ff;opacity:.999;stroke:none"/><rect x="187.66" y="125.26" width="19.205" height="14.561" style="fill-opacity:.31811;fill:#a145ff;opacity:.999;stroke:none"/><rect x="176.58" y="125.16" width="9.7124" height="14.561" style="fill-opacity:.31811;fill:#a145ff;opacity:.999;stroke:none"/><rect x="167.96" y="125.16" width="7.1846" height="14.561" style="fill-opacity:.31811;fill:#a145ff;opacity:.999;stroke:none"/><rect x="130.36" y="125.16" width="36.629" height="14.561" style="fill-opacity:.31811;fill:#a145ff;opacity:.999;stroke:none"/><g transform="translate(-16.881)" style="fill:#000000">
      <g transform="translate(148.71 134.76)"><path id="id-1bb18902-0e26-4f90-ad19-003f5cea1fbe" d="m3.7344-6.0312c0.078125-0.35938 0.10938-0.46875 1.0469-0.46875 0.29688 0 0.375 0 0.375-0.1875 0-0.125-0.10938-0.125-0.15625-0.125-0.32812 0-1.1406 0.03125-1.4688 0.03125-0.29688 0-1.0312-0.03125-1.3281-0.03125-0.0625 0-0.1875 0-0.1875 0.20312 0 0.10938 0.09375 0.10938 0.28125 0.10938 0.015625 0 0.20312 0 0.375 0.015625 0.17188 0.03125 0.26562 0.03125 0.26562 0.17188 0 0.03125 0 0.0625-0.03125 0.1875l-1.3438 5.3438c-0.09375 0.39062-0.10938 0.46875-0.90625 0.46875-0.17188 0-0.26562 0-0.26562 0.20312 0 0.10938 0.09375 0.10938 0.26562 0.10938h4.625c0.23438 0 0.23438 0 0.29688-0.17188l0.79688-2.1562c0.03125-0.10938 0.03125-0.125 0.03125-0.14062 0-0.03125-0.03125-0.10938-0.10938-0.10938-0.09375 0-0.10938 0.0625-0.17188 0.21875-0.34375 0.90625-0.78125 2.0469-2.5 2.0469h-0.9375-0.21875c-0.10938-0.015625-0.14062-0.03125-0.14062-0.10938 0-0.03125 0-0.046875 0.046875-0.21875z" style="stroke:none"/>
      </g><g transform="translate(155.49 134.76)"><path d="m4.6719-2.7188c0-1.0469-0.6875-1.6875-1.5938-1.6875-1.3281 0-2.6719 1.4219-2.6719 2.8281 0 0.98438 0.67188 1.6875 1.5938 1.6875 1.3281 0 2.6719-1.375 2.6719-2.8281zm-2.6562 2.6094c-0.4375 0-0.875-0.3125-0.875-1.0938 0-0.48438 0.26562-1.5625 0.57812-2.0625 0.5-0.76562 1.0781-0.92188 1.3594-0.92188 0.57812 0 0.875 0.48438 0.875 1.0781 0 0.39062-0.20312 1.4375-0.57812 2.0781-0.35938 0.57812-0.90625 0.92188-1.3594 0.92188z" style="stroke:none"/>
      </g><g transform="translate(160.32 134.76)"><path id="id-1ff72921-6ab1-40d1-898c-fc4774293bbf" d="m0.875-0.59375c-0.03125 0.15625-0.09375 0.39062-0.09375 0.4375 0 0.17188 0.14062 0.26562 0.29688 0.26562 0.125 0 0.29688-0.078125 0.375-0.28125 0-0.015625 0.125-0.48438 0.1875-0.73438l0.21875-0.89062c0.046875-0.23438 0.10938-0.45312 0.17188-0.67188 0.03125-0.17188 0.10938-0.46875 0.125-0.5 0.14062-0.3125 0.67188-1.2188 1.625-1.2188 0.45312 0 0.53125 0.375 0.53125 0.70312 0 0.60938-0.48438 1.8906-0.64062 2.3125-0.09375 0.23438-0.10938 0.35938-0.10938 0.46875 0 0.46875 0.35938 0.8125 0.82812 0.8125 0.9375 0 1.2969-1.4531 1.2969-1.5312 0-0.10938-0.078125-0.10938-0.10938-0.10938-0.10938 0-0.10938 0.03125-0.15625 0.1875-0.20312 0.67188-0.53125 1.2344-1.0156 1.2344-0.17188 0-0.23438-0.09375-0.23438-0.32812 0-0.25 0.078125-0.48438 0.17188-0.70312 0.1875-0.53125 0.60938-1.625 0.60938-2.2031 0-0.65625-0.42188-1.0625-1.1406-1.0625-0.90625 0-1.3906 0.64062-1.5625 0.875-0.046875-0.5625-0.45312-0.875-0.92188-0.875-0.45312 0-0.64062 0.39062-0.73438 0.5625-0.17188 0.34375-0.29688 0.9375-0.29688 0.96875 0 0.10938 0.09375 0.10938 0.10938 0.10938 0.10938 0 0.10938-0.015625 0.17188-0.23438 0.17188-0.70312 0.375-1.1875 0.73438-1.1875 0.1875 0 0.29688 0.125 0.29688 0.45312 0 0.21875-0.03125 0.32812-0.15625 0.84375z" style="stroke:none"/>
      </g><g transform="translate(166.3 134.76)"><path d="m5.1406-6.8125s0-0.10938-0.125-0.10938c-0.15625 0-1.0938 0.09375-1.2656 0.10938-0.078125 0.015625-0.14062 0.0625-0.14062 0.1875s0.09375 0.125 0.23438 0.125c0.48438 0 0.5 0.0625 0.5 0.17188l-0.03125 0.20312-0.59375 2.3594c-0.1875-0.375-0.46875-0.64062-0.92188-0.64062-1.1562 0-2.3906 1.4688-2.3906 2.9219 0 0.9375 0.54688 1.5938 1.3125 1.5938 0.20312 0 0.70312-0.046875 1.2969-0.75 0.078125 0.42188 0.4375 0.75 0.90625 0.75 0.35938 0 0.57812-0.23438 0.75-0.54688 0.15625-0.35938 0.29688-0.96875 0.29688-0.98438 0-0.10938-0.09375-0.10938-0.125-0.10938-0.09375 0-0.10938 0.046875-0.14062 0.1875-0.17188 0.64062-0.34375 1.2344-0.75 1.2344-0.28125 0-0.29688-0.26562-0.29688-0.45312 0-0.25 0.015625-0.3125 0.046875-0.48438zm-2.0625 5.625c-0.0625 0.1875-0.0625 0.20312-0.20312 0.375-0.4375 0.54688-0.84375 0.70312-1.125 0.70312-0.5 0-0.64062-0.54688-0.64062-0.9375 0-0.5 0.3125-1.7188 0.54688-2.1875 0.3125-0.57812 0.75-0.95312 1.1562-0.95312 0.64062 0 0.78125 0.8125 0.78125 0.875s-0.015625 0.125-0.03125 0.17188z" style="stroke:none"/>
      </g><g transform="translate(171.49 134.76)"><path d="m4.6719-2.7188c0-1.0469-0.6875-1.6875-1.5938-1.6875-1.3281 0-2.6719 1.4219-2.6719 2.8281 0 0.98438 0.67188 1.6875 1.5938 1.6875 1.3281 0 2.6719-1.375 2.6719-2.8281zm-2.6562 2.6094c-0.4375 0-0.875-0.3125-0.875-1.0938 0-0.48438 0.26562-1.5625 0.57812-2.0625 0.5-0.76562 1.0781-0.92188 1.3594-0.92188 0.57812 0 0.875 0.48438 0.875 1.0781 0 0.39062-0.20312 1.4375-0.57812 2.0781-0.35938 0.57812-0.90625 0.92188-1.3594 0.92188z" style="stroke:none"/>
      </g><g transform="translate(176.32 134.76)"><path id="id-43c57f6d-f64f-46a9-97d6-d20fcfffe49e" d="m0.875-0.59375c-0.03125 0.15625-0.09375 0.39062-0.09375 0.4375 0 0.17188 0.14062 0.26562 0.29688 0.26562 0.125 0 0.29688-0.078125 0.375-0.28125 0-0.015625 0.125-0.48438 0.1875-0.73438l0.21875-0.89062c0.046875-0.23438 0.10938-0.45312 0.17188-0.67188 0.03125-0.17188 0.10938-0.46875 0.125-0.5 0.14062-0.3125 0.67188-1.2188 1.625-1.2188 0.45312 0 0.53125 0.375 0.53125 0.70312 0 0.60938-0.48438 1.8906-0.64062 2.3125-0.09375 0.23438-0.10938 0.35938-0.10938 0.46875 0 0.46875 0.35938 0.8125 0.82812 0.8125 0.9375 0 1.2969-1.4531 1.2969-1.5312 0-0.10938-0.078125-0.10938-0.10938-0.10938-0.10938 0-0.10938 0.03125-0.15625 0.1875-0.20312 0.67188-0.53125 1.2344-1.0156 1.2344-0.17188 0-0.23438-0.09375-0.23438-0.32812 0-0.25 0.078125-0.48438 0.17188-0.70312 0.1875-0.53125 0.60938-1.625 0.60938-2.2031 0-0.65625-0.42188-1.0625-1.1406-1.0625-0.90625 0-1.3906 0.64062-1.5625 0.875-0.046875-0.5625-0.45312-0.875-0.92188-0.875-0.45312 0-0.64062 0.39062-0.73438 0.5625-0.17188 0.34375-0.29688 0.9375-0.29688 0.96875 0 0.10938 0.09375 0.10938 0.10938 0.10938 0.10938 0 0.10938-0.015625 0.17188-0.23438 0.17188-0.70312 0.375-1.1875 0.73438-1.1875 0.1875 0 0.29688 0.125 0.29688 0.45312 0 0.21875-0.03125 0.32812-0.15625 0.84375z" style="stroke:none"/>
      </g></g>
    <g id="id-d740ce72-5175-444e-af70-64f5ae8eca9a" transform="translate(-16.881)" style="fill:#000000">
      <g transform="translate(184.51 134.76)"><path d="m6.5625-2.2969c0.17188 0 0.35938 0 0.35938-0.20312 0-0.1875-0.1875-0.1875-0.35938-0.1875h-5.3906c-0.17188 0-0.34375 0-0.34375 0.1875 0 0.20312 0.17188 0.20312 0.34375 0.20312z" style="stroke:none"/>
      </g></g>
    <g transform="translate(-16.881)" style="fill:#000000">
      <g transform="translate(194.47 134.76)"><path id="id-83f3e3ca-04a5-4118-9b38-f9863e65df9a" d="m2.8281-6.2344c0-0.20312-0.14062-0.35938-0.35938-0.35938-0.28125 0-0.54688 0.26562-0.54688 0.53125 0 0.1875 0.14062 0.35938 0.375 0.35938s0.53125-0.23438 0.53125-0.53125zm-0.75 3.75c0.10938-0.28125 0.10938-0.3125 0.21875-0.57812 0.078125-0.20312 0.125-0.34375 0.125-0.53125 0-0.4375-0.3125-0.8125-0.8125-0.8125-0.9375 0-1.3125 1.4531-1.3125 1.5312 0 0.10938 0.09375 0.10938 0.10938 0.10938 0.10938 0 0.10938-0.03125 0.15625-0.1875 0.28125-0.9375 0.67188-1.2344 1.0156-1.2344 0.078125 0 0.25 0 0.25 0.3125 0 0.21875-0.078125 0.42188-0.10938 0.53125-0.078125 0.25-0.53125 1.4062-0.6875 1.8438-0.10938 0.25-0.23438 0.57812-0.23438 0.79688 0 0.46875 0.34375 0.8125 0.8125 0.8125 0.9375 0 1.3125-1.4375 1.3125-1.5312 0-0.10938-0.09375-0.10938-0.125-0.10938-0.09375 0-0.09375 0.03125-0.14062 0.1875-0.1875 0.625-0.51562 1.2344-1.0156 1.2344-0.17188 0-0.25-0.09375-0.25-0.32812 0-0.25 0.0625-0.39062 0.29688-1z" style="stroke:none"/>
      </g><g transform="translate(197.9 134.76)"><path d="m3.8906-3.7344c-0.26562 0.015625-0.46875 0.23438-0.46875 0.45312 0 0.14062 0.09375 0.29688 0.3125 0.29688s0.45312-0.17188 0.45312-0.5625c0-0.45312-0.42188-0.85938-1.1875-0.85938-1.3125 0-1.6875 1.0156-1.6875 1.4531 0 0.78125 0.73438 0.92188 1.0312 0.98438 0.51562 0.10938 1.0312 0.21875 1.0312 0.76562 0 0.25-0.21875 1.0938-1.4219 1.0938-0.14062 0-0.90625 0-1.1406-0.53125 0.39062 0.046875 0.64062-0.25 0.64062-0.53125 0-0.21875-0.17188-0.34375-0.375-0.34375-0.26562 0-0.5625 0.20312-0.5625 0.65625 0 0.5625 0.57812 0.96875 1.4219 0.96875 1.625 0 2.0156-1.2031 2.0156-1.6562 0-0.35938-0.1875-0.60938-0.3125-0.71875-0.26562-0.28125-0.5625-0.34375-1-0.42188-0.35938-0.078125-0.75-0.15625-0.75-0.60938 0-0.28125 0.23438-0.89062 1.1094-0.89062 0.25 0 0.75 0.078125 0.89062 0.45312z" style="stroke:none"/>
      </g><g transform="translate(210.35 134.76)"><path d="m-0.54328-3.9844h0.9375c0.20312 0 0.3125 0 0.3125-0.20312 0-0.10938-0.10938-0.10938-0.28125-0.10938h-0.875c0.35938-1.4219 0.40625-1.6094 0.40625-1.6719 0-0.17188-0.125-0.26562-0.29688-0.26562-0.03125 0-0.3125 0-0.39062 0.35938l-0.39063 1.5781h-0.9375c-0.20312 0-0.29688 0-0.29688 0.1875 0 0.125 0.078125 0.125 0.28125 0.125h0.875c-0.71875 2.8281-0.76562 3-0.76562 3.1719 0 0.54688 0.375 0.92188 0.92188 0.92188 1.0156 0 1.5781-1.4531 1.5781-1.5312 0-0.10938-0.078125-0.10938-0.10938-0.10938-0.09375 0-0.10938 0.03125-0.15625 0.14062-0.42188 1.0469-0.95312 1.2812-1.2969 1.2812-0.20312 0-0.3125-0.125-0.3125-0.45312 0-0.25 0.03125-0.3125 0.0625-0.48438z" style="stroke:none"/>
      </g><g transform="translate(213.94 134.76)"><path d="m0.26922-6.8125s0-0.10938-0.125-0.10938c-0.23438 0-0.95312 0.078125-1.2188 0.10938-0.078125 0-0.1875 0.015625-0.1875 0.1875 0 0.125 0.09375 0.125 0.23438 0.125 0.48438 0 0.5 0.0625 0.5 0.17188l-0.03125 0.20312-1.4375 5.7344c-0.046875 0.14062-0.046875 0.15625-0.046875 0.21875 0 0.23438 0.20312 0.28125 0.29688 0.28125 0.15625 0 0.3125-0.125 0.35938-0.26562l0.1875-0.75 0.21875-0.89062c0.0625-0.23438 0.125-0.45312 0.17188-0.67188 0.015625-0.0625 0.10938-0.39062 0.10938-0.45312 0.03125-0.09375 0.34375-0.64062 0.6875-0.92188 0.21875-0.15625 0.51562-0.34375 0.95312-0.34375 0.42187 0 0.53125 0.34375 0.53125 0.70312 0 0.53125-0.375 1.625-0.60937 2.2344-0.078125 0.21875-0.14062 0.34375-0.14062 0.54688 0 0.46875 0.35937 0.8125 0.82812 0.8125 0.9375 0 1.2969-1.4531 1.2969-1.5312 0-0.10938-0.078125-0.10938-0.10938-0.10938-0.10938 0-0.10938 0.03125-0.15625 0.1875-0.14062 0.53125-0.46875 1.2344-1.0156 1.2344-0.17188 0-0.23438-0.09375-0.23438-0.32812 0-0.25 0.078125-0.48438 0.17188-0.70312 0.15625-0.4375 0.60938-1.625 0.60938-2.2031 0-0.64062-0.39062-1.0625-1.1406-1.0625-0.625 0-1.1094 0.3125-1.4844 0.76562z" style="stroke:none"/>
      </g><g transform="translate(219.68 134.76)"><path d="m-0.73078-2.2969c0.29688 0 1.0312-0.03125 1.5312-0.23438 0.70312-0.29688 0.75-0.89062 0.75-1.0312 0-0.4375-0.375-0.84375-1.0625-0.84375-1.1094 0-2.625 0.96875-2.625 2.7188 0 1.0156 0.59375 1.7969 1.5781 1.7969 1.4219 0 2.25-1.0625 2.25-1.1719 0-0.0625-0.046875-0.14062-0.10938-0.14062s-0.078125 0.03125-0.14062 0.10938c-0.78125 0.98438-1.875 0.98438-1.9844 0.98438-0.78125 0-0.875-0.84375-0.875-1.1562 0-0.125 0.015625-0.42188 0.15625-1.0312zm-0.46875-0.21875c0.39063-1.5156 1.4219-1.6719 1.6875-1.6719 0.45312 0 0.73437 0.29688 0.73437 0.625 0 1.0469-1.5937 1.0469-2.0156 1.0469z" style="stroke:none"/>
      </g><g transform="translate(229.5 134.76)"><path d="m1.363-3.7812c-0.17188 0-0.29688 0-0.4375 0.125-0.17188 0.15625-0.1875 0.32812-0.1875 0.39062 0 0.25 0.1875 0.35938 0.375 0.35938 0.28125 0 0.54688-0.25 0.54688-0.64062 0-0.48438-0.46875-0.85938-1.1719-0.85938-1.3438 0-2.6719 1.4219-2.6719 2.8281 0 0.90625 0.57812 1.6875 1.625 1.6875 1.4219 0 2.25-1.0625 2.25-1.1719 0-0.0625-0.046875-0.14062-0.10938-0.14062s-0.078125 0.03125-0.14062 0.10938c-0.78125 0.98438-1.875 0.98438-1.9844 0.98438-0.625 0-0.90625-0.48438-0.90625-1.0938 0-0.40625 0.20312-1.375 0.54687-1.9844 0.3125-0.57812 0.85938-1 1.4062-1 0.32812 0 0.71875 0.125 0.85938 0.40625z" style="stroke:none"/>
      </g><g transform="translate(233.81 134.76)"><path d="m1.1286-3.7656c-0.1875-0.375-0.46875-0.64062-0.92188-0.64062-1.1562 0-2.3906 1.4688-2.3906 2.9219 0 0.9375 0.54688 1.5938 1.3125 1.5938 0.20312 0 0.70312-0.046875 1.2969-0.75 0.078125 0.42188 0.4375 0.75 0.90625 0.75 0.35938 0 0.57812-0.23438 0.75-0.54688 0.15625-0.35938 0.29688-0.96875 0.29688-0.98438 0-0.10938-0.09375-0.10938-0.125-0.10938-0.09375 0-0.10938 0.046875-0.14062 0.1875-0.17188 0.64062-0.34375 1.2344-0.75 1.2344-0.28125 0-0.29688-0.26562-0.29688-0.45312 0-0.21875 0.015625-0.3125 0.125-0.75 0.10938-0.40625 0.125-0.51562 0.21875-0.89062l0.35938-1.3906c0.0625-0.28125 0.0625-0.29688 0.0625-0.34375 0-0.17188-0.10938-0.26562-0.28125-0.26562-0.25 0-0.39062 0.21875-0.42188 0.4375zm-0.64063 2.5781c-0.0625 0.1875-0.0625 0.20312-0.20312 0.375-0.4375 0.54688-0.84375 0.70312-1.125 0.70312-0.5 0-0.64062-0.54688-0.64062-0.9375 0-0.5 0.3125-1.7188 0.54687-2.1875 0.3125-0.57812 0.75-0.95312 1.1562-0.95312 0.64062 0 0.78125 0.8125 0.78125 0.875s-0.015625 0.125-0.03125 0.17188z" style="stroke:none"/>
      </g><g transform="translate(239.08 134.76)"><path d="m-2.137 1.2188c-0.078125 0.34375-0.10938 0.40625-0.54688 0.40625-0.10938 0-0.21875 0-0.21875 0.1875 0 0.078125 0.046875 0.125 0.125 0.125 0.26562 0 0.5625-0.03125 0.82812-0.03125 0.34375 0 0.67188 0.03125 1 0.03125 0.046875 0 0.17188 0 0.17188-0.20312 0-0.10938-0.09375-0.10938-0.23437-0.10938-0.5 0-0.5-0.0625-0.5-0.15625 0-0.125 0.42188-1.75 0.48438-2 0.125 0.29688 0.40625 0.64062 0.92187 0.64062 1.1563 0 2.4063-1.4531 2.4063-2.9219 0-0.9375-0.57812-1.5938-1.3281-1.5938-0.5 0-0.98438 0.35938-1.3125 0.75-0.09375-0.54688-0.53125-0.75-0.89062-0.75-0.46875 0-0.65625 0.39062-0.73438 0.5625-0.1875 0.34375-0.3125 0.9375-0.3125 0.96875 0 0.10938 0.09375 0.10938 0.10938 0.10938 0.10938 0 0.10938-0.015625 0.17188-0.23438 0.17188-0.70312 0.375-1.1875 0.73438-1.1875 0.17188 0 0.3125 0.078125 0.3125 0.45312 0 0.23438-0.03125 0.34375-0.078125 0.51562zm1.75-4.3281c0.0625-0.26562 0.34375-0.54688 0.51562-0.70312 0.35938-0.29688 0.64062-0.375 0.8125-0.375 0.39063 0 0.64063 0.34375 0.64063 0.9375s-0.32812 1.7344-0.51562 2.1094c-0.34375 0.70312-0.8125 1.0312-1.1875 1.0312-0.65625 0-0.78125-0.82812-0.78125-0.89062 0-0.015625 0-0.03125 0.03125-0.15625z" style="stroke:none"/>
      </g><g transform="translate(244.09 134.76)"><path d="m0.23797-6.2344c0-0.20312-0.14062-0.35938-0.35938-0.35938-0.28125 0-0.54688 0.26562-0.54688 0.53125 0 0.1875 0.14062 0.35938 0.375 0.35938s0.53125-0.23438 0.53125-0.53125zm-0.75 3.75c0.10938-0.28125 0.10938-0.3125 0.21875-0.57812 0.078125-0.20312 0.125-0.34375 0.125-0.53125 0-0.4375-0.3125-0.8125-0.8125-0.8125-0.9375 0-1.3125 1.4531-1.3125 1.5312 0 0.10938 0.09375 0.10938 0.10938 0.10938 0.10938 0 0.10938-0.03125 0.15625-0.1875 0.28125-0.9375 0.67188-1.2344 1.0156-1.2344 0.078125 0 0.25 0 0.25 0.3125 0 0.21875-0.078125 0.42188-0.10938 0.53125-0.078125 0.25-0.53125 1.4062-0.6875 1.8438-0.10938 0.25-0.23438 0.57812-0.23438 0.79688 0 0.46875 0.34375 0.8125 0.8125 0.8125 0.9375 0 1.3125-1.4375 1.3125-1.5312 0-0.10938-0.09375-0.10938-0.125-0.10938-0.09375 0-0.09375 0.03125-0.14062 0.1875-0.1875 0.625-0.51562 1.2344-1.0156 1.2344-0.17187 0-0.25-0.09375-0.25-0.32812 0-0.25 0.0625-0.39062 0.29687-1z" style="stroke:none"/>
      </g><g transform="translate(247.52 134.76)"><path d="m-0.54328-3.9844h0.9375c0.20312 0 0.3125 0 0.3125-0.20312 0-0.10938-0.10938-0.10938-0.28125-0.10938h-0.875c0.35938-1.4219 0.40625-1.6094 0.40625-1.6719 0-0.17188-0.125-0.26562-0.29688-0.26562-0.03125 0-0.3125 0-0.39062 0.35938l-0.39062 1.5781h-0.9375c-0.20312 0-0.29688 0-0.29688 0.1875 0 0.125 0.078125 0.125 0.28125 0.125h0.875c-0.71875 2.8281-0.76562 3-0.76562 3.1719 0 0.54688 0.375 0.92188 0.92188 0.92188 1.0156 0 1.5781-1.4531 1.5781-1.5312 0-0.10938-0.078125-0.10938-0.10938-0.10938-0.09375 0-0.10938 0.03125-0.15625 0.14062-0.42188 1.0469-0.95312 1.2812-1.2969 1.2812-0.20312 0-0.3125-0.125-0.3125-0.45312 0-0.25 0.03125-0.3125 0.0625-0.48438z" style="stroke:none"/>
      </g><g transform="translate(251.12 134.76)"><path d="m1.1286-3.7656c-0.1875-0.375-0.46875-0.64062-0.92188-0.64062-1.1562 0-2.3906 1.4688-2.3906 2.9219 0 0.9375 0.54688 1.5938 1.3125 1.5938 0.20312 0 0.70312-0.046875 1.2969-0.75 0.078125 0.42188 0.4375 0.75 0.90625 0.75 0.35938 0 0.57812-0.23438 0.75-0.54688 0.15625-0.35938 0.29688-0.96875 0.29688-0.98438 0-0.10938-0.09375-0.10938-0.125-0.10938-0.09375 0-0.10938 0.046875-0.14062 0.1875-0.17188 0.64062-0.34375 1.2344-0.75 1.2344-0.28125 0-0.29688-0.26562-0.29688-0.45312 0-0.21875 0.015625-0.3125 0.125-0.75 0.10938-0.40625 0.125-0.51562 0.21875-0.89062l0.35938-1.3906c0.0625-0.28125 0.0625-0.29688 0.0625-0.34375 0-0.17188-0.10938-0.26562-0.28125-0.26562-0.25 0-0.39062 0.21875-0.42188 0.4375zm-0.64063 2.5781c-0.0625 0.1875-0.0625 0.20312-0.20312 0.375-0.4375 0.54688-0.84375 0.70312-1.125 0.70312-0.5 0-0.64062-0.54688-0.64062-0.9375 0-0.5 0.3125-1.7188 0.54687-2.1875 0.3125-0.57812 0.75-0.95312 1.1562-0.95312 0.64062 0 0.78125 0.8125 0.78125 0.875s-0.015625 0.125-0.03125 0.17188z" style="stroke:none"/>
      </g><g transform="translate(256.39 134.76)"><path d="m-0.012026-6.8125s0-0.10938-0.14062-0.10938c-0.21875 0-0.95312 0.078125-1.2187 0.10938-0.078125 0-0.1875 0.015625-0.1875 0.20312 0 0.10938 0.10938 0.10938 0.25 0.10938 0.48437 0 0.5 0.09375 0.5 0.17188l-0.03125 0.20312-1.2656 4.9844c-0.03125 0.10938-0.046875 0.17188-0.046875 0.32812 0 0.57812 0.4375 0.92188 0.90625 0.92188 0.32812 0 0.57812-0.20312 0.75-0.5625 0.17188-0.375 0.29688-0.95312 0.29688-0.96875 0-0.10938-0.09375-0.10938-0.125-0.10938-0.09375 0-0.10938 0.046875-0.125 0.1875-0.17188 0.64062-0.35938 1.2344-0.76562 1.2344-0.29688 0-0.29688-0.3125-0.29688-0.45312 0-0.25 0.015625-0.29688 0.0625-0.48438z" style="stroke:none"/>
      </g></g>
    <g id="id-9821d7a0-dff3-4a36-b33e-2bc03808c6ad" transform="translate(-1.3405)" style="fill:#000000">
      <g transform="translate(246.61 134.76)"><path d="m4.6719-2.7188c0-1.0469-0.6875-1.6875-1.5938-1.6875-1.3281 0-2.6719 1.4219-2.6719 2.8281 0 0.98438 0.67188 1.6875 1.5938 1.6875 1.3281 0 2.6719-1.375 2.6719-2.8281zm-2.6562 2.6094c-0.4375 0-0.875-0.3125-0.875-1.0938 0-0.48438 0.26562-1.5625 0.57812-2.0625 0.5-0.76562 1.0781-0.92188 1.3594-0.92188 0.57812 0 0.875 0.48438 0.875 1.0781 0 0.39062-0.20312 1.4375-0.57812 2.0781-0.35938 0.57812-0.90625 0.92188-1.3594 0.92188z" style="stroke:none"/>
      </g><g transform="translate(251.44 134.76)"><path d="m3.6562-3.9844h0.85938c0.20312 0 0.29688 0 0.29688-0.20312 0-0.10938-0.09375-0.10938-0.26562-0.10938h-0.82812l0.20312-1.1406c0.046875-0.20312 0.1875-0.90625 0.25-1.0312 0.078125-0.1875 0.25-0.34375 0.46875-0.34375 0.03125 0 0.29688 0 0.48438 0.1875-0.4375 0.03125-0.54688 0.39062-0.54688 0.53125 0 0.23438 0.1875 0.35938 0.375 0.35938 0.26562 0 0.54688-0.23438 0.54688-0.60938 0-0.45312-0.45312-0.6875-0.85938-0.6875-0.34375 0-0.96875 0.1875-1.2656 1.1719-0.0625 0.20312-0.09375 0.3125-0.32812 1.5625h-0.6875c-0.20312 0-0.3125 0-0.3125 0.1875 0 0.125 0.09375 0.125 0.28125 0.125h0.65625l-0.73438 3.9375c-0.1875 0.96875-0.35938 1.875-0.875 1.875-0.046875 0-0.28125 0-0.48438-0.1875 0.46875-0.03125 0.5625-0.39062 0.5625-0.53125 0-0.23438-0.1875-0.35938-0.375-0.35938-0.26562 0-0.54688 0.23438-0.54688 0.60938 0 0.4375 0.4375 0.6875 0.84375 0.6875 0.54688 0 0.95312-0.59375 1.125-0.96875 0.32812-0.625 0.54688-1.8281 0.5625-1.9062z" style="stroke:none"/>
      </g></g>
  </g>
</g><path d="m144.38 203.47v11.471h-88.158l-0.09251-10.361" style="fill:none;marker-end:url(#marker34242);stroke-miterlimit:10.433;stroke-width:.64998;stroke:#0099ff"/><rect x="-109.32" y="175.8" width="14.657" height="14.657" style="fill-opacity:.15824;fill:#000000;opacity:.999;stroke-linecap:round;stroke-miterlimit:10.433;stroke-opacity:.92496;stroke-width:.46834;stroke:#626262"/><rect x="-94.662" y="175.8" width="14.657" height="14.657" style="fill-opacity:.15824;fill:#000000;opacity:.999;stroke-linecap:round;stroke-miterlimit:10.433;stroke-opacity:.92496;stroke-width:.46834;stroke:#626262"/><rect x="-80.005" y="175.8" width="14.657" height="14.657" style="fill-opacity:.15824;fill:#000000;opacity:.999;stroke-linecap:round;stroke-miterlimit:10.433;stroke-opacity:.92496;stroke-width:.46834;stroke:#626262"/><rect x="-65.348" y="175.8" width="14.657" height="14.657" style="fill:none;opacity:.999;stroke-linecap:round;stroke-miterlimit:10.433;stroke-opacity:.92496;stroke-width:.46834;stroke:#626262"/><rect x="-50.691" y="175.8" width="14.657" height="14.657" style="fill-opacity:.15824;fill:#000000;opacity:.999;stroke-linecap:round;stroke-miterlimit:10.433;stroke-opacity:.92496;stroke-width:.46834;stroke:#626262"/><rect x="198.57" y="175.87" width="14.657" height="14.657" style="fill-opacity:.15824;fill:#000000;opacity:.999;stroke-linecap:round;stroke-miterlimit:10.433;stroke-opacity:.92496;stroke-width:.46834;stroke:#626262"/><g transform="translate(-212.4 49.051)" style="fill:#000000"><g transform="translate(148.71,134.76)"><path d="m1.9062-0.53125c0-0.28125-0.23438-0.53125-0.51562-0.53125-0.29688 0-0.53125 0.25-0.53125 0.53125 0 0.29688 0.23438 0.53125 0.53125 0.53125 0.28125 0 0.51562-0.23438 0.51562-0.53125z" style="stroke:none"/></g></g><g transform="translate(-212.4 49.051)" style="fill:#000000"><g transform="translate(153.14,134.76)"><path id="id-587a1d5d-d6b6-4a2b-8eb4-1657d5f9ca3c" d="m1.9062-0.53125c0-0.28125-0.23438-0.53125-0.51562-0.53125-0.29688 0-0.53125 0.25-0.53125 0.53125 0 0.29688 0.23438 0.53125 0.53125 0.53125 0.28125 0 0.51562-0.23438 0.51562-0.53125z" style="stroke:none"/></g></g><g transform="translate(-212.4 49.051)" style="fill:#000000"><g transform="translate(157.56,134.76)"><path d="m1.9062-0.53125c0-0.28125-0.23438-0.53125-0.51562-0.53125-0.29688 0-0.53125 0.25-0.53125 0.53125 0 0.29688 0.23438 0.53125 0.53125 0.53125 0.28125 0 0.51562-0.23438 0.51562-0.53125z" style="stroke:none"/></g></g><text x="-105.84183" y="185.46289" style="font-family:'Courier New';font-size:6.6817px;font-weight:bold;letter-spacing:0px;line-height:1.25;stroke-width:1.5014;word-spacing:0px" xml:space="preserve"><tspan x="-105.84183" y="185.46289" style="stroke-width:1.5014;stroke:none">50</tspan></text><text x="-91.012787" y="185.51677" style="font-family:'Courier New';font-size:6.6817px;font-weight:bold;letter-spacing:0px;line-height:1.25;stroke-width:1.5014;word-spacing:0px" xml:space="preserve"><tspan x="-91.012787" y="185.51677" style="stroke-width:1.5014;stroke:none">73</tspan></text><text x="-76.934425" y="185.60931" style="font-family:'Courier New';font-size:6.6817px;font-weight:bold;letter-spacing:0px;line-height:1.25;stroke-width:1.5014;word-spacing:0px" xml:space="preserve"><tspan x="-76.934425" y="185.60931" style="stroke-width:1.5014;stroke:none">97</tspan></text><text x="-45.031567" y="185.52817" style="font-family:'Courier New';font-size:6.6817px;font-weight:bold;letter-spacing:0px;line-height:1.25;stroke-width:1.5014;word-spacing:0px" xml:space="preserve"><tspan x="-45.031567" y="185.52817" style="stroke-width:1.5014;stroke:none">7</tspan></text><text x="200.05673" y="185.51151" style="font-family:'Courier New';font-size:6.6817px;font-weight:bold;letter-spacing:0px;line-height:1.25;stroke-width:1.5014;word-spacing:0px" xml:space="preserve"><tspan x="200.05673" y="185.51151" style="stroke-width:1.5014;stroke:none">112</tspan></text></g><g transform="matrix(.77741 0 0 -.77741 283.6 681.29)" ns2:alignment="middle center" ns2:inkscapeversion="1.0" ns2:jacobian_sqrt="3.77952" ns2:pdfconverter="inkscape" ns2:preamble="C:\\Users\\User\\AppData\\Roaming\\inkscape\\extensions\\textext\\default_packages.tex" ns2:scale="2.834645669291339" ns2:texconverter="pdflatex" ns2:text="$\\simeq$" ns2:version="1.1.0">
  <g id="id-a890b353-df6e-4972-9fc1-67bc15cf707e" transform="translate(-149.26,-130.14)">
    <g style="fill:#000000">
      <g transform="translate(148.71,134.76)"><path id="id-a27a8448-01a0-48f4-ab74-8cef6494b6bf" d="m7.2031-4.3125c0-0.21875-0.078125-0.29688-0.14062-0.29688-0.046875 0-0.14062 0.03125-0.14062 0.26562-0.046875 0.82812-0.73438 1.2969-1.3906 1.2969-0.59375 0-1.0781-0.35938-1.5938-0.75-0.53125-0.42188-1.0625-0.82812-1.7188-0.82812-0.98438 0-1.6719 0.875-1.6719 1.8125 0 0.29688 0.125 0.3125 0.14062 0.3125 0.10938 0 0.14062-0.20312 0.14062-0.23438 0.046875-0.96875 0.84375-1.3281 1.3906-1.3281 0.59375 0 1.0781 0.34375 1.5938 0.75 0.53125 0.40625 1.0469 0.8125 1.7188 0.8125 0.98438 0 1.6719-0.875 1.6719-1.8125zm-6.2969 3.5625c-0.15625 0-0.35938 0-0.35938 0.1875 0 0.20312 0.1875 0.20312 0.34375 0.20312h5.9531c0.17188 0 0.35938 0 0.35938-0.20312 0-0.1875-0.1875-0.1875-0.35938-0.1875z" style="stroke:none"/>
      </g></g>
  </g>
</g><text transform="scale(1,-1)" x="258.13281" y="-670.99628" style="font-family:'Courier New';font-size:13.048px;font-weight:bold;letter-spacing:0px;line-height:1.25;stroke-width:2.932;word-spacing:0px" xml:space="preserve"><tspan x="258.13281" y="-670.99628" style="stroke-width:2.932"/></text><g transform="matrix(.77741 0 0 -.77741 349.49 681.29)" ns2:alignment="middle center" ns2:inkscapeversion="1.0" ns2:jacobian_sqrt="3.77952" ns2:pdfconverter="inkscape" ns2:preamble="C:\\Users\\User\\AppData\\Roaming\\inkscape\\extensions\\textext\\default_packages.tex" ns2:scale="2.834645669291339" ns2:texconverter="pdflatex" ns2:text="$\\simeq$" ns2:version="1.1.0"><g transform="translate(-149.26,-130.14)"><g style="fill:#000000"><g transform="translate(148.71,134.76)"><path d="m7.2031-4.3125c0-0.21875-0.078125-0.29688-0.14062-0.29688-0.046875 0-0.14062 0.03125-0.14062 0.26562-0.046875 0.82812-0.73438 1.2969-1.3906 1.2969-0.59375 0-1.0781-0.35938-1.5938-0.75-0.53125-0.42188-1.0625-0.82812-1.7188-0.82812-0.98438 0-1.6719 0.875-1.6719 1.8125 0 0.29688 0.125 0.3125 0.14062 0.3125 0.10938 0 0.14062-0.20312 0.14062-0.23438 0.046875-0.96875 0.84375-1.3281 1.3906-1.3281 0.59375 0 1.0781 0.34375 1.5938 0.75 0.53125 0.40625 1.0469 0.8125 1.7188 0.8125 0.98438 0 1.6719-0.875 1.6719-1.8125zm-6.2969 3.5625c-0.15625 0-0.35938 0-0.35938 0.1875 0 0.20312 0.1875 0.20312 0.34375 0.20312h5.9531c0.17188 0 0.35938 0 0.35938-0.20312 0-0.1875-0.1875-0.1875-0.35938-0.1875z" style="stroke:none"/></g></g></g></g><g transform="matrix(.59565 0 0 -.59565 361.38 682.01)" ns2:alignment="middle center" ns2:inkscapeversion="1.0" ns2:jacobian_sqrt="0.50188" ns2:pdfconverter="inkscape" ns2:preamble="C:\\Users\\User\\AppData\\Roaming\\inkscape\\extensions\\textext\\default_packages.tex" ns2:scale="0.37641075282150566" ns2:texconverter="pdflatex" ns2:text="$Great$" ns2:version="1.1.0"><defs>
    
  </defs>
  <g transform="translate(-149.21 -127.73)">
    <g style="fill:#000000">
      <g transform="translate(148.71 134.76)"><path id="id-fce0da94-3f8e-48e8-bf90-2b82268e8e6f" d="m7.5781-6.9219c0-0.03125-0.015625-0.10938-0.10938-0.10938-0.03125 0-0.046875 0.015625-0.15625 0.125l-0.6875 0.76562c-0.09375-0.14062-0.54688-0.89062-1.6562-0.89062-2.2344 0-4.4688 2.2031-4.4688 4.5156 0 1.5938 1.1094 2.7344 2.7188 2.7344 0.4375 0 0.89062-0.09375 1.25-0.23438 0.5-0.20312 0.6875-0.40625 0.85938-0.60938 0.09375 0.25 0.35938 0.60938 0.45312 0.60938 0.046875 0 0.078125-0.03125 0.078125-0.03125 0.015625-0.015625 0.10938-0.40625 0.15625-0.60938l0.1875-0.76562 0.14062-0.51562c0.10938-0.4375 0.10938-0.46875 0.6875-0.46875 0.046875 0 0.15625-0.015625 0.15625-0.20312 0-0.078125-0.046875-0.10938-0.125-0.10938-0.23438 0-0.82812 0.03125-1.0469 0.03125-0.3125 0-1.0938-0.03125-1.4062-0.03125-0.078125 0-0.20312 0-0.20312 0.20312 0 0.10938 0.078125 0.10938 0.29688 0.10938 0.015625 0 0.29688 0 0.53125 0.015625 0.26562 0.03125 0.3125 0.0625 0.3125 0.1875 0 0.09375-0.10938 0.53125-0.21875 0.90625-0.28125 1.0938-1.5625 1.2031-1.9219 1.2031-0.95312 0-2-0.5625-2-2.0938 0-0.3125 0.09375-1.9531 1.1406-3.25 0.54688-0.67188 1.5156-1.2812 2.5-1.2812 1.0156 0 1.6094 0.76562 1.6094 1.9219 0 0.40625-0.03125 0.40625-0.03125 0.51562 0 0.09375 0.10938 0.09375 0.14062 0.09375 0.125 0 0.125-0.015625 0.1875-0.20312z" style="stroke:none"/>
      </g><g transform="translate(156.55 134.76)"><path d="m0.875-0.59375c-0.03125 0.15625-0.09375 0.39062-0.09375 0.4375 0 0.17188 0.14062 0.26562 0.29688 0.26562 0.125 0 0.29688-0.078125 0.375-0.28125 0.015625-0.03125 0.34375-1.3906 0.39062-1.5781 0.078125-0.32812 0.26562-1.0156 0.3125-1.2969 0.046875-0.125 0.32812-0.59375 0.5625-0.8125 0.078125-0.0625 0.375-0.32812 0.79688-0.32812 0.26562 0 0.40625 0.125 0.42188 0.125-0.29688 0.046875-0.51562 0.28125-0.51562 0.54688 0 0.15625 0.10938 0.34375 0.375 0.34375s0.54688-0.23438 0.54688-0.59375c0-0.34375-0.3125-0.64062-0.82812-0.64062-0.64062 0-1.0781 0.48438-1.2656 0.76562-0.09375-0.45312-0.45312-0.76562-0.92188-0.76562-0.45312 0-0.64062 0.39062-0.73438 0.5625-0.17188 0.34375-0.29688 0.9375-0.29688 0.96875 0 0.10938 0.09375 0.10938 0.10938 0.10938 0.10938 0 0.10938-0.015625 0.17188-0.23438 0.17188-0.70312 0.375-1.1875 0.73438-1.1875 0.15625 0 0.29688 0.078125 0.29688 0.45312 0 0.21875-0.03125 0.32812-0.15625 0.84375z" style="stroke:none"/>
      </g></g>
    <g style="fill:#000000">
      <g transform="translate(161.32 134.76)"><path d="m1.8594-2.2969c0.29688 0 1.0312-0.03125 1.5312-0.23438 0.70312-0.29688 0.75-0.89062 0.75-1.0312 0-0.4375-0.375-0.84375-1.0625-0.84375-1.1094 0-2.625 0.96875-2.625 2.7188 0 1.0156 0.59375 1.7969 1.5781 1.7969 1.4219 0 2.25-1.0625 2.25-1.1719 0-0.0625-0.046875-0.14062-0.10938-0.14062s-0.078125 0.03125-0.14062 0.10938c-0.78125 0.98438-1.875 0.98438-1.9844 0.98438-0.78125 0-0.875-0.84375-0.875-1.1562 0-0.125 0.015625-0.42188 0.15625-1.0312zm-0.46875-0.21875c0.39062-1.5156 1.4219-1.6719 1.6875-1.6719 0.45312 0 0.73438 0.29688 0.73438 0.625 0 1.0469-1.5938 1.0469-2.0156 1.0469z" style="stroke:none"/>
      </g><g transform="translate(165.96 134.76)"><path id="id-acf35d65-aa6a-4b01-b353-0465d848b9ae" d="m3.7188-3.7656c-0.1875-0.375-0.46875-0.64062-0.92188-0.64062-1.1562 0-2.3906 1.4688-2.3906 2.9219 0 0.9375 0.54688 1.5938 1.3125 1.5938 0.20312 0 0.70312-0.046875 1.2969-0.75 0.078125 0.42188 0.4375 0.75 0.90625 0.75 0.35938 0 0.57812-0.23438 0.75-0.54688 0.15625-0.35938 0.29688-0.96875 0.29688-0.98438 0-0.10938-0.09375-0.10938-0.125-0.10938-0.09375 0-0.10938 0.046875-0.14062 0.1875-0.17188 0.64062-0.34375 1.2344-0.75 1.2344-0.28125 0-0.29688-0.26562-0.29688-0.45312 0-0.21875 0.015625-0.3125 0.125-0.75 0.10938-0.40625 0.125-0.51562 0.21875-0.89062l0.35938-1.3906c0.0625-0.28125 0.0625-0.29688 0.0625-0.34375 0-0.17188-0.10938-0.26562-0.28125-0.26562-0.25 0-0.39062 0.21875-0.42188 0.4375zm-0.64062 2.5781c-0.0625 0.1875-0.0625 0.20312-0.20312 0.375-0.4375 0.54688-0.84375 0.70312-1.125 0.70312-0.5 0-0.64062-0.54688-0.64062-0.9375 0-0.5 0.3125-1.7188 0.54688-2.1875 0.3125-0.57812 0.75-0.95312 1.1562-0.95312 0.64062 0 0.78125 0.8125 0.78125 0.875s-0.015625 0.125-0.03125 0.17188z" style="stroke:none"/>
      </g><g transform="translate(171.22 134.76)"><path id="id-69d5541d-e7ca-480d-b9bc-b37e2655de4b" d="m2.0469-3.9844h0.9375c0.20312 0 0.3125 0 0.3125-0.20312 0-0.10938-0.10938-0.10938-0.28125-0.10938h-0.875c0.35938-1.4219 0.40625-1.6094 0.40625-1.6719 0-0.17188-0.125-0.26562-0.29688-0.26562-0.03125 0-0.3125 0-0.39062 0.35938l-0.39062 1.5781h-0.9375c-0.20312 0-0.29688 0-0.29688 0.1875 0 0.125 0.078125 0.125 0.28125 0.125h0.875c-0.71875 2.8281-0.76562 3-0.76562 3.1719 0 0.54688 0.375 0.92188 0.92188 0.92188 1.0156 0 1.5781-1.4531 1.5781-1.5312 0-0.10938-0.078125-0.10938-0.10938-0.10938-0.09375 0-0.10938 0.03125-0.15625 0.14062-0.42188 1.0469-0.95312 1.2812-1.2969 1.2812-0.20312 0-0.3125-0.125-0.3125-0.45312 0-0.25 0.03125-0.3125 0.0625-0.48438z" style="stroke:none"/>
      </g></g>
  </g>
</g></g></g></g></g>
 </g>
</svg>
